<svg width="25" height="25" viewBox="0 0 25 25" fill="none" xmlns="http://www.w3.org/2000/svg">
<path d="M15.4725 7.13511V4.47261C15.4725 3.87261 16.135 3.55011 16.585 3.88511L16.6625 3.95261L22.2837 9.47761C22.5462 9.73636 22.57 10.1514 22.355 10.4376L22.2837 10.5189L16.6625 16.0476C16.24 16.4626 15.5538 16.1964 15.4788 15.6301L15.4725 15.5276V12.9076L15.15 12.9364C12.9 13.1776 10.7425 14.2164 8.66625 16.0701C8.17875 16.5051 7.42625 16.0951 7.50625 15.4376C8.12875 10.3251 10.7375 7.50636 15.1912 7.15386L15.4725 7.13511ZM6.875 5.00011C6.0462 5.00011 5.25134 5.32935 4.66529 5.9154C4.07924 6.50146 3.75 7.29631 3.75 8.12511V18.1251C3.75 18.9539 4.07924 19.7488 4.66529 20.3348C5.25134 20.9209 6.0462 21.2501 6.875 21.2501H16.875C17.7038 21.2501 18.4987 20.9209 19.0847 20.3348C19.6708 19.7488 20 18.9539 20 18.1251V16.8751C20 16.7094 19.9342 16.5504 19.8169 16.4332C19.6997 16.316 19.5408 16.2501 19.375 16.2501C19.2092 16.2501 19.0503 16.316 18.9331 16.4332C18.8158 16.5504 18.75 16.7094 18.75 16.8751V18.1251C18.75 18.6224 18.5525 19.0993 18.2008 19.4509C17.8492 19.8026 17.3723 20.0001 16.875 20.0001H6.875C6.37772 20.0001 5.90081 19.8026 5.54917 19.4509C5.19754 19.0993 5 18.6224 5 18.1251V8.12511C5 7.62783 5.19754 7.15092 5.54917 6.79929C5.90081 6.44766 6.37772 6.25011 6.875 6.25011H10.625C10.7908 6.25011 10.9497 6.18427 11.0669 6.06706C11.1842 5.94984 11.25 5.79087 11.25 5.62511C11.25 5.45935 11.1842 5.30038 11.0669 5.18317C10.9497 5.06596 10.7908 5.00011 10.625 5.00011H6.875Z" fill="white"/>
</svg>
