<svg
            width="28"
            height="25"
            viewBox="0 0 28 25"
            fill="none"
            xmlns="http://www.w3.org/2000/svg"
          >
            <path
              d="M17.9477 2.21682L26.9795 17.2599C28.2775 19.4205 27.6399 22.263 25.5549 23.6082C24.855 24.0613 24.0393 24.3028 23.2056 24.3036H5.14069C2.6863 24.3036 0.695557 22.2415 0.695557 19.6954C0.695557 18.8342 0.92873 17.9918 1.36677 17.2599L10.3999 2.21682C11.6965 0.056256 14.438 -0.605527 16.5231 0.739604C17.0999 1.1116 17.5879 1.61704 17.9477 2.21682ZM14.1738 18.9123C14.5313 18.9123 14.8741 18.7703 15.1269 18.5176C15.3796 18.2648 15.5216 17.922 15.5216 17.5645C15.5216 17.2071 15.3796 16.8642 15.1269 16.6115C14.8741 16.3587 14.5313 16.2167 14.1738 16.2167C13.8164 16.2167 13.4735 16.3587 13.2208 16.6115C12.968 16.8642 12.826 17.2071 12.826 17.5645C12.826 17.922 12.968 18.2648 13.2208 18.5176C13.4735 18.7703 13.8164 18.9123 14.1738 18.9123ZM14.1738 6.78191C13.8164 6.78191 13.4735 6.92391 13.2208 7.17668C12.968 7.42944 12.826 7.77227 12.826 8.12973V13.521C12.826 13.8785 12.968 14.2213 13.2208 14.4741C13.4735 14.7269 13.8164 14.8689 14.1738 14.8689C14.5313 14.8689 14.8741 14.7269 15.1269 14.4741C15.3796 14.2213 15.5216 13.8785 15.5216 13.521V8.12973C15.5216 7.77227 15.3796 7.42944 15.1269 7.17668C14.8741 6.92391 14.5313 6.78191 14.1738 6.78191Z"
              fill="#E7E7E7"
              fill-opacity="0.8"
            ></path>
          </svg>