<svg width="20" height="20" viewBox="0 0 20 20" fill="none" xmlns="http://www.w3.org/2000/svg">
<path d="M14.8126 16.1875C14.1088 16.1875 13.4136 16.033 12.7759 15.7351C12.1383 15.4372 11.5737 15.0031 11.1221 14.4633C11.7355 15.8535 12.4631 17.1904 13.2974 18.4604C13.615 18.9417 13.2699 19.625 12.6951 19.625L7.30511 19.625C6.72898 19.625 6.38386 18.9417 6.70286 18.4604C7.53713 17.1904 8.2647 15.8535 8.87811 14.4633C8.35318 15.0906 7.67701 15.5738 6.91345 15.8672C6.1499 16.1606 5.32415 16.2546 4.5142 16.1402C3.70425 16.0258 2.93683 15.7068 2.2844 15.2134C1.63198 14.72 1.11608 14.0684 0.78544 13.3202C0.454796 12.5721 0.320314 11.7519 0.394695 10.9373C0.469076 10.1227 0.749865 9.34054 1.21054 8.66462C1.67122 7.98869 2.29659 7.44134 3.02759 7.07425C3.75858 6.70717 4.57108 6.53247 5.38836 6.56665C5.17412 5.84834 5.13063 5.08992 5.26137 4.35182C5.39211 3.61373 5.69345 2.91638 6.14138 2.31536C6.58931 1.71434 7.17144 1.22626 7.84137 0.890018C8.51131 0.55378 9.25053 0.378683 10.0001 0.378683C10.7497 0.378683 11.4889 0.55378 12.1588 0.890018C12.8288 1.22626 13.4109 1.71434 13.8588 2.31536C14.3068 2.91638 14.6081 3.61373 14.7388 4.35182C14.8696 5.08992 14.8261 5.84834 14.6119 6.56665C15.2516 6.54015 15.8902 6.64158 16.4903 6.865C17.0904 7.08842 17.6398 7.42934 18.1064 7.86779C18.5731 8.30625 18.9475 8.83341 19.2079 9.41841C19.4682 10.0034 19.6092 10.6345 19.6225 11.2746C19.6359 11.9148 19.5213 12.5512 19.2856 13.1465C19.0499 13.7419 18.6978 14.2842 18.2499 14.7417C17.8019 15.1993 17.2672 15.5628 16.677 15.8111C16.0867 16.0593 15.4529 16.1873 14.8126 16.1875Z" fill="#DADADA"/>
</svg>
