<svg width="22" height="23" viewBox="0 0 22 23" fill="none" xmlns="http://www.w3.org/2000/svg">
<path d="M7.2577 0.866135C7.7111 1.34833 8.00983 1.92979 8.18139 2.55776C8.45999 3.5778 8.4422 4.72066 8.3485 5.8862C8.1609 8.21738 7.69354 10.6709 8.23889 12.1935C8.75082 13.6227 9.57163 14.4715 10.4823 14.8889C10.874 15.0685 11.2864 15.1678 11.7035 15.1935C12.7006 12.2698 12.4879 8.53861 10.8473 6.01674C13.0194 8.1835 14.0453 11.4553 13.3825 14.8846L12.9881 15.0432C13.1113 15.0064 13.2326 14.9638 13.3517 14.9155C15.2286 14.1577 16.7646 11.9393 16.1256 8.68685C15.832 7.19253 14.8244 5.08569 13.1383 3.45345C11.6796 2.04147 9.732 0.973228 7.25766 0.866224L7.2577 0.866135ZM20.014 9.11078C19.9763 9.65434 19.8057 10.1677 19.5397 10.6339C19.0746 11.4488 18.3516 12.1504 17.5687 12.8168C16.0029 14.1497 14.197 15.3844 13.6015 16.645C13.0375 17.8391 13.0227 18.8575 13.3236 19.6675C13.4522 20.0141 13.6445 20.3336 13.8907 20.6094C16.3034 19.4061 18.4606 16.9748 19.0033 14.4088C19.0067 17.0882 17.6273 19.7405 15.112 21.4573C16.7203 22.1107 18.9879 21.6835 20.5799 19.3123C21.3174 18.2137 21.9975 16.2891 21.964 14.2418C21.9355 12.5038 21.4131 10.6826 20.0141 9.11092L20.014 9.11078ZM0.927898 12.4112C0.501904 14.4721 0.959703 16.3118 1.80387 17.8313C2.79827 19.621 4.35014 20.9478 5.53801 21.5303C8.1017 22.7876 10.2779 22.023 11.3442 20.653C8.30789 20.4239 5.78768 18.8169 4.45153 16.4949C6.20438 18.4457 9.28772 19.4727 11.9787 19.3081C12.0544 18.9463 12.0616 18.5734 11.9998 18.2089C11.8555 17.357 11.3318 16.4818 10.2464 15.7298C9.10071 14.936 6.92021 14.7703 4.89791 14.399C3.88681 14.2135 2.91026 13.9682 2.10018 13.495C1.63645 13.2241 1.23256 12.8634 0.927988 12.4112L0.927898 12.4112Z" fill="#DADADA"/>
</svg>
