<svg width="23" height="20" viewBox="0 0 23 20" fill="none" xmlns="http://www.w3.org/2000/svg">
<path d="M11.5 -1.52588e-05L0 5.36665L3.06667 6.74665V9.35332C2.14667 9.65998 1.53333 10.58 1.53333 11.5C1.53333 12.42 2.14667 13.34 3.06667 13.6466V13.8L1.68667 17.02C1.22667 18.4 1.53333 19.9333 3.83333 19.9333C6.13333 19.9333 6.44 18.4 5.98 17.02L4.6 13.8C5.52 13.34 6.13333 12.5733 6.13333 11.5C6.13333 10.4267 5.52 9.65998 4.6 9.35332V7.51332L11.5 10.7333L23 5.36665L11.5 -1.52588e-05ZM18.2467 9.96665L11.3467 13.0333L7.66667 11.3466V11.5C7.66667 12.5733 7.20667 13.4933 6.44 14.26L7.36 16.4066V16.56C7.51333 17.1733 7.66667 17.7867 7.51333 18.4C8.58667 18.86 9.81333 19.1666 11.3467 19.1666C16.4067 19.1666 18.2467 16.1 18.2467 14.5667V9.96665Z" fill="#DADADA"/>
</svg>
