<svg width="18" height="18" viewBox="0 0 18 18" fill="none" xmlns="http://www.w3.org/2000/svg">
<path fill-rule="evenodd" clip-rule="evenodd" d="M8.99922 0.200195C4.13264 0.200195 0.199219 4.13362 0.199219 9.0002C0.199219 13.8668 4.13264 17.8002 8.99922 17.8002C13.8658 17.8002 17.7992 13.8668 17.7992 9.0002C17.7992 4.13362 13.8658 0.200195 8.99922 0.200195ZM3.91244 7.66566C3.85424 7.60779 3.79605 7.54991 3.71457 7.45732C4.15426 7.39486 4.58593 7.3284 5.01123 7.26293C5.61047 7.17068 6.1971 7.08038 6.77575 7.00591C7.17149 6.95961 7.40428 6.82072 7.57887 6.43876C7.96407 5.60019 8.37721 4.7894 8.80998 3.94013C8.86102 3.83988 8.91239 3.73911 8.96393 3.63769C8.97986 3.66538 8.99444 3.68901 9.0076 3.71043C9.03308 3.75171 9.05344 3.78479 9.0687 3.82289C9.30152 4.30323 9.54013 4.78069 9.77873 5.25814C10.0173 5.7356 10.2559 6.21305 10.4888 6.6934C10.5702 6.85544 10.6633 6.92489 10.8496 6.94804C11.7389 7.07035 12.6128 7.2003 13.4964 7.33168C13.6998 7.36194 13.9038 7.39227 14.1087 7.4226C14.1261 7.42838 14.1435 7.43128 14.161 7.43417C14.1785 7.43706 14.1959 7.43996 14.2133 7.44575C14.225 7.45732 14.2366 7.47179 14.2483 7.48626C14.2599 7.50073 14.2716 7.51519 14.2832 7.52677C14.2662 7.53401 14.2492 7.54074 14.2325 7.54739C14.1688 7.57265 14.1082 7.5967 14.0621 7.64251C13.678 8.00712 13.2997 8.37462 12.9214 8.74215C12.5431 9.10957 12.1649 9.47707 11.7808 9.84173C11.6527 9.95747 11.6178 10.0732 11.6527 10.2468C11.7846 10.949 11.9062 11.6512 12.0278 12.3534C12.0885 12.7045 12.1493 13.0556 12.2114 13.4066C12.2188 13.4364 12.2168 13.4757 12.2142 13.5215C12.2129 13.5469 12.2114 13.5744 12.2114 13.6034C12.158 13.5836 12.1123 13.5599 12.0677 13.5367C12.0344 13.5195 12.0018 13.5025 11.967 13.4877C11.036 13.0017 10.1044 12.5153 9.16181 12.0178C9.03383 11.9483 8.92907 11.9483 8.80101 12.0178C7.85824 12.5039 6.91547 13.0015 5.97269 13.4993C5.93514 13.5241 5.89418 13.5423 5.84811 13.5629C5.80846 13.5805 5.765 13.5998 5.71656 13.6266C5.77475 13.3026 5.8213 13.0132 5.86786 12.7239C5.98917 11.99 6.11927 11.2648 6.25052 10.5332C6.27038 10.4225 6.29028 10.3116 6.31017 10.2005C6.3451 10.0732 6.31017 9.99216 6.21706 9.89956C5.44885 9.15876 4.68065 8.41801 3.91244 7.66566Z" fill="#ffffff"/>
</svg>
