<svg width="20" height="26" viewBox="0 0 20 26" fill="none" xmlns="http://www.w3.org/2000/svg">
<path d="M9.54736 0.310913C4.26848 0.310913 0.0483398 4.4499 0.0483398 9.62726C0.0483398 11.4177 0.592555 12.8006 1.53751 14.2029L8.54799 24.6353C8.76073 24.9507 9.12683 25.1545 9.54736 25.1545C9.96789 25.1545 10.3389 24.9459 10.5467 24.6353L17.5572 14.2029C18.5022 12.8006 19.0464 11.4177 19.0464 9.62726C19.0464 4.4499 14.8262 0.310913 9.54736 0.310913ZM9.54736 14.7998C6.63334 14.7998 4.26848 12.4804 4.26848 9.61756C4.26848 6.75472 6.63334 4.43534 9.54736 4.43534C12.4614 4.43534 14.8262 6.75472 14.8262 9.61756C14.8262 12.4804 12.4614 14.7998 9.54736 14.7998ZM9.54736 6.52181C7.79598 6.52181 6.38102 7.90956 6.38102 9.62726C6.38102 11.345 7.79598 12.7327 9.54736 12.7327C11.2987 12.7327 12.7137 11.345 12.7137 9.62726C12.7137 7.90956 11.2987 6.52181 9.54736 6.52181Z" fill="#DB0000"/>
</svg>
