<svg
          width="21"
          height="21"
          viewBox="0 0 21 21"
          fill="none"
          xmlns="http://www.w3.org/2000/svg"
        >
          <path
            fill-rule="evenodd"
            clip-rule="evenodd"
            d="M21 10.5C21 16.299 16.299 21 10.5 21C4.70099 21 0 16.299 0 10.5C0 4.701 4.70099 0 10.5 0C16.299 0 21 4.701 21 10.5ZM13.5638 6.58996H15.4052L16.3847 15.6325H4.59186L5.59484 6.58996H7.43625C7.66348 4.83475 8.97206 3.52617 10.5 3.52617C12.0281 3.52617 13.3366 4.90527 13.5638 6.58996ZM12.8037 6.50378C12.6471 5.20303 11.6519 4.28624 10.5 4.28624C9.34818 4.28624 8.43139 5.28923 8.19632 6.50378H12.8037ZM10.5706 11.3306C12.2553 11.2601 13.6343 9.88101 13.5638 8.19631H13.5952V8.03959H12.8194V8.19631C12.8194 9.5049 11.7538 10.5705 10.5157 10.5705C9.27766 10.5705 8.21199 9.5049 8.21199 8.19631V8.03959H7.43625V8.26684C7.43625 9.95153 8.81535 11.3306 10.5 11.3306H10.5706Z"
            fill="#ffffff"
          ></path>
        </svg>