<svg width="175" height="60" viewBox="0 0 175 60" fill="none" xmlns="http://www.w3.org/2000/svg">
<path d="M66.2549 40.168C66.2549 42.1341 65.3678 43.1172 63.5937 43.1172C61.8945 43.1172 61.0449 42.1715 61.0449 40.2803V35.998H61.8652V40.2266C61.8652 41.6621 62.4707 42.3799 63.6816 42.3799C64.8502 42.3799 65.4346 41.6865 65.4346 40.2998V35.998H66.2549V40.168ZM72.0508 43H71.25V40.1484C71.25 39.0872 70.8626 38.5566 70.0879 38.5566C69.6875 38.5566 69.3555 38.708 69.0918 39.0107C68.8314 39.3102 68.7012 39.6895 68.7012 40.1484V43H67.9004V38H68.7012V38.8301H68.7207C69.0983 38.1986 69.6452 37.8828 70.3613 37.8828C70.9082 37.8828 71.3265 38.0602 71.6162 38.415C71.9059 38.7666 72.0508 39.276 72.0508 39.9434V43ZM77.1435 43H76.3428V42.2187H76.3232C75.9749 42.8177 75.4622 43.1172 74.7851 43.1172C74.2871 43.1172 73.8965 42.9854 73.6133 42.7217C73.3333 42.458 73.1933 42.1081 73.1933 41.6719C73.1933 40.7376 73.7435 40.194 74.8437 40.041L76.3428 39.8311C76.3428 38.9814 75.9993 38.5566 75.3125 38.5566C74.7103 38.5566 74.1667 38.7617 73.6816 39.1719V38.3516C74.1732 38.0391 74.7396 37.8828 75.3808 37.8828C76.556 37.8828 77.1435 38.5046 77.1435 39.748V43ZM76.3428 40.4707L75.1367 40.6367C74.7656 40.6888 74.4857 40.7816 74.2969 40.915C74.1081 41.0452 74.0137 41.278 74.0137 41.6133C74.0137 41.8574 74.0999 42.0576 74.2724 42.2139C74.4482 42.3669 74.681 42.4434 74.9707 42.4434C75.3678 42.4434 75.695 42.305 75.9521 42.0283C76.2126 41.7484 76.3428 41.3952 76.3428 40.9687V40.4707ZM82.9199 43H82.1191V42.1504H82.0996C81.7285 42.7949 81.1556 43.1172 80.3808 43.1172C79.7526 43.1172 79.2497 42.8942 78.8721 42.4482C78.4977 41.999 78.3105 41.3887 78.3105 40.6172C78.3105 39.7904 78.5189 39.1279 78.9355 38.6299C79.3522 38.1318 79.9072 37.8828 80.6006 37.8828C81.2874 37.8828 81.7871 38.153 82.0996 38.6934H82.1191V35.5977H82.9199V43ZM82.1191 40.7393V40.002C82.1191 39.5983 81.9857 39.2565 81.7187 38.9766C81.4518 38.6966 81.1133 38.5566 80.7031 38.5566C80.2148 38.5566 79.8307 38.7357 79.5508 39.0937C79.2708 39.4518 79.1308 39.9466 79.1308 40.5781C79.1308 41.1543 79.2643 41.61 79.5312 41.9453C79.8014 42.2773 80.1627 42.4434 80.6152 42.4434C81.0612 42.4434 81.4225 42.2822 81.6992 41.96C81.9792 41.6377 82.1191 41.2308 82.1191 40.7393ZM88.1201 43H87.3193V42.2187H87.2998C86.9515 42.8177 86.4388 43.1172 85.7617 43.1172C85.2637 43.1172 84.873 42.9854 84.5898 42.7217C84.3099 42.458 84.1699 42.1081 84.1699 41.6719C84.1699 40.7376 84.72 40.194 85.8203 40.041L87.3193 39.8311C87.3193 38.9814 86.9759 38.5566 86.2891 38.5566C85.6868 38.5566 85.1432 38.7617 84.6582 39.1719V38.3516C85.1497 38.0391 85.7161 37.8828 86.3574 37.8828C87.5325 37.8828 88.1201 38.5046 88.1201 39.748V43ZM87.3193 40.4707L86.1133 40.6367C85.7422 40.6888 85.4622 40.7816 85.2734 40.915C85.0846 41.0452 84.9902 41.278 84.9902 41.6133C84.9902 41.8574 85.0765 42.0576 85.249 42.2139C85.4248 42.3669 85.6575 42.4434 85.9473 42.4434C86.3444 42.4434 86.6715 42.305 86.9287 42.0283C87.1891 41.7484 87.3193 41.3952 87.3193 40.9687V40.4707ZM93.1738 43H92.373V35.5977H93.1738V43ZM98.374 43H97.5732V42.2187H97.5537C97.2054 42.8177 96.6927 43.1172 96.0156 43.1172C95.5176 43.1172 95.1269 42.9854 94.8437 42.7217C94.5638 42.458 94.4238 42.1081 94.4238 41.6719C94.4238 40.7376 94.974 40.194 96.0742 40.041L97.5732 39.8311C97.5732 38.9814 97.2298 38.5566 96.543 38.5566C95.9408 38.5566 95.3971 38.7617 94.9121 39.1719V38.3516C95.4036 38.0391 95.97 37.8828 96.6113 37.8828C97.7865 37.8828 98.374 38.5046 98.374 39.748V43ZM97.5732 40.4707L96.3672 40.6367C95.9961 40.6888 95.7161 40.7816 95.5273 40.915C95.3385 41.0452 95.2441 41.278 95.2441 41.6133C95.2441 41.8574 95.3304 42.0576 95.5029 42.2139C95.6787 42.3669 95.9115 42.4434 96.2012 42.4434C96.5983 42.4434 96.9255 42.305 97.1826 42.0283C97.443 41.7484 97.5732 41.3952 97.5732 40.9687V40.4707ZM100.703 42.2773H100.684V43H99.8828V35.5977H100.684V38.8789H100.703C101.097 38.2148 101.673 37.8828 102.432 37.8828C103.073 37.8828 103.574 38.1074 103.936 38.5566C104.3 39.0026 104.482 39.6016 104.482 40.3535C104.482 41.1901 104.279 41.8607 103.872 42.3652C103.465 42.8665 102.909 43.1172 102.202 43.1172C101.541 43.1172 101.042 42.8372 100.703 42.2773ZM100.684 40.2607V40.959C100.684 41.3724 100.817 41.724 101.084 42.0137C101.354 42.3001 101.696 42.4434 102.109 42.4434C102.594 42.4434 102.974 42.2578 103.247 41.8867C103.524 41.5156 103.662 40.9997 103.662 40.3389C103.662 39.7822 103.534 39.346 103.276 39.0303C103.019 38.7145 102.671 38.5566 102.231 38.5566C101.766 38.5566 101.392 38.7194 101.108 39.0449C100.825 39.3672 100.684 39.7725 100.684 40.2607ZM105.459 42.8193V41.96C105.895 42.2822 106.375 42.4434 106.899 42.4434C107.603 42.4434 107.954 42.209 107.954 41.7402C107.954 41.6068 107.923 41.4945 107.861 41.4033C107.803 41.3089 107.721 41.2259 107.617 41.1543C107.516 41.0827 107.396 41.0192 107.256 40.9639C107.119 40.9053 106.971 40.8451 106.812 40.7832C106.59 40.6953 106.395 40.6074 106.226 40.5195C106.06 40.4284 105.92 40.3275 105.806 40.2168C105.695 40.1029 105.61 39.9743 105.552 39.8311C105.496 39.6878 105.469 39.5202 105.469 39.3281C105.469 39.0937 105.522 38.887 105.63 38.708C105.737 38.5257 105.881 38.3743 106.06 38.2539C106.239 38.1302 106.442 38.0374 106.67 37.9756C106.901 37.9137 107.139 37.8828 107.383 37.8828C107.816 37.8828 108.203 37.9577 108.545 38.1074V38.918C108.177 38.6771 107.754 38.5566 107.275 38.5566C107.126 38.5566 106.991 38.5745 106.87 38.6103C106.75 38.6429 106.646 38.6901 106.558 38.752C106.473 38.8138 106.406 38.8887 106.357 38.9766C106.312 39.0612 106.289 39.1556 106.289 39.2598C106.289 39.39 106.312 39.499 106.357 39.5869C106.406 39.6748 106.476 39.7529 106.567 39.8213C106.659 39.8896 106.769 39.9515 106.899 40.0068C107.03 40.0622 107.178 40.1224 107.344 40.1875C107.565 40.2721 107.764 40.36 107.939 40.4512C108.115 40.5391 108.265 40.64 108.389 40.7539C108.512 40.8646 108.607 40.9932 108.672 41.1396C108.74 41.2861 108.774 41.4603 108.774 41.6621C108.774 41.9095 108.719 42.1243 108.608 42.3066C108.501 42.4889 108.356 42.6403 108.174 42.7607C107.992 42.8812 107.782 42.9707 107.544 43.0293C107.306 43.0879 107.057 43.1172 106.797 43.1172C106.283 43.1172 105.837 43.0179 105.459 42.8193ZM113.574 42.2773H113.555V45.2998H112.754V38H113.555V38.8789H113.574C113.968 38.2148 114.544 37.8828 115.303 37.8828C115.947 37.8828 116.45 38.1074 116.812 38.5566C117.173 39.0026 117.354 39.6016 117.354 40.3535C117.354 41.1901 117.15 41.8607 116.743 42.3652C116.336 42.8665 115.78 43.1172 115.073 43.1172C114.425 43.1172 113.926 42.8372 113.574 42.2773ZM113.555 40.2607V40.959C113.555 41.3724 113.688 41.724 113.955 42.0137C114.225 42.3001 114.567 42.4434 114.98 42.4434C115.466 42.4434 115.845 42.2578 116.118 41.8867C116.395 41.5156 116.533 40.9997 116.533 40.3389C116.533 39.7822 116.405 39.346 116.147 39.0303C115.89 38.7145 115.542 38.5566 115.103 38.5566C114.637 38.5566 114.263 38.7194 113.98 39.0449C113.696 39.3672 113.555 39.7725 113.555 40.2607ZM122.563 38L120.571 43H119.785L117.891 38H118.77L120.039 41.6328C120.133 41.8997 120.192 42.1325 120.215 42.3311H120.234C120.267 42.0804 120.319 41.8542 120.391 41.6523L121.719 38H122.563ZM125.747 42.9512C125.558 43.0553 125.309 43.1074 125 43.1074C124.124 43.1074 123.687 42.6191 123.687 41.6426V38.6836H122.827V38H123.687V36.7793L124.487 36.5205V38H125.747V38.6836H124.487V41.501C124.487 41.8363 124.544 42.0755 124.658 42.2187C124.772 42.362 124.961 42.4336 125.225 42.4336C125.426 42.4336 125.601 42.3783 125.747 42.2676V42.9512ZM127.095 43.1074C126.945 43.1074 126.816 43.0537 126.709 42.9463C126.605 42.8389 126.553 42.7103 126.553 42.5605C126.553 42.4108 126.605 42.2822 126.709 42.1748C126.816 42.0641 126.945 42.0088 127.095 42.0088C127.248 42.0088 127.378 42.0641 127.485 42.1748C127.593 42.2822 127.647 42.4108 127.647 42.5605C127.647 42.7103 127.593 42.8389 127.485 42.9463C127.378 43.0537 127.248 43.1074 127.095 43.1074ZM132.529 43H131.729V35.5977H132.529V43ZM136.47 42.9512C136.281 43.0553 136.032 43.1074 135.723 43.1074C134.847 43.1074 134.409 42.6191 134.409 41.6426V38.6836H133.55V38H134.409V36.7793L135.21 36.5205V38H136.47V38.6836H135.21V41.501C135.21 41.8363 135.267 42.0755 135.381 42.2187C135.495 42.362 135.684 42.4336 135.947 42.4336C136.149 42.4336 136.323 42.3783 136.47 42.2676V42.9512ZM141.807 43H141.006V42.1504H140.986C140.615 42.7949 140.042 43.1172 139.268 43.1172C138.639 43.1172 138.136 42.8942 137.759 42.4482C137.384 41.999 137.197 41.3887 137.197 40.6172C137.197 39.7904 137.406 39.1279 137.822 38.6299C138.239 38.1318 138.794 37.8828 139.487 37.8828C140.174 37.8828 140.674 38.153 140.986 38.6934H141.006V35.5977H141.807V43ZM141.006 40.7393V40.002C141.006 39.5983 140.872 39.2565 140.605 38.9766C140.339 38.6966 140 38.5566 139.59 38.5566C139.102 38.5566 138.717 38.7357 138.438 39.0937C138.158 39.4518 138.018 39.9466 138.018 40.5781C138.018 41.1543 138.151 41.61 138.418 41.9453C138.688 42.2773 139.05 42.4434 139.502 42.4434C139.948 42.4434 140.309 42.2822 140.586 41.96C140.866 41.6377 141.006 41.2308 141.006 40.7393ZM143.706 43.1074C143.556 43.1074 143.428 43.0537 143.32 42.9463C143.216 42.8389 143.164 42.7103 143.164 42.5605C143.164 42.4108 143.216 42.2822 143.32 42.1748C143.428 42.0641 143.556 42.0088 143.706 42.0088C143.859 42.0088 143.989 42.0641 144.097 42.1748C144.204 42.2822 144.258 42.4108 144.258 42.5605C144.258 42.7103 144.204 42.8389 144.097 42.9463C143.989 43.0537 143.859 43.1074 143.706 43.1074Z" fill="white"/>
<path d="M60.9228 30V22.998H62.8564C65.3239 22.998 66.5576 24.1357 66.5576 26.4111C66.5576 27.4919 66.2142 28.361 65.5273 29.0186C64.8437 29.6729 63.9274 30 62.7783 30H60.9228ZM61.7431 23.7402V29.2578H62.7881C63.706 29.2578 64.4205 29.012 64.9316 28.5205C65.4427 28.029 65.6982 27.3324 65.6982 26.4307C65.6982 24.637 64.7444 23.7402 62.8369 23.7402H61.7431ZM71.8457 27.7002H68.3154C68.3284 28.2568 68.4782 28.6865 68.7646 28.9893C69.0511 29.292 69.445 29.4434 69.9463 29.4434C70.5094 29.4434 71.027 29.2578 71.499 28.8867V29.6387C71.0595 29.9577 70.4785 30.1172 69.7558 30.1172C69.0494 30.1172 68.4944 29.891 68.0908 29.4385C67.6871 28.9827 67.4853 28.3431 67.4853 27.5195C67.4853 26.7415 67.705 26.1084 68.1445 25.6201C68.5872 25.1286 69.1357 24.8828 69.79 24.8828C70.4443 24.8828 70.9505 25.0944 71.3086 25.5176C71.6666 25.9408 71.8457 26.5283 71.8457 27.2803V27.7002ZM71.0254 27.0215C71.0221 26.5592 70.9098 26.1995 70.6884 25.9424C70.4703 25.6852 70.166 25.5566 69.7754 25.5566C69.3978 25.5566 69.0771 25.6917 68.8134 25.9619C68.5498 26.2321 68.387 26.5853 68.3252 27.0215H71.0254ZM72.7588 29.8193V28.96C73.195 29.2822 73.6751 29.4434 74.1992 29.4434C74.9023 29.4434 75.2539 29.209 75.2539 28.7402C75.2539 28.6068 75.223 28.4945 75.1611 28.4033C75.1025 28.3089 75.0211 28.2259 74.917 28.1543C74.8161 28.0827 74.6956 28.0192 74.5556 27.9639C74.4189 27.9053 74.2708 27.8451 74.1113 27.7832C73.8899 27.6953 73.6946 27.6074 73.5254 27.5195C73.3593 27.4284 73.2194 27.3275 73.1054 27.2168C72.9948 27.1029 72.9101 26.9743 72.8515 26.8311C72.7962 26.6878 72.7685 26.5202 72.7685 26.3281C72.7685 26.0937 72.8222 25.887 72.9297 25.708C73.0371 25.5257 73.1803 25.3743 73.3593 25.2539C73.5384 25.1302 73.7418 25.0374 73.9697 24.9756C74.2008 24.9137 74.4385 24.8828 74.6826 24.8828C75.1155 24.8828 75.5029 24.9577 75.8447 25.1074V25.918C75.4769 25.6771 75.0537 25.5566 74.5752 25.5566C74.4254 25.5566 74.2903 25.5745 74.1699 25.6103C74.0495 25.6429 73.9453 25.6901 73.8574 25.752C73.7728 25.8138 73.706 25.8887 73.6572 25.9766C73.6116 26.0612 73.5888 26.1556 73.5888 26.2598C73.5888 26.39 73.6116 26.499 73.6572 26.5869C73.706 26.6748 73.776 26.7529 73.8672 26.8213C73.9583 26.8896 74.069 26.9515 74.1992 27.0068C74.3294 27.0622 74.4775 27.1224 74.6435 27.1875C74.8649 27.2721 75.0635 27.36 75.2392 27.4512C75.415 27.5391 75.5648 27.64 75.6885 27.7539C75.8121 27.8646 75.9065 27.9932 75.9717 28.1396C76.04 28.2861 76.0742 28.4603 76.0742 28.6621C76.0742 28.9095 76.0189 29.1243 75.9082 29.3066C75.8008 29.4889 75.6559 29.6403 75.4736 29.7607C75.2913 29.8812 75.0814 29.9707 74.8437 30.0293C74.6061 30.0879 74.3571 30.1172 74.0967 30.1172C73.5823 30.1172 73.1364 30.0179 72.7588 29.8193ZM77.7197 23.7305C77.5765 23.7305 77.4544 23.6816 77.3535 23.584C77.2526 23.4863 77.2021 23.3626 77.2021 23.2129C77.2021 23.0631 77.2526 22.9394 77.3535 22.8418C77.4544 22.7409 77.5765 22.6904 77.7197 22.6904C77.8662 22.6904 77.9899 22.7409 78.0908 22.8418C78.195 22.9394 78.247 23.0631 78.247 23.2129C78.247 23.3561 78.195 23.4782 78.0908 23.5791C77.9899 23.68 77.8662 23.7305 77.7197 23.7305ZM78.1103 30H77.3095V25H78.1103V30ZM83.999 29.5996C83.999 31.4355 83.1201 32.3535 81.3623 32.3535C80.7438 32.3535 80.2034 32.2363 79.7412 32.002V31.2012C80.3043 31.5137 80.8414 31.6699 81.3525 31.6699C82.583 31.6699 83.1982 31.0156 83.1982 29.707V29.1602H83.1787C82.7978 29.7982 82.2249 30.1172 81.4599 30.1172C80.8382 30.1172 80.3369 29.8958 79.956 29.4531C79.5784 29.0072 79.3896 28.4098 79.3896 27.6611C79.3896 26.8115 79.5931 26.1361 80 25.6348C80.4101 25.1335 80.97 24.8828 81.6797 24.8828C82.3535 24.8828 82.8532 25.153 83.1787 25.6934H83.1982V25H83.999V29.5996ZM83.1982 27.7393V27.002C83.1982 26.6048 83.0631 26.2646 82.7929 25.9814C82.526 25.6982 82.1924 25.5566 81.792 25.5566C81.2972 25.5566 80.9098 25.7373 80.6299 26.0986C80.3499 26.4567 80.2099 26.9596 80.2099 27.6074C80.2099 28.1641 80.3434 28.61 80.6103 28.9453C80.8805 29.2773 81.237 29.4434 81.6797 29.4434C82.1289 29.4434 82.4935 29.2839 82.7734 28.9648C83.0566 28.6458 83.1982 28.2373 83.1982 27.7393ZM89.7705 30H88.9697V27.1484C88.9697 26.0872 88.5823 25.5566 87.8076 25.5566C87.4072 25.5566 87.0752 25.708 86.8115 26.0107C86.5511 26.3102 86.4209 26.6895 86.4209 27.1484V30H85.6201V25H86.4209V25.8301H86.4404C86.818 25.1986 87.3649 24.8828 88.081 24.8828C88.6279 24.8828 89.0462 25.0602 89.3359 25.415C89.6256 25.7666 89.7705 26.276 89.7705 26.9434V30ZM95.3027 27.7002H91.7724C91.7855 28.2568 91.9352 28.6865 92.2217 28.9893C92.5081 29.292 92.902 29.4434 93.4033 29.4434C93.9665 29.4434 94.484 29.2578 94.956 28.8867V29.6387C94.5166 29.9577 93.9355 30.1172 93.2129 30.1172C92.5065 30.1172 91.9515 29.891 91.5478 29.4385C91.1442 28.9827 90.9424 28.3431 90.9424 27.5195C90.9424 26.7415 91.1621 26.1084 91.6015 25.6201C92.0443 25.1286 92.5928 24.8828 93.2471 24.8828C93.9014 24.8828 94.4075 25.0944 94.7656 25.5176C95.1237 25.9408 95.3027 26.5283 95.3027 27.2803V27.7002ZM94.4824 27.0215C94.4792 26.5592 94.3668 26.1995 94.1455 25.9424C93.9274 25.6852 93.623 25.5566 93.2324 25.5566C92.8548 25.5566 92.5342 25.6917 92.2705 25.9619C92.0068 26.2321 91.8441 26.5853 91.7822 27.0215H94.4824ZM100.786 30H99.9853V29.1504H99.9658C99.5947 29.7949 99.0218 30.1172 98.2471 30.1172C97.6188 30.1172 97.1159 29.8942 96.7383 29.4482C96.3639 28.999 96.1767 28.3887 96.1767 27.6172C96.1767 26.7904 96.3851 26.1279 96.8017 25.6299C97.2184 25.1318 97.7734 24.8828 98.4668 24.8828C99.1536 24.8828 99.6533 25.153 99.9658 25.6934H99.9853V22.5977H100.786V30ZM99.9853 27.7393V27.002C99.9853 26.5983 99.8519 26.2565 99.5849 25.9766C99.318 25.6966 98.9795 25.5566 98.5693 25.5566C98.081 25.5566 97.6969 25.7357 97.417 26.0937C97.137 26.4518 96.9971 26.9466 96.9971 27.5781C96.9971 28.1543 97.1305 28.61 97.3974 28.9453C97.6676 29.2773 98.029 29.4434 98.4814 29.4434C98.9274 29.4434 99.2887 29.2822 99.5654 28.96C99.8454 28.6377 99.9853 28.2308 99.9853 27.7393ZM111.396 30.1123C111.211 30.1123 111.047 30.0863 110.903 30.0342C110.763 29.9854 110.633 29.9154 110.513 29.8242C110.392 29.7298 110.275 29.6159 110.161 29.4824C110.05 29.349 109.933 29.1976 109.81 29.0283C109.679 29.1683 109.528 29.3034 109.355 29.4336C109.186 29.5638 108.997 29.6794 108.789 29.7803C108.581 29.8812 108.353 29.9609 108.105 30.0195C107.858 30.0814 107.59 30.1123 107.3 30.1123C106.948 30.1123 106.626 30.0684 106.333 29.9805C106.04 29.8926 105.789 29.764 105.581 29.5947C105.373 29.4222 105.21 29.2106 105.093 28.96C104.979 28.7093 104.922 28.4212 104.922 28.0957C104.922 27.5977 105.063 27.1728 105.347 26.8213C105.63 26.4665 106.03 26.1768 106.548 25.9521C106.45 25.8805 106.353 25.7975 106.255 25.7031C106.157 25.6055 106.069 25.4964 105.991 25.376C105.916 25.2523 105.854 25.1172 105.806 24.9707C105.76 24.821 105.737 24.6582 105.737 24.4824C105.737 24.2253 105.783 23.9974 105.874 23.7988C105.968 23.6003 106.097 23.4326 106.26 23.2959C106.423 23.1592 106.615 23.0566 106.836 22.9883C107.057 22.9167 107.297 22.8809 107.554 22.8809C107.808 22.8809 108.039 22.9167 108.247 22.9883C108.459 23.0566 108.639 23.1559 108.789 23.2861C108.942 23.4163 109.061 23.5726 109.146 23.7549C109.23 23.9372 109.272 24.1406 109.272 24.3652C109.272 24.7559 109.16 25.0814 108.936 25.3418C108.714 25.599 108.381 25.8187 107.935 26.001C108.159 26.0889 108.363 26.1963 108.545 26.3232C108.727 26.4502 108.895 26.5918 109.048 26.748C109.204 26.9043 109.349 27.0719 109.482 27.251C109.616 27.43 109.748 27.6156 109.878 27.8076C110.142 27.4398 110.34 27.0345 110.474 26.5918C110.607 26.1491 110.674 25.6852 110.674 25.2002C110.674 25.0765 110.666 24.9609 110.649 24.8535C110.636 24.7428 110.617 24.6338 110.591 24.5264H111.367C111.393 24.6338 111.408 24.7363 111.411 24.834C111.418 24.9284 111.424 25.0423 111.431 25.1758C111.431 25.472 111.4 25.7699 111.338 26.0693C111.276 26.3688 111.193 26.6602 111.089 26.9434C110.985 27.2233 110.863 27.4902 110.723 27.7441C110.586 27.998 110.441 28.2308 110.288 28.4424C110.402 28.5986 110.506 28.7354 110.601 28.8525C110.695 28.9665 110.789 29.0625 110.884 29.1406C110.981 29.2187 111.081 29.2773 111.182 29.3164C111.286 29.3522 111.403 29.3701 111.533 29.3701C111.631 29.3701 111.73 29.3571 111.831 29.3311C111.932 29.305 112.036 29.2725 112.144 29.2334V29.9756C112.026 30.0212 111.903 30.0553 111.772 30.0781C111.646 30.1009 111.52 30.1123 111.396 30.1123ZM107.3 29.4189C107.547 29.4189 107.775 29.3929 107.983 29.3408C108.192 29.2855 108.384 29.2139 108.56 29.126C108.735 29.0348 108.895 28.9307 109.038 28.8135C109.181 28.693 109.312 28.5677 109.429 28.4375C109.23 28.1283 109.046 27.8646 108.877 27.6465C108.711 27.4251 108.542 27.2347 108.369 27.0752C108.2 26.9157 108.018 26.779 107.822 26.665C107.63 26.5511 107.407 26.4453 107.153 26.3477C106.948 26.429 106.759 26.5202 106.587 26.6211C106.414 26.7187 106.265 26.8359 106.138 26.9727C106.014 27.1061 105.916 27.2624 105.845 27.4414C105.773 27.6204 105.737 27.8304 105.737 28.0713C105.737 28.2926 105.778 28.488 105.859 28.6572C105.941 28.8265 106.051 28.9681 106.191 29.082C106.335 29.1927 106.501 29.2773 106.689 29.3359C106.878 29.3913 107.082 29.4189 107.3 29.4189ZM108.521 24.4336C108.521 24.2708 108.49 24.1325 108.428 24.0186C108.369 23.9046 108.293 23.8102 108.198 23.7353C108.107 23.6605 108.005 23.6068 107.891 23.5742C107.777 23.5384 107.664 23.5205 107.554 23.5205C107.235 23.5205 106.979 23.6068 106.787 23.7793C106.598 23.9518 106.502 24.1862 106.499 24.4824C106.499 24.6159 106.519 24.7412 106.558 24.8584C106.6 24.9756 106.657 25.0846 106.729 25.1855C106.803 25.2865 106.89 25.376 106.987 25.4541C107.085 25.5322 107.189 25.599 107.3 25.6543C107.71 25.5111 108.016 25.345 108.218 25.1562C108.42 24.9642 108.521 24.7233 108.521 24.4336ZM120.171 30H119.37V29.1504H119.351C118.979 29.7949 118.407 30.1172 117.632 30.1172C117.004 30.1172 116.501 29.8942 116.123 29.4482C115.749 28.999 115.562 28.3887 115.562 27.6172C115.562 26.7904 115.77 26.1279 116.187 25.6299C116.603 25.1318 117.158 24.8828 117.852 24.8828C118.538 24.8828 119.038 25.153 119.351 25.6934H119.37V22.5977H120.171V30ZM119.37 27.7393V27.002C119.37 26.5983 119.237 26.2565 118.97 25.9766C118.703 25.6966 118.364 25.5566 117.954 25.5566C117.466 25.5566 117.082 25.7357 116.802 26.0937C116.522 26.4518 116.382 26.9466 116.382 27.5781C116.382 28.1543 116.515 28.61 116.782 28.9453C117.052 29.2773 117.414 29.4434 117.866 29.4434C118.312 29.4434 118.674 29.2822 118.95 28.96C119.23 28.6377 119.37 28.2308 119.37 27.7393ZM125.811 27.7002H122.28C122.293 28.2568 122.443 28.6865 122.729 28.9893C123.016 29.292 123.41 29.4434 123.911 29.4434C124.474 29.4434 124.992 29.2578 125.464 28.8867V29.6387C125.024 29.9577 124.443 30.1172 123.721 30.1172C123.014 30.1172 122.459 29.891 122.056 29.4385C121.652 28.9827 121.45 28.3431 121.45 27.5195C121.45 26.7415 121.67 26.1084 122.109 25.6201C122.552 25.1286 123.101 24.8828 123.755 24.8828C124.409 24.8828 124.915 25.0944 125.273 25.5176C125.632 25.9408 125.811 26.5283 125.811 27.2803V27.7002ZM124.99 27.0215C124.987 26.5592 124.875 26.1995 124.653 25.9424C124.435 25.6852 124.131 25.5566 123.74 25.5566C123.363 25.5566 123.042 25.6917 122.778 25.9619C122.515 26.2321 122.352 26.5853 122.29 27.0215H124.99ZM130.957 25L128.965 30H128.179L126.284 25H127.163L128.433 28.6328C128.527 28.8997 128.586 29.1325 128.608 29.3311H128.628C128.66 29.0804 128.713 28.8542 128.784 28.6523L130.112 25H130.957ZM135.84 27.7002H132.31C132.323 28.2568 132.472 28.6865 132.759 28.9893C133.045 29.292 133.439 29.4434 133.94 29.4434C134.504 29.4434 135.021 29.2578 135.493 28.8867V29.6387C135.054 29.9577 134.473 30.1172 133.75 30.1172C133.044 30.1172 132.489 29.891 132.085 29.4385C131.681 28.9827 131.479 28.3431 131.479 27.5195C131.479 26.7415 131.699 26.1084 132.139 25.6201C132.581 25.1286 133.13 24.8828 133.784 24.8828C134.438 24.8828 134.945 25.0944 135.303 25.5176C135.661 25.9408 135.84 26.5283 135.84 27.2803V27.7002ZM135.02 27.0215C135.016 26.5592 134.904 26.1995 134.683 25.9424C134.465 25.6852 134.16 25.5566 133.77 25.5566C133.392 25.5566 133.071 25.6917 132.808 25.9619C132.544 26.2321 132.381 26.5853 132.319 27.0215H135.02ZM137.856 30H137.056V22.5977H137.856V30ZM141.567 30.1172C140.828 30.1172 140.238 29.8844 139.795 29.4189C139.355 28.9502 139.136 28.3301 139.136 27.5586C139.136 26.7187 139.365 26.0628 139.824 25.5908C140.283 25.1188 140.903 24.8828 141.685 24.8828C142.43 24.8828 143.011 25.1123 143.428 25.5713C143.848 26.0303 144.058 26.6667 144.058 27.4805C144.058 28.278 143.831 28.9176 143.379 29.3994C142.93 29.8779 142.326 30.1172 141.567 30.1172ZM141.626 25.5566C141.112 25.5566 140.705 25.7324 140.405 26.084C140.106 26.4323 139.956 26.9141 139.956 27.5293C139.956 28.1217 140.107 28.5889 140.41 28.9307C140.713 29.2725 141.118 29.4434 141.626 29.4434C142.144 29.4434 142.541 29.2757 142.817 28.9404C143.097 28.6051 143.237 28.1283 143.237 27.5098C143.237 26.8848 143.097 26.403 142.817 26.0645C142.541 25.7259 142.144 25.5566 141.626 25.5566ZM146.157 29.2773H146.138V32.2998H145.337V25H146.138V25.8789H146.157C146.551 25.2148 147.127 24.8828 147.886 24.8828C148.53 24.8828 149.033 25.1074 149.395 25.5566C149.756 26.0026 149.937 26.6016 149.937 27.3535C149.937 28.1901 149.733 28.8607 149.326 29.3652C148.919 29.8665 148.363 30.1172 147.656 30.1172C147.008 30.1172 146.509 29.8372 146.157 29.2773ZM146.138 27.2607V27.959C146.138 28.3724 146.271 28.724 146.538 29.0137C146.808 29.3001 147.15 29.4434 147.563 29.4434C148.049 29.4434 148.428 29.2578 148.701 28.8867C148.978 28.5156 149.116 27.9997 149.116 27.3389C149.116 26.7822 148.988 26.346 148.73 26.0303C148.473 25.7145 148.125 25.5566 147.686 25.5566C147.22 25.5566 146.846 25.7194 146.563 26.0449C146.279 26.3672 146.138 26.7725 146.138 27.2607ZM155.234 27.7002H151.704C151.717 28.2568 151.867 28.6865 152.153 28.9893C152.44 29.292 152.834 29.4434 153.335 29.4434C153.898 29.4434 154.416 29.2578 154.888 28.8867V29.6387C154.448 29.9577 153.867 30.1172 153.145 30.1172C152.438 30.1172 151.883 29.891 151.48 29.4385C151.076 28.9827 150.874 28.3431 150.874 27.5195C150.874 26.7415 151.094 26.1084 151.533 25.6201C151.976 25.1286 152.524 24.8828 153.179 24.8828C153.833 24.8828 154.339 25.0944 154.697 25.5176C155.055 25.9408 155.234 26.5283 155.234 27.2803V27.7002ZM154.414 27.0215C154.411 26.5592 154.299 26.1995 154.077 25.9424C153.859 25.6852 153.555 25.5566 153.164 25.5566C152.786 25.5566 152.466 25.6917 152.202 25.9619C151.938 26.2321 151.776 26.5853 151.714 27.0215H154.414ZM160.718 30H159.917V29.1504H159.897C159.526 29.7949 158.953 30.1172 158.179 30.1172C157.55 30.1172 157.048 29.8942 156.67 29.4482C156.296 28.999 156.108 28.3887 156.108 27.6172C156.108 26.7904 156.317 26.1279 156.733 25.6299C157.15 25.1318 157.705 24.8828 158.398 24.8828C159.085 24.8828 159.585 25.153 159.897 25.6934H159.917V22.5977H160.718V30ZM159.917 27.7393V27.002C159.917 26.5983 159.784 26.2565 159.517 25.9766C159.25 25.6966 158.911 25.5566 158.501 25.5566C158.013 25.5566 157.629 25.7357 157.349 26.0937C157.069 26.4518 156.929 26.9466 156.929 27.5781C156.929 28.1543 157.062 28.61 157.329 28.9453C157.599 29.2773 157.961 29.4434 158.413 29.4434C158.859 29.4434 159.22 29.2822 159.497 28.96C159.777 28.6377 159.917 28.2308 159.917 27.7393ZM165.903 29.2773H165.884V30H165.083V22.5977H165.884V25.8789H165.903C166.297 25.2148 166.873 24.8828 167.632 24.8828C168.273 24.8828 168.774 25.1074 169.136 25.5566C169.5 26.0026 169.683 26.6016 169.683 27.3535C169.683 28.1901 169.479 28.8607 169.072 29.3652C168.665 29.8665 168.109 30.1172 167.402 30.1172C166.742 30.1172 166.242 29.8372 165.903 29.2773ZM165.884 27.2607V27.959C165.884 28.3724 166.017 28.724 166.284 29.0137C166.554 29.3001 166.896 29.4434 167.31 29.4434C167.795 29.4434 168.174 29.2578 168.447 28.8867C168.724 28.5156 168.862 27.9997 168.862 27.3389C168.862 26.7822 168.734 26.346 168.477 26.0303C168.219 25.7145 167.871 25.5566 167.432 25.5566C166.966 25.5566 166.592 25.7194 166.309 26.0449C166.025 26.3672 165.884 26.7725 165.884 27.2607ZM174.941 25L172.642 30.8008C172.231 31.8359 171.655 32.3535 170.913 32.3535C170.705 32.3535 170.531 32.3324 170.391 32.29V31.5723C170.563 31.6309 170.721 31.6602 170.864 31.6602C171.268 31.6602 171.571 31.4193 171.772 30.9375L172.173 29.9902L170.22 25H171.108L172.461 28.8477C172.477 28.8965 172.511 29.0234 172.564 29.2285H172.593C172.609 29.1504 172.642 29.0267 172.69 28.8574L174.111 25H174.941Z" fill="white"/>
<path d="M26.8403 9H25.8344L22.2309 3.41894C22.1398 3.27897 22.0649 3.13248 22.0063 2.97949H21.977C22.003 3.12923 22.0161 3.44987 22.0161 3.9414V9H21.1957V1.99804H22.2602L25.7661 7.49121C25.9125 7.71907 26.0069 7.87532 26.0493 7.95996H26.0688C26.0362 7.75814 26.02 7.41471 26.02 6.92969V1.99804H26.8403V9Z" fill="white"/>
<rect x="0.802734" y="11.6001" width="46" height="46" rx="23" transform="rotate(0.999999 0.802734 11.6001)" fill="#232323" fill-opacity="0.5"/>
<mask id="path-5-inside-1_303_2013" fill="white">
<path d="M19.8228 10.9301L27.8228 11.0697L27.4038 35.0697L19.4038 34.9301L19.8228 10.9301Z"/>
</mask>
<path d="M27.4038 35.0697L26.985 59.0661L30.9844 59.1359L31.4032 35.1395L27.4038 35.0697ZM19.4038 34.9301L15.4044 34.8603L14.9856 58.8566L18.985 58.9264L19.4038 34.9301ZM23.8234 10.9999L23.4044 34.9999L31.4032 35.1395L31.8222 11.1395L23.8234 10.9999ZM27.8227 11.0734L19.8227 10.9337L18.985 58.9264L26.985 59.0661L27.8227 11.0734ZM23.4032 34.9999L23.8221 10.9999L15.8234 10.8602L15.4044 34.8603L23.4032 34.9999Z" fill="url(#paint0_diamond_303_2013)" mask="url(#path-5-inside-1_303_2013)"/>
<mask id="path-7-inside-2_303_2013" fill="white">
<path d="M19.4028 34.9301L27.4028 35.0697L26.9839 59.0697L18.9839 58.9301L19.4028 34.9301Z"/>
</mask>
<path d="M19.4028 34.9301L19.8217 10.9337L15.8223 10.8639L15.4034 34.8602L19.4028 34.9301ZM27.4028 35.0697L31.4022 35.1395L31.8211 11.1432L27.8217 11.0733L27.4028 35.0697ZM18.984 58.9264L26.984 59.066L27.8217 11.0733L19.8217 10.9337L18.984 58.9264ZM23.4034 34.9999L22.9845 58.9999L30.9833 59.1395L31.4022 35.1395L23.4034 34.9999ZM22.9833 58.9999L23.4022 34.9999L15.4034 34.8602L14.9845 58.8603L22.9833 58.9999Z" fill="url(#paint1_diamond_303_2013)" mask="url(#path-7-inside-2_303_2013)"/>
<defs>
<radialGradient id="paint0_diamond_303_2013" cx="0" cy="0" r="1" gradientUnits="userSpaceOnUse" gradientTransform="translate(23.4038 34.9999) rotate(0.999999) scale(4.00061 24.0037)">
<stop offset="1" stop-color="#FE191A"/>
<stop offset="1" stop-opacity="0"/>
</radialGradient>
<radialGradient id="paint1_diamond_303_2013" cx="0" cy="0" r="1" gradientUnits="userSpaceOnUse" gradientTransform="translate(23.4028 34.9999) rotate(0.999999) scale(4.00061 24.0037)">
<stop offset="1" stop-color="#FEFEFE"/>
<stop offset="1" stop-opacity="0"/>
</radialGradient>
</defs>
</svg>
