<svg width="18" height="18" viewBox="0 0 18 18" fill="none" xmlns="http://www.w3.org/2000/svg">
<circle cx="9" cy="9" r="7" fill="white"/>
<path fill-rule="evenodd" clip-rule="evenodd" d="M8.8 17.6C13.6601 17.6 17.6 13.6601 17.6 8.8C17.6 3.93989 13.6601 0 8.8 0C3.93988 0 0 3.93989 0 8.8C0 13.6601 3.93988 17.6 8.8 17.6ZM8.47809 11.2363L4.74136 9.24645V11.4924C4.80047 12.5234 6.48165 13.364 8.46493 13.4231C10.5204 13.4822 12.0637 12.5234 12.1885 11.4924V9.24645L8.47809 11.2363ZM2.4366 7.1976L8.47834 3.92058L14.5071 7.1976L13.6073 7.70326V11.7617L13.8701 13.1081H12.6485L12.9112 11.7617V8.03819L8.47834 10.4746L2.4366 7.1976Z" fill="#8A93DD"/>
</svg>
