<svg width="17" height="14" viewBox="0 0 17 14" fill="none" xmlns="http://www.w3.org/2000/svg">
<path d="M9.32497 0.205109C9.02397 -0.0795111 8.54927 -0.0662913 8.26467 0.234639C7.98006 0.535579 7.99328 1.01027 8.29417 1.29489L13.5333 6.25H0.80957C0.39536 6.25 0.0595703 6.58579 0.0595703 7C0.0595703 7.4142 0.39536 7.75 0.80957 7.75H13.5356L8.29417 12.7073C7.99328 12.9919 7.98006 13.4666 8.26467 13.7675C8.54927 14.0684 9.02397 14.0817 9.32497 13.797L15.7422 7.7276C15.9085 7.5703 16.0085 7.3702 16.0422 7.1614C16.0536 7.1094 16.0596 7.0554 16.0596 7C16.0596 6.94241 16.0531 6.88633 16.0408 6.83246C16.0058 6.62667 15.9063 6.42976 15.7422 6.27455L9.32497 0.205109Z" fill="#F2F2F2"/>
</svg>
