<svg width="18" height="18" viewBox="0 0 18 18" fill="none" xmlns="http://www.w3.org/2000/svg">
<circle cx="8.8" cy="8.8" r="8.8" fill="#79B4EB"/>
<g clip-path="url(#clip0_342_2725)">
<path d="M12 8C11.8674 8 11.7402 7.94732 11.6464 7.85355C11.5527 7.75979 11.5 7.63261 11.5 7.5C11.5 7.36739 11.5527 7.24021 11.6464 7.14645C11.7402 7.05268 11.8674 7 12 7C12.1326 7 12.2598 7.05268 12.3536 7.14645C12.4473 7.24021 12.5 7.36739 12.5 7.5C12.5 7.63261 12.4473 7.75979 12.3536 7.85355C12.2598 7.94732 12.1326 8 12 8ZM9 8H6V5.5H9M12.885 6.615L12.89 6.61L11.03 4.75L10.5 5.28L11.555 6.335C11.085 6.5 10.75 6.965 10.75 7.5C10.75 7.66415 10.7823 7.8267 10.8452 7.97835C10.908 8.13001 11 8.26781 11.1161 8.38388C11.3505 8.6183 11.6685 8.75 12 8.75C12.18 8.75 12.345 8.71 12.5 8.645V12.25C12.5 12.3826 12.4473 12.5098 12.3536 12.6036C12.2598 12.6973 12.1326 12.75 12 12.75C11.8674 12.75 11.7402 12.6973 11.6464 12.6036C11.5527 12.5098 11.5 12.3826 11.5 12.25V10C11.5 9.73478 11.3946 9.48043 11.2071 9.29289C11.0196 9.10536 10.7652 9 10.5 9H10V5.5C10 5.23478 9.89464 4.98043 9.70711 4.79289C9.51957 4.60536 9.26522 4.5 9 4.5H6C5.445 4.5 5 4.945 5 5.5V13.5H10V9.75H10.75V12.25C10.75 12.5815 10.8817 12.8995 11.1161 13.1339C11.3505 13.3683 11.6685 13.5 12 13.5C12.1642 13.5 12.3267 13.4677 12.4784 13.4048C12.63 13.342 12.7678 13.25 12.8839 13.1339C13 13.0178 13.092 12.88 13.1548 12.7284C13.2177 12.5767 13.25 12.4142 13.25 12.25V7.5C13.25 7.155 13.11 6.84 12.885 6.615Z" fill="white"/>
</g>
<defs>
<clipPath id="clip0_342_2725">
<rect width="11" height="11" fill="white" transform="translate(3 3)"/>
</clipPath>
</defs>
</svg>
