<svg width="18" height="18" viewBox="0 0 18 18" fill="none" xmlns="http://www.w3.org/2000/svg">
<circle cx="8.5" cy="8.5" r="8.5" fill="white"/>
<path fill-rule="evenodd" clip-rule="evenodd" d="M17.6 8.8C17.6 13.6601 13.6601 17.6 8.8 17.6C3.93988 17.6 0 13.6601 0 8.8C0 3.93988 3.93988 0 8.8 0C13.6601 0 17.6 3.93988 17.6 8.8ZM12.2278 13.2065H10.2905L10.2183 9.58136H7.37464V13.1343L7.31554 13.1933H5.37823L5.31912 13.1343V4.46558L5.37823 4.40648H7.31554L7.37464 4.46558V8.01841H10.2313V4.46558L10.2905 4.40648H12.2278L12.2869 4.46558V13.1473L12.2278 13.2065Z" fill="#FF7878"/>
</svg>
