<svg width="18" height="18" viewBox="0 0 18 18" fill="none" xmlns="http://www.w3.org/2000/svg">
<circle cx="8.8" cy="8.8" r="8.8" fill="#58A2AC"/>
<path d="M4 12V5.5H4.5V10H8.75V6.5H12.5C12.9127 6.5 13.2658 6.64683 13.5595 6.9405C13.8532 7.23417 14 7.58733 14 8V12H13.5V10.5H4.5V12H4ZM6.499 9.058C6.20467 9.058 5.955 8.955 5.75 8.749C5.545 8.543 5.4425 8.293 5.4425 7.999C5.4425 7.705 5.54533 7.45533 5.751 7.25C5.95667 7.04467 6.20667 6.94217 6.501 6.9425C6.79533 6.94283 7.045 7.04567 7.25 7.251C7.455 7.45633 7.55767 7.70633 7.558 8.001C7.55833 8.29567 7.45533 8.54533 7.249 8.75C7.04267 8.95467 6.79267 9.05733 6.499 9.058Z" fill="white"/>
<path d="M4 12V5.5H4.5V10H8.75V6.5H12.5C12.9127 6.5 13.2658 6.64683 13.5595 6.9405C13.8532 7.23417 14 7.58733 14 8V12H13.5V10.5H4.5V12H4ZM6.499 9.058C6.20467 9.058 5.955 8.955 5.75 8.749C5.545 8.543 5.4425 8.293 5.4425 7.999C5.4425 7.705 5.54533 7.45533 5.751 7.25C5.95667 7.04467 6.20667 6.94217 6.501 6.9425C6.79533 6.94283 7.045 7.04567 7.25 7.251C7.455 7.45633 7.55767 7.70633 7.558 8.001C7.55833 8.29567 7.45533 8.54533 7.249 8.75C7.04267 8.95467 6.79267 9.05733 6.499 9.058Z" fill="white"/>
</svg>
