<svg width="18" height="18" viewBox="0 0 18 18" fill="none" xmlns="http://www.w3.org/2000/svg">
<circle cx="8.8" cy="8.8" r="8.8" fill="#9AE76C"/>
<path fill-rule="evenodd" clip-rule="evenodd" d="M9.21349 4.38705C9.21349 4.29233 9.17586 4.20149 9.10888 4.13451C9.04191 4.06753 8.95107 4.02991 8.85635 4.02991C8.76163 4.02991 8.67078 4.06753 8.60381 4.13451C8.53683 4.20149 8.4992 4.29233 8.4992 4.38705V4.55705H8.32992C8.2352 4.55705 8.14436 4.59468 8.07738 4.66165C8.0104 4.72863 7.97277 4.81947 7.97277 4.91419C7.97277 5.00891 8.0104 5.09975 8.07738 5.16673C8.14436 5.23371 8.2352 5.27134 8.32992 5.27134H8.49992V5.67634C7.94277 5.79634 7.47635 6.19205 7.33063 6.72705H7.19849C6.94063 6.72705 6.7042 6.83705 6.55135 7.02062C6.46857 7.11781 6.4136 7.23555 6.39222 7.36141C6.37085 7.48726 6.38387 7.61656 6.42992 7.73562L7.14635 9.59634C7.15939 9.63085 7.1777 9.66314 7.20063 9.69205L7.04563 10.8063H10.5956L10.4492 9.75348C10.5027 9.71324 10.5438 9.65879 10.5678 9.59634L11.2849 7.73562C11.3307 7.61659 11.3436 7.4874 11.3221 7.36168C11.3006 7.23597 11.2455 7.11838 11.1628 7.02134C11.0831 6.92784 10.9838 6.85301 10.872 6.80215C10.7601 6.7513 10.6385 6.72566 10.5156 6.72705H10.3835C10.2378 6.19276 9.77063 5.79634 9.21349 5.67634V5.27134H9.38277C9.47749 5.27134 9.56834 5.23371 9.63531 5.16673C9.70229 5.09975 9.73992 5.00891 9.73992 4.91419C9.73992 4.81947 9.70229 4.72863 9.63531 4.66165C9.56834 4.59468 9.47749 4.55705 9.38277 4.55705H9.21349V4.38705ZM11.0692 11.6999H6.64563C6.31063 11.7249 5.98277 11.917 5.85206 12.2499L5.41492 13.3556C5.3936 13.4098 5.38587 13.4684 5.39238 13.5263C5.39888 13.5841 5.41944 13.6395 5.45226 13.6876C5.48508 13.7357 5.52916 13.7751 5.58067 13.8022C5.63218 13.8294 5.68954 13.8436 5.74777 13.8435H11.9663C12.0245 13.8434 12.0818 13.8292 12.1332 13.802C12.1846 13.7748 12.2286 13.7354 12.2613 13.6873C12.2941 13.6392 12.3146 13.5839 12.3211 13.5261C12.3275 13.4683 12.3198 13.4098 12.2985 13.3556L11.8621 12.2499C11.7306 11.917 11.4035 11.7249 11.0692 11.6999Z" fill="white"/>
</svg>
