<svg width="18" height="18" viewBox="0 0 18 18" fill="none" xmlns="http://www.w3.org/2000/svg">
<rect x="3" y="3" width="12" height="11" fill="white"/>
<path fill-rule="evenodd" clip-rule="evenodd" d="M8.8 0C3.93342 0 0 3.93342 0 8.8C0 13.6666 3.93342 17.6 8.8 17.6C13.6666 17.6 17.6 13.6666 17.6 8.8C17.6 3.93342 13.6666 0 8.8 0ZM3.71322 7.46547C3.65503 7.4076 3.59683 7.34972 3.51535 7.25713C3.95504 7.19466 4.38671 7.12821 4.81202 7.06274C5.41125 6.97049 5.99788 6.88018 6.57653 6.80571C6.97227 6.75941 7.20506 6.62052 7.37965 6.23856C7.76485 5.39999 8.17799 4.5892 8.61076 3.73993C8.6618 3.63969 8.71317 3.53892 8.76472 3.4375C8.78064 3.46518 8.79522 3.48881 8.80838 3.51024C8.83386 3.55151 8.85423 3.58459 8.86948 3.62269C9.1023 4.10304 9.34091 4.58049 9.57951 5.05795C9.81812 5.5354 10.0567 6.01286 10.2895 6.4932C10.371 6.65525 10.4641 6.72469 10.6503 6.74784C11.5396 6.87015 12.4136 7.00011 13.2972 7.13149C13.5006 7.16174 13.7046 7.19207 13.9094 7.2224C13.9269 7.22819 13.9443 7.23109 13.9618 7.23398C13.9793 7.23687 13.9967 7.23976 14.0141 7.24555C14.0258 7.25713 14.0374 7.27159 14.0491 7.28606C14.0607 7.30053 14.0724 7.315 14.084 7.32657C14.067 7.33381 14.05 7.34055 14.0332 7.3472C13.9695 7.37246 13.9089 7.39651 13.8628 7.44232C13.4788 7.80692 13.1004 8.17442 12.7222 8.54195C12.3439 8.90937 11.9657 9.27688 11.5816 9.64153C11.4535 9.75727 11.4185 9.87301 11.4535 10.0466C11.5854 10.7488 11.7069 11.451 11.8285 12.1532C11.8893 12.5043 11.9501 12.8554 12.0122 13.2065C12.0196 13.2362 12.0175 13.2755 12.015 13.3213C12.0137 13.3468 12.0122 13.3742 12.0122 13.4032C11.9588 13.3834 11.9131 13.3597 11.8684 13.3365C11.8352 13.3193 11.8026 13.3023 11.7678 13.2875C10.8368 12.8015 9.9052 12.3151 8.96259 11.8176C8.83461 11.7481 8.72985 11.7481 8.60179 11.8176C7.65903 12.3037 6.71625 12.8013 5.77347 13.2991C5.73592 13.324 5.69496 13.3421 5.64889 13.3627C5.60925 13.3803 5.56578 13.3996 5.51734 13.4264C5.57553 13.1024 5.62209 12.813 5.66864 12.5237C5.78995 11.7898 5.92005 11.0646 6.0513 10.333C6.07116 10.2223 6.09106 10.1114 6.11095 10.0003C6.14588 9.87301 6.11095 9.79197 6.01784 9.69936C5.24964 8.95857 4.48143 8.21782 3.71322 7.46547Z" fill="#EE97F0"/>
</svg>
