<svg width="18" height="18" viewBox="0 0 18 18" fill="none" xmlns="http://www.w3.org/2000/svg">
<rect x="3" y="3" width="12" height="11" fill="white"/>
<path fill-rule="evenodd" clip-rule="evenodd" d="M17.6 8.8C17.6 13.6601 13.6601 17.6 8.8 17.6C3.93988 17.6 0 13.6601 0 8.8C0 3.93989 3.93988 0 8.8 0C13.6601 0 17.6 3.93989 17.6 8.8ZM11.3678 5.52301H12.911L13.7319 13.1015H3.84842L4.68901 5.52301H6.23229C6.42273 4.05198 7.51944 2.95527 8.8 2.95527C10.0807 2.95527 11.1773 4.11108 11.3678 5.52301ZM10.7307 5.45079C10.5995 4.36063 9.7654 3.59228 8.8 3.59228C7.83467 3.59228 7.06631 4.43288 6.8693 5.45079H10.7307ZM8.85917 9.49612C10.2711 9.43704 11.4268 8.28123 11.3678 6.86929H11.3941V6.73794H10.7439V6.86929C10.7439 7.96601 9.8508 8.85909 8.81316 8.85909C7.77556 8.85909 6.88243 7.96601 6.88243 6.86929V6.73794H6.23229V6.9284C6.23229 8.34033 7.3881 9.49612 8.8 9.49612H8.85917Z" fill="#FCB270"/>
<path fill-rule="evenodd" clip-rule="evenodd" d="M17.6 8.8C17.6 13.6601 13.6601 17.6 8.8 17.6C3.93988 17.6 0 13.6601 0 8.8C0 3.93989 3.93988 0 8.8 0C13.6601 0 17.6 3.93989 17.6 8.8ZM11.3678 5.52301H12.911L13.7319 13.1015H3.84842L4.68901 5.52301H6.23229C6.42273 4.05198 7.51944 2.95527 8.8 2.95527C10.0807 2.95527 11.1773 4.11108 11.3678 5.52301ZM10.7307 5.45079C10.5995 4.36063 9.7654 3.59228 8.8 3.59228C7.83467 3.59228 7.06631 4.43288 6.8693 5.45079H10.7307ZM8.85917 9.49612C10.2711 9.43704 11.4268 8.28123 11.3678 6.86929H11.3941V6.73794H10.7439V6.86929C10.7439 7.96601 9.8508 8.85909 8.81316 8.85909C7.77556 8.85909 6.88243 7.96601 6.88243 6.86929V6.73794H6.23229V6.9284C6.23229 8.34033 7.3881 9.49612 8.8 9.49612H8.85917Z" fill="#FCB270"/>
</svg>
