<svg width="373" height="925" viewBox="0 0 373 925" fill="none" xmlns="http://www.w3.org/2000/svg">
<path fill-rule="evenodd" clip-rule="evenodd" d="M373 13.6515C373 6.11197 366.888 0 359.349 0H55.6515C48.112 0 42 6.11196 42 13.6515V373.348C42 380.888 35.888 387 28.3485 387H13.6515C6.11197 387 0 393.112 0 400.651V506.348C0 513.888 6.11197 520 13.6515 520H28.3485C35.888 520 42 526.112 42 533.651V911.349C42 918.888 48.112 925 55.6515 925H359.349C366.888 925 373 918.888 373 911.349V13.6515Z" fill="black"/>
</svg>
