<svg width="42" height="923" viewBox="0 0 42 923" fill="none" xmlns="http://www.w3.org/2000/svg">
<path fill-rule="evenodd" clip-rule="evenodd" d="M373 13.6515C373 6.11197 366.888 0 359.349 0H55.6515C48.112 0 42 6.11196 42 13.6515V363.349C42 370.888 35.888 377 28.3485 377H13.6515C6.11197 377 0 383.112 0 390.651V496.349C0 503.888 6.11197 510 13.6515 510H28.3485C35.888 510 42 516.112 42 523.651V911.349C42 918.888 48.112 925 55.6515 925H359.349C366.888 925 373 918.888 373 911.349V13.6515Z" fill="black"/>
<path d="M19 450.575L27.4256 442.426L19.2761 434L19 450.575Z" fill="white"/>
</svg>
