<svg width="35" height="14" viewBox="0 0 35 14" fill="none" xmlns="http://www.w3.org/2000/svg">
<path fill-rule="evenodd" clip-rule="evenodd" d="M19.149 0.0274327C18.9891 0.0560304 18.569 0.242814 18.2154 0.44228L17.5726 0.805077L16.8592 0.431152C16.2314 0.102098 16.0299 0.0572271 15.1791 0.0572271C12.719 0.0572271 8.61849 1.38936 7.48451 2.55696C7.07947 2.97396 7.00864 3.12891 6.96113 3.70207C6.91112 4.30465 6.88025 4.36484 6.62179 4.36484C6.17368 4.36484 5.82357 4.79285 5.90302 5.24359C5.93963 5.45132 6.03177 6.21352 6.10775 6.93744C6.26916 8.47574 6.42077 8.80551 6.94701 8.76232C7.30012 8.73324 7.3201 8.7592 7.58622 9.5895C7.91647 10.6207 8.25988 11.2046 8.66252 11.4201C9.08227 11.6448 10.7457 11.5126 12.2925 11.1315C13.6686 10.7926 14.1951 10.5556 15.1047 9.86566C15.8568 9.29526 16.6108 9.02544 17.4818 9.01503C18.4549 9.00342 19.0398 9.21138 20.1257 9.95505C21.1719 10.6717 22.1489 11.0415 23.8503 11.3652C25.2527 11.632 26.2117 11.604 26.618 11.2844C26.9863 10.9947 27.4307 10.1181 27.6571 9.23472C27.7972 8.68789 27.8261 8.65654 28.1354 8.7184C28.4382 8.77895 28.8257 8.56692 28.8366 8.33491C28.8387 8.29015 28.9178 7.68828 29.0123 6.99727C29.2579 5.20159 29.2463 4.64184 28.9604 4.48869C28.833 4.4206 28.6234 4.36484 28.4945 4.36484C28.2138 4.36484 28.1149 4.14491 28.1149 3.52163C28.1149 3.17115 28.0224 2.95158 27.7383 2.62815C27.3065 2.13625 25.6899 1.31349 24.226 0.840495C22.5844 0.31006 19.9372 -0.113761 19.149 0.0274327ZM14.3544 5.1426V6.87762H15.1741H15.9936L16.6099 5.22804C16.9488 4.32081 17.2262 3.53682 17.2262 3.48585C17.2262 3.43488 17.0275 3.40987 16.7848 3.43033L16.3434 3.46742L15.9213 4.75372C15.6892 5.46113 15.4571 6.04002 15.4055 6.04002C15.3539 6.04002 15.3117 5.44773 15.3117 4.72381V3.40759H14.8331H14.3544V5.1426ZM17.7776 3.61699C17.7429 3.73222 17.6311 4.36484 17.529 5.02295C17.4271 5.68106 17.3129 6.36764 17.2754 6.54856C17.2098 6.86493 17.2261 6.87762 17.6953 6.87762C18.1293 6.87762 18.1834 6.84615 18.1834 6.59343C18.1834 6.06132 18.3326 5.5614 18.4914 5.5614C18.5785 5.5614 18.7432 5.85755 18.8573 6.21951C19.0611 6.86601 19.0727 6.87762 19.5215 6.87762C19.7727 6.87762 19.9783 6.86051 19.9783 6.83957C19.9783 6.81851 19.8956 6.52284 19.7945 6.18242C19.6198 5.59431 19.6226 5.54692 19.8507 5.2333C19.9827 5.05178 20.1252 4.68037 20.1673 4.40792C20.2304 4.00025 20.1993 3.86791 19.9914 3.66007C19.777 3.44564 19.596 3.40759 18.7897 3.40759C17.9896 3.40759 17.8307 3.4405 17.7776 3.61699ZM18.4894 4.54995C18.3892 5.08409 18.4528 5.16055 18.8738 5.01242C19.1307 4.92208 19.2005 4.82145 19.2005 4.54145C19.2005 4.24602 19.1469 4.17914 18.886 4.14886C18.6089 4.1168 18.5617 4.16466 18.4894 4.54995ZM3.52557 4.74427C0.227736 6.20958 -0.829185 8.2131 0.663164 10.1698C1.11331 10.7599 2.55624 11.6922 3.70494 12.1353C5.55458 12.8486 8.55758 13.5268 11.2434 13.8378C13.1129 14.0543 20.5062 14.054 22.3714 13.8373C25.1145 13.5186 28.3824 12.828 30.1744 12.1882C32.1836 11.4708 33.9349 10.287 34.3828 9.34325C35.0523 7.9325 33.8879 6.40318 31.3522 5.36265C30.9231 5.18652 30.6936 5.02391 30.7046 4.90377C30.7185 4.7536 30.6376 4.7329 30.2858 4.79644C30.046 4.83975 29.8298 4.89276 29.8051 4.91406C29.7805 4.93548 29.8904 5.10778 30.0496 5.29684C30.2694 5.55805 30.3835 5.61261 30.5243 5.52383C30.8033 5.34782 32.3889 6.15681 33.1774 6.87749C34.3608 7.95906 34.4398 8.83255 33.4406 9.78932C31.3322 11.8083 25.4336 13.0972 18.3031 13.0972C14.5796 13.0972 11.2532 12.7603 8.14944 12.0685C4.31985 11.2151 1.55125 9.72279 1.55125 8.51176C1.55125 7.78102 2.39734 7.04143 4.06067 6.31834C4.55605 6.10296 4.96144 5.88495 4.96144 5.83386C4.96144 5.65389 4.49227 4.36484 4.42814 4.36843C4.39236 4.37046 3.98625 4.53954 3.52557 4.74427Z" fill="white"/>
</svg>
