<svg width="19" height="19" viewBox="0 0 19 19" fill="none" xmlns="http://www.w3.org/2000/svg">
<circle cx="9.5" cy="9.5" r="9.5" fill="black"/>
<path fill-rule="evenodd" clip-rule="evenodd" d="M9.37628 5.02161C9.21045 5.075 9.12766 5.22606 9.12766 5.47529C9.12766 5.6547 9.02045 5.9332 8.72192 6.5295C8.26479 7.44252 8.26783 7.48005 8.80136 7.50715C8.87824 7.51109 8.9412 7.53259 8.9412 7.55496C8.9412 7.57732 9.19292 7.59563 9.50058 7.59563C9.98035 7.59563 10.0601 7.58211 10.0609 7.50076C10.0615 7.44086 10.0787 7.42923 10.1075 7.4691C10.1326 7.5039 10.2021 7.52312 10.262 7.51189C10.3218 7.50065 10.413 7.48348 10.4646 7.47378C10.7013 7.42917 10.6831 7.33601 10.2792 6.5295C9.98072 5.9332 9.8735 5.6547 9.8735 5.47529C9.8735 5.13022 9.65578 4.93165 9.37628 5.02161ZM5.14418 6.15397C4.79712 6.25209 4.32326 6.623 4.13723 6.94223C4.02194 7.14006 4 7.26887 4 7.74817C4 8.25844 4.01852 8.3532 4.1754 8.64653C4.4457 9.15195 4.89501 9.56491 5.44743 9.81557C5.88897 10.0159 5.95715 10.03 6.48502 10.03C6.98256 10.03 7.09015 10.0109 7.38606 9.87016L7.72212 9.71032L8.50196 10.4261L9.28187 11.1419L8.44341 11.9149C7.95277 12.3671 7.50173 12.7315 7.35629 12.7931C7.2078 12.8559 6.7488 13.2306 6.21646 13.7233C5.25283 14.6152 5.20472 14.6994 5.53053 14.9218C5.65509 15.0068 5.72128 15.0193 5.81022 14.9747C5.8743 14.9426 6.32498 14.5468 6.8117 14.0952C7.44094 13.5114 7.70758 13.2239 7.73449 13.1004C7.76153 12.9763 8.01878 12.701 8.63646 12.1352L9.50058 11.3436L10.3647 12.1352C10.9824 12.701 11.2396 12.9763 11.2667 13.1004C11.2936 13.2239 11.5602 13.5114 12.1895 14.0952C12.6762 14.5468 13.1269 14.9426 13.1909 14.9747C13.2799 15.0193 13.3461 15.0068 13.4706 14.9218C13.7964 14.6994 13.7483 14.6152 12.7847 13.7233C12.2524 13.2306 11.7934 12.8559 11.6449 12.7931C11.4994 12.7315 11.0484 12.3671 10.5578 11.9149L9.7193 11.1419L10.4992 10.4261L11.279 9.71032L11.6151 9.87016C11.911 10.0109 12.0186 10.03 12.5161 10.03C13.044 10.03 13.1122 10.0159 13.5537 9.81557C14.1066 9.56468 14.5435 9.16296 14.8189 8.65229C14.9807 8.35217 14.9989 8.2613 15 7.74817C15.0014 7.07349 14.9017 6.84816 14.4353 6.47131C13.9345 6.06674 13.2795 5.96686 12.5265 6.18032C11.1153 6.58038 10.2819 8.13203 10.8954 9.21733L11.0609 9.51009L10.2807 10.2261L9.50058 10.9422L8.72043 10.2261L7.94028 9.51009L8.10573 9.21733C8.98048 7.66985 7.00605 5.62755 5.14418 6.15397ZM5.19148 6.32539C4.26645 6.5975 3.89838 7.63128 4.38641 8.58651C4.96997 9.72869 6.54015 10.2419 7.49912 9.60387C8.00442 9.26764 8.23831 8.54025 8.04228 7.91434C7.67563 6.74371 6.32628 5.99161 5.19148 6.32539ZM12.7564 6.29059C11.6638 6.53001 10.7722 7.61879 10.8934 8.56564C11.0366 9.68356 12.2145 10.1978 13.4317 9.67392C14.7851 9.09148 15.2862 7.49335 14.3771 6.65894C13.9861 6.30012 13.3611 6.15807 12.7564 6.29059ZM5.52276 6.41735C5.52276 6.45409 5.47745 6.53013 5.42201 6.58632C5.32561 6.68409 5.31654 6.68307 5.20988 6.5623C5.14853 6.49288 5.07749 6.45523 5.05201 6.47856C5.02646 6.50189 5.05636 6.57246 5.11839 6.63543C5.22747 6.74599 5.22741 6.75375 5.11789 6.86487L5.00452 6.97982L4.87121 6.86487C4.68039 6.70035 4.60289 6.72243 4.7763 6.89191C4.91782 7.03013 4.91863 7.03698 4.80768 7.14947L4.69376 7.26505L4.54888 7.14012C4.38392 6.9979 4.35079 7.05774 4.50686 7.21599C4.6027 7.31325 4.60214 7.32803 4.49853 7.43305C4.43744 7.49506 4.36316 7.53208 4.33352 7.51525C4.30393 7.49848 4.27969 7.54959 4.27969 7.62894C4.27969 7.72455 4.30716 7.7634 4.3613 7.74435C4.40617 7.72855 4.49443 7.76785 4.55739 7.83174C4.6674 7.94332 4.66753 7.95222 4.56069 8.06055C4.49959 8.12256 4.42532 8.15958 4.39567 8.14276C4.36608 8.12598 4.34184 8.16512 4.34184 8.22969C4.34184 8.29427 4.37945 8.34715 4.42544 8.34715C4.47143 8.34715 4.5592 8.39804 4.62048 8.46016C4.71253 8.55354 4.71806 8.58851 4.65236 8.66119C4.54801 8.77659 4.62153 8.84117 4.74771 8.74504C4.83043 8.68207 4.86667 8.68943 4.97836 8.79194C5.10745 8.91042 5.10795 8.91664 4.99644 9.0297C4.9062 9.1212 4.9011 9.14579 4.97239 9.14579C5.02211 9.14579 5.0967 9.1147 5.13809 9.07671C5.19701 9.02263 5.24245 9.03432 5.34743 9.13062C5.46042 9.23438 5.46869 9.26781 5.40001 9.34374C5.2923 9.46285 5.36725 9.52577 5.49809 9.42611C5.58796 9.35766 5.62171 9.37089 5.76827 9.53211C5.91426 9.69258 6.14684 9.80142 6.05622 9.66685C6.03789 9.63964 6.07823 9.57147 6.14579 9.51539C6.26382 9.41733 6.27351 9.41744 6.39508 9.51841C6.4647 9.5762 6.50752 9.65721 6.4903 9.69839C6.46954 9.74808 6.51187 9.7733 6.61604 9.7733C6.7025 9.7733 6.75819 9.75105 6.73991 9.72389C6.72158 9.69668 6.76191 9.62851 6.82948 9.57244C6.9475 9.47438 6.95714 9.47443 7.0766 9.57364C7.22135 9.69389 7.24497 9.62732 7.10718 9.48755C7.02308 9.40227 7.02632 9.38179 7.13888 9.28829C7.26088 9.18698 7.26865 9.18778 7.41906 9.3175C7.60372 9.47666 7.62777 9.40552 7.44852 9.23039L7.32328 9.10803L7.44852 9.00398C7.56543 8.90694 7.58147 8.90626 7.68763 8.99445C7.83512 9.11698 7.91623 9.04425 7.78291 8.90905C7.69981 8.82474 7.69546 8.78965 7.75929 8.71903C7.80243 8.67134 7.8762 8.63238 7.92325 8.63238C7.97291 8.63238 8.0089 8.57317 8.0089 8.49153C8.0089 8.39872 7.98105 8.3605 7.92729 8.3795C7.88242 8.3953 7.79416 8.35599 7.7312 8.2921C7.62119 8.18052 7.62106 8.17162 7.7279 8.06329C7.789 8.00128 7.86327 7.96426 7.89292 7.98109C8.02773 8.05753 7.9268 7.87949 7.74885 7.72678C7.59036 7.59089 7.5655 7.54092 7.62398 7.47623C7.71839 7.37184 7.643 7.30099 7.52951 7.38741C7.46164 7.43915 7.41415 7.42729 7.31141 7.33299C7.20072 7.23145 7.19289 7.19825 7.2615 7.12238C7.36723 7.00549 7.29532 6.93949 7.16796 7.03652C7.0853 7.0995 7.04913 7.09231 6.93849 6.99072C6.83575 6.89642 6.82282 6.85284 6.8792 6.79054C6.97336 6.68638 6.89617 6.61718 6.78242 6.70383C6.71194 6.75751 6.6575 6.73469 6.50945 6.58923C6.34306 6.4259 6.14908 6.33326 6.23237 6.45699C6.2507 6.48421 6.21036 6.55238 6.1428 6.60845C6.02477 6.70651 6.01508 6.7064 5.89351 6.60543C5.82389 6.54764 5.78107 6.46664 5.79829 6.42545C5.81898 6.3761 5.77734 6.35055 5.67622 6.35055C5.59181 6.35055 5.52276 6.38061 5.52276 6.41735ZM13.2029 6.42545C13.2201 6.46664 13.1773 6.54764 13.1077 6.60543C12.9861 6.7064 12.9764 6.70651 12.8584 6.60845C12.7908 6.55238 12.7505 6.48421 12.7688 6.45699C12.8521 6.33326 12.6581 6.4259 12.4917 6.58923C12.3437 6.73469 12.2892 6.75751 12.2187 6.70383C12.105 6.61718 12.0278 6.68638 12.122 6.79054C12.1783 6.85284 12.1654 6.89642 12.0627 6.99072C11.952 7.09231 11.9159 7.0995 11.8332 7.03652C11.7059 6.93949 11.6339 7.00549 11.7397 7.12238C11.8083 7.19825 11.8004 7.23145 11.6898 7.33299C11.587 7.42729 11.5395 7.43915 11.4717 7.38741C11.3582 7.30099 11.2828 7.37184 11.3772 7.47623C11.4357 7.54092 11.4108 7.59089 11.2523 7.72678C11.0744 7.87949 10.9734 8.05753 11.1082 7.98109C11.1379 7.96426 11.2122 8.00128 11.2733 8.06329C11.3801 8.17162 11.38 8.18052 11.27 8.2921C11.207 8.35599 11.1187 8.3953 11.0739 8.3795C11.0201 8.3605 10.9923 8.39872 10.9923 8.49153C10.9923 8.57317 11.0283 8.63238 11.0779 8.63238C11.125 8.63238 11.1987 8.67134 11.2419 8.71903C11.3057 8.78965 11.3014 8.82474 11.2183 8.90905C11.0849 9.04425 11.166 9.11698 11.3135 8.99445C11.4197 8.90626 11.4357 8.90694 11.5526 9.00398L11.6779 9.10803L11.5526 9.23039C11.3734 9.40552 11.3974 9.47666 11.5821 9.3175C11.7325 9.18778 11.7403 9.18698 11.8623 9.28829C11.9749 9.38179 11.9781 9.40227 11.894 9.48755C11.7562 9.62732 11.7798 9.69389 11.9246 9.57364C12.044 9.47443 12.0537 9.47438 12.1717 9.57244C12.2393 9.62851 12.2796 9.69668 12.2613 9.72389C12.243 9.75105 12.2987 9.7733 12.3851 9.7733C12.4893 9.7733 12.5316 9.74808 12.5109 9.69839C12.4936 9.65721 12.5365 9.5762 12.6061 9.51841C12.7277 9.41744 12.7374 9.41733 12.8554 9.51539C12.9229 9.57147 12.9633 9.63964 12.9449 9.66685C12.8543 9.80142 13.0869 9.69258 13.2329 9.53211C13.3795 9.37089 13.4132 9.35766 13.5031 9.42611C13.6339 9.52577 13.7089 9.46285 13.6012 9.34374C13.5325 9.26781 13.5407 9.23438 13.6537 9.13062C13.7587 9.03432 13.8042 9.02263 13.8631 9.07671C13.9045 9.1147 13.9791 9.14579 14.0288 9.14579C14.1001 9.14579 14.095 9.1212 14.0047 9.0297C13.8932 8.91664 13.8937 8.91042 14.0228 8.79194C14.1345 8.68943 14.1707 8.68207 14.2535 8.74504C14.3796 8.84117 14.4532 8.77659 14.3488 8.66119C14.2831 8.58851 14.2886 8.55354 14.3807 8.46016C14.442 8.39804 14.5297 8.34715 14.5757 8.34715C14.6217 8.34715 14.6593 8.29427 14.6593 8.22969C14.6593 8.16512 14.6351 8.12598 14.6055 8.14276C14.5759 8.15958 14.5016 8.12256 14.4405 8.06055C14.3336 7.95222 14.3338 7.94332 14.4438 7.83174C14.5067 7.76785 14.595 7.72855 14.6399 7.74435C14.694 7.7634 14.7215 7.72455 14.7215 7.62894C14.7215 7.54959 14.6972 7.49848 14.6677 7.51525C14.638 7.53208 14.5637 7.49506 14.5026 7.43305C14.3958 7.32472 14.3959 7.31588 14.5039 7.20623C14.635 7.07337 14.5624 7.0517 14.4101 7.17817C14.3172 7.25535 14.2949 7.25238 14.193 7.14907C14.0827 7.03709 14.0835 7.02996 14.2249 6.89191C14.3983 6.72243 14.3208 6.70035 14.13 6.86487L13.9966 6.97982L13.8833 6.86487C13.7738 6.75375 13.7737 6.74599 13.8828 6.63543C14.029 6.48712 13.9521 6.41484 13.7907 6.5489C13.6896 6.63292 13.6501 6.63846 13.5728 6.57964C13.5209 6.54005 13.4784 6.47234 13.4784 6.42916C13.4784 6.38358 13.4139 6.35055 13.3249 6.35055C13.2238 6.35055 13.1822 6.3761 13.2029 6.42545ZM5.51996 6.66744C5.4529 6.74154 5.46179 6.77634 5.57422 6.87953C5.7004 6.99534 5.71519 6.99699 5.81358 6.90669C5.91197 6.81644 5.91141 6.80332 5.80419 6.69459C5.66696 6.55546 5.62482 6.55141 5.51996 6.66744ZM6.23641 6.69396C6.12372 6.80823 6.12422 6.81382 6.25698 6.93572L6.39291 7.06043L6.51877 6.94496L6.64457 6.82945L6.4982 6.7032L6.35176 6.57696L6.23641 6.69396ZM12.4953 6.71028L12.3577 6.84468L12.4852 6.95056C12.6097 7.05398 12.6158 7.05352 12.7486 6.93167L12.8845 6.80691L12.7587 6.6914L12.6328 6.57594L12.4953 6.71028ZM13.1987 6.69282C13.0908 6.80235 13.0907 6.81142 13.1971 6.91935C13.307 7.03082 13.309 7.03053 13.4303 6.88906C13.5286 6.77434 13.5377 6.7299 13.4768 6.66253C13.3767 6.55186 13.333 6.55665 13.1987 6.69282ZM5.19061 6.96818C5.09446 7.06579 5.09713 7.08039 5.23263 7.19728L5.37745 7.32209L5.49081 7.20715C5.6002 7.09614 5.60027 7.08815 5.49168 6.97805C5.35327 6.83766 5.32039 6.83658 5.19061 6.96818ZM13.5095 6.97805C13.4009 7.08815 13.401 7.09614 13.5104 7.20715L13.6237 7.32209L13.7685 7.19728C13.904 7.08039 13.9067 7.06579 13.8106 6.96818C13.6808 6.83658 13.6479 6.83766 13.5095 6.97805ZM5.89288 7.00971C5.82582 7.08381 5.83471 7.11861 5.94714 7.22181C6.07332 7.33761 6.08811 7.33927 6.1865 7.24896C6.28489 7.15872 6.28433 7.14559 6.17711 7.03687C6.03988 6.89773 5.99774 6.89368 5.89288 7.00971ZM6.60933 7.03624C6.49664 7.1505 6.49714 7.15609 6.6299 7.278L6.76583 7.4027L6.89169 7.28724L7.01749 7.17172L6.87112 7.04548L6.72468 6.91924L6.60933 7.03624ZM12.1223 7.05255L11.9848 7.18695L12.1123 7.29283C12.2368 7.39625 12.2429 7.3958 12.3757 7.27395L12.5115 7.14919L12.3857 7.03367L12.2599 6.91821L12.1223 7.05255ZM12.8241 7.03687C12.7168 7.14559 12.7163 7.15872 12.8147 7.24896C12.9131 7.33927 12.9279 7.33761 13.054 7.22181C13.1665 7.11861 13.1753 7.08381 13.1083 7.00971C13.0034 6.89368 12.9613 6.89773 12.8241 7.03687ZM8.58071 7.04651C8.49513 7.12506 8.47847 7.2857 8.56076 7.23904C8.60769 7.2124 8.70409 6.97805 8.6681 6.97805C8.66108 6.97805 8.62173 7.00886 8.58071 7.04651ZM10.3795 7.11285C10.4234 7.2027 10.4706 7.24514 10.4843 7.20709C10.4981 7.1691 10.4623 7.09557 10.4046 7.04377C10.3065 6.95558 10.3048 6.95997 10.3795 7.11285ZM8.98266 7.13019C8.95985 7.15107 8.9412 7.21953 8.9412 7.28228C8.9412 7.42227 8.99801 7.37994 9.03282 7.21394C9.05985 7.08513 9.04985 7.06847 8.98266 7.13019ZM9.96804 7.21245C10.0038 7.38285 10.06 7.42181 10.06 7.27617C10.06 7.21 10.0335 7.14086 10.001 7.12249C9.96835 7.10395 9.95368 7.144 9.96804 7.21245ZM4.87984 7.25341C4.78369 7.35102 4.78637 7.36562 4.92186 7.48251L5.06668 7.60732L5.18005 7.49238C5.28944 7.38137 5.2895 7.37338 5.18092 7.26328C5.0425 7.12289 5.00962 7.12181 4.87984 7.25341ZM8.73404 7.18724C8.71123 7.20812 8.69346 7.2659 8.69445 7.31559C8.69601 7.38975 8.70819 7.3873 8.76232 7.30179C8.82926 7.19614 8.80987 7.11764 8.73404 7.18724ZM10.1852 7.18861C10.1858 7.21399 10.2133 7.27326 10.2464 7.32033C10.2983 7.39409 10.3068 7.39255 10.3076 7.30943C10.3081 7.25638 10.2806 7.19711 10.2464 7.17771C10.2122 7.15832 10.1847 7.16322 10.1852 7.18861ZM13.8203 7.26328C13.7117 7.37338 13.7117 7.38137 13.8211 7.49238L13.9345 7.60732L14.0793 7.48251C14.2148 7.36562 14.2175 7.35102 14.1213 7.25341C13.9915 7.12181 13.9587 7.12289 13.8203 7.26328ZM5.56353 7.31046C5.46738 7.40806 5.47005 7.42267 5.60555 7.53955L5.75037 7.66437L5.86373 7.54942C5.97312 7.43841 5.97319 7.43042 5.8646 7.32033C5.72619 7.17994 5.69331 7.17885 5.56353 7.31046ZM9.12766 7.3869C9.12766 7.5946 9.15482 7.58707 9.21331 7.36311C9.23767 7.26995 9.2286 7.20623 9.191 7.20623C9.15619 7.20623 9.12766 7.28752 9.12766 7.3869ZM9.31506 7.24902C9.31561 7.27252 9.34315 7.33031 9.37628 7.37737C9.425 7.44657 9.43669 7.43835 9.4375 7.33459C9.43799 7.26402 9.41046 7.20623 9.37628 7.20623C9.34209 7.20623 9.31456 7.22552 9.31506 7.24902ZM9.56274 7.31696C9.56274 7.45473 9.59729 7.46859 9.64658 7.35067C9.66585 7.30464 9.65485 7.25176 9.62216 7.23322C9.58946 7.21468 9.56274 7.25238 9.56274 7.31696ZM9.78786 7.36311C9.84634 7.58707 9.8735 7.5946 9.8735 7.3869C9.8735 7.28752 9.84498 7.20623 9.81017 7.20623C9.77257 7.20623 9.76349 7.26995 9.78786 7.36311ZM13.1366 7.32033C13.028 7.43042 13.028 7.43841 13.1374 7.54942L13.2508 7.66437L13.3956 7.53955C13.5311 7.42267 13.5338 7.40806 13.4376 7.31046C13.3079 7.17885 13.275 7.17994 13.1366 7.32033ZM6.26581 7.35199C6.19874 7.42609 6.20763 7.46089 6.32007 7.56408C6.44624 7.67989 6.46103 7.68154 6.55942 7.59124C6.65781 7.50099 6.65725 7.48787 6.55003 7.37914C6.4128 7.24001 6.37066 7.23596 6.26581 7.35199ZM6.98225 7.37851C6.86956 7.49278 6.87006 7.49837 7.00282 7.62027L7.13875 7.74498L7.26461 7.62951L7.39041 7.514L7.24404 7.38775L7.09761 7.26151L6.98225 7.37851ZM11.7494 7.39483L11.6119 7.52923L11.7394 7.6351C11.8638 7.73853 11.8699 7.73807 12.0028 7.61622L12.1386 7.49146L12.0128 7.37595L11.887 7.26048L11.7494 7.39483ZM12.4511 7.37914C12.3439 7.48787 12.3434 7.50099 12.4417 7.59124C12.5401 7.68154 12.5549 7.67989 12.6811 7.56408C12.7935 7.46089 12.8024 7.42609 12.7354 7.35199C12.6305 7.23596 12.5884 7.24001 12.4511 7.37914ZM4.56908 7.53864C4.47293 7.63625 4.4756 7.65085 4.61109 7.76774L4.75591 7.89255L4.86928 7.77761C4.97867 7.66659 4.97873 7.65861 4.87015 7.54851C4.73173 7.40812 4.69885 7.40704 4.56908 7.53864ZM14.131 7.54851C14.0224 7.65861 14.0225 7.66659 14.1319 7.77761L14.2453 7.89255L14.3901 7.76774C14.5256 7.65085 14.5282 7.63625 14.4321 7.53864C14.3023 7.40704 14.2694 7.40812 14.131 7.54851ZM5.25277 7.59569C5.15661 7.69329 5.15929 7.7079 5.29478 7.82478L5.4396 7.9496L5.55297 7.83465C5.66236 7.72364 5.66242 7.71565 5.55384 7.60556C5.41542 7.46517 5.38254 7.46408 5.25277 7.59569ZM13.4473 7.60556C13.3387 7.71565 13.3388 7.72364 13.4482 7.83465L13.5616 7.9496L13.7064 7.82478C13.8419 7.7079 13.8446 7.69329 13.7484 7.59569C13.6186 7.46408 13.5857 7.46517 13.4473 7.60556ZM5.93645 7.65273C5.8403 7.75034 5.84298 7.76494 5.97847 7.88183L6.12329 8.00664L6.23666 7.8917C6.34605 7.78069 6.34611 7.7727 6.23753 7.6626C6.09911 7.52221 6.06623 7.52113 5.93645 7.65273ZM6.669 7.66625C6.5596 7.77721 6.56029 7.78456 6.69181 7.90527C6.81754 8.02062 6.83494 8.0229 6.92936 7.93631C7.02377 7.84965 7.02209 7.83208 6.90655 7.69728C6.78224 7.55222 6.78149 7.55216 6.669 7.66625ZM12.7636 7.6626C12.6551 7.7727 12.6551 7.78069 12.7645 7.8917L12.8779 8.00664L13.0227 7.88183C13.1582 7.76494 13.1609 7.75034 13.0647 7.65273C12.9349 7.52113 12.9021 7.52221 12.7636 7.6626ZM7.35517 7.72079C7.24249 7.83505 7.24298 7.84064 7.37574 7.96255L7.51167 8.08725L7.63753 7.97179L7.76333 7.85627L7.61696 7.73003L7.47053 7.60379L7.35517 7.72079ZM11.3765 7.7371L11.239 7.8715L11.3664 7.97738C11.4909 8.0808 11.497 8.08035 11.6298 7.9585L11.7657 7.83374L11.6399 7.71822L11.514 7.60276L11.3765 7.7371ZM12.0782 7.72142C11.971 7.83014 11.9704 7.84327 12.0688 7.93351C12.1672 8.02382 12.182 8.02216 12.3082 7.90636C12.4206 7.80316 12.4295 7.76836 12.3624 7.69426C12.2576 7.57823 12.2154 7.58228 12.0782 7.72142ZM4.942 7.88092C4.84585 7.97852 4.84852 7.99312 4.98401 8.11001L5.12883 8.23483L5.2422 8.11988C5.35159 8.00887 5.35165 8.00088 5.24307 7.89078C5.10465 7.75039 5.07177 7.74931 4.942 7.88092ZM13.7581 7.89078C13.6495 8.00088 13.6496 8.00887 13.759 8.11988L13.8723 8.23483L14.0172 8.11001C14.1526 7.99312 14.1553 7.97852 14.0592 7.88092C13.9294 7.74931 13.8965 7.75039 13.7581 7.89078ZM5.62569 7.93796C5.52953 8.03557 5.53221 8.05017 5.6677 8.16706L5.81252 8.29187L5.92589 8.17693C6.03528 8.06591 6.03534 8.05793 5.92676 7.94783C5.78834 7.80744 5.75546 7.80636 5.62569 7.93796ZM13.0744 7.94783C12.9658 8.05793 12.9659 8.06591 13.0753 8.17693L13.1886 8.29187L13.3335 8.16706C13.469 8.05017 13.4716 8.03557 13.3755 7.93796C13.2457 7.80636 13.2128 7.80744 13.0744 7.94783ZM6.30937 7.99501C6.21322 8.09261 6.2159 8.10722 6.35139 8.2241L6.49621 8.34892L6.60958 8.23397C6.71897 8.12296 6.71903 8.11497 6.61045 8.00488C6.47203 7.86449 6.43915 7.8634 6.30937 7.99501ZM12.3907 8.00488C12.2821 8.11497 12.2822 8.12296 12.3916 8.23397L12.505 8.34892L12.6498 8.2241C12.7853 8.10722 12.7879 8.09261 12.6918 7.99501C12.562 7.8634 12.5291 7.86449 12.3907 8.00488ZM7.01606 8.03163C6.95515 8.099 6.96422 8.14344 7.06255 8.25816C7.18381 8.39963 7.18586 8.39992 7.29575 8.28845C7.40216 8.18052 7.4021 8.17145 7.29413 8.06192C7.15988 7.92575 7.11613 7.92096 7.01606 8.03163ZM11.7053 8.06369C11.5981 8.17242 11.5975 8.18554 11.6959 8.27579C11.7943 8.36609 11.8091 8.36444 11.9353 8.24863C12.0477 8.14544 12.0566 8.11064 11.9895 8.03654C11.8847 7.92051 11.8425 7.92456 11.7053 8.06369ZM4.63123 8.16614C4.53508 8.26375 4.53775 8.27835 4.67325 8.39524L4.81806 8.52006L4.93143 8.40511C5.04082 8.2941 5.04088 8.28611 4.9323 8.17601C4.79389 8.03562 4.76101 8.03454 4.63123 8.16614ZM14.0689 8.17601C13.9603 8.28611 13.9603 8.2941 14.0697 8.40511L14.1831 8.52006L14.3279 8.39524C14.4634 8.27835 14.4661 8.26375 14.3699 8.16614C14.2402 8.03454 14.2073 8.03562 14.0689 8.17601ZM5.31492 8.22319C5.21877 8.3208 5.22144 8.3354 5.35693 8.45229L5.50175 8.5771L5.61512 8.46215C5.72451 8.35114 5.72457 8.34316 5.61599 8.23306C5.47757 8.09267 5.4447 8.09159 5.31492 8.22319ZM13.3852 8.23306C13.2766 8.34316 13.2767 8.35114 13.386 8.46215L13.4994 8.5771L13.6442 8.45229C13.7797 8.3354 13.7824 8.3208 13.6862 8.22319C13.5565 8.09159 13.5236 8.09267 13.3852 8.23306ZM5.99861 8.28024C5.90246 8.37784 5.90513 8.39245 6.04062 8.50933L6.18544 8.63415L6.29881 8.5192C6.4082 8.40819 6.40826 8.4002 6.29968 8.2901C6.16126 8.14972 6.12838 8.14863 5.99861 8.28024ZM12.7015 8.2901C12.5929 8.4002 12.593 8.40819 12.7024 8.5192L12.8157 8.63415L12.9605 8.50933C13.096 8.39245 13.0987 8.37784 13.0026 8.28024C12.8728 8.14863 12.8399 8.14972 12.7015 8.2901ZM6.6823 8.33728C6.58614 8.43489 6.58882 8.44949 6.72431 8.56638L6.86913 8.69119L6.9825 8.57625C7.09189 8.46524 7.09195 8.45725 6.98337 8.34715C6.84495 8.20676 6.81207 8.20568 6.6823 8.33728ZM12.0178 8.34715C11.9092 8.45725 11.9093 8.46524 12.0187 8.57625L12.132 8.69119L12.2769 8.56638C12.4123 8.44949 12.415 8.43489 12.3189 8.33728C12.1891 8.20568 12.1562 8.20676 12.0178 8.34715ZM7.38457 8.37881C7.3175 8.45291 7.32639 8.48771 7.43883 8.59091C7.565 8.70671 7.57979 8.70836 7.67818 8.61806C7.77657 8.52781 7.77601 8.51469 7.6688 8.40596C7.53156 8.26683 7.48942 8.26278 7.38457 8.37881ZM11.3341 8.4042C11.2262 8.51372 11.2261 8.52279 11.3325 8.63073C11.4424 8.74219 11.4444 8.74191 11.5657 8.60043C11.664 8.48572 11.6731 8.44128 11.6122 8.37391C11.5121 8.26324 11.4684 8.26803 11.3341 8.4042ZM5.00415 8.50842C4.908 8.60602 4.91067 8.62063 5.04617 8.73752L5.19098 8.86233L5.30435 8.74738C5.41374 8.63637 5.41381 8.62839 5.30522 8.51829C5.16681 8.3779 5.13393 8.37681 5.00415 8.50842ZM13.6959 8.51829C13.5874 8.62839 13.5874 8.63637 13.6968 8.74738L13.8102 8.86233L13.955 8.73752C14.0905 8.62063 14.0932 8.60602 13.997 8.50842C13.8672 8.37681 13.8344 8.3779 13.6959 8.51829ZM5.68784 8.56547C5.59169 8.66307 5.59436 8.67767 5.72986 8.79456L5.87467 8.91938L5.98804 8.80443C6.09743 8.69342 6.09749 8.68543 5.98891 8.57533C5.8505 8.43494 5.81762 8.43386 5.68784 8.56547ZM13.0123 8.57533C12.9037 8.68543 12.9037 8.69342 13.0131 8.80443L13.1265 8.91938L13.2713 8.79456C13.4068 8.67767 13.4095 8.66307 13.3133 8.56547C13.1835 8.43386 13.1507 8.43494 13.0123 8.57533ZM6.37153 8.62251C6.27538 8.72012 6.27805 8.73472 6.41354 8.85161L6.55836 8.97642L6.67173 8.86148C6.78112 8.75046 6.78118 8.74248 6.6726 8.63238C6.53418 8.49199 6.5013 8.49091 6.37153 8.62251ZM12.3286 8.63238C12.22 8.74248 12.22 8.75046 12.3294 8.86148L12.4428 8.97642L12.5876 8.85161C12.7231 8.73472 12.7258 8.72012 12.6296 8.62251C12.4999 8.49091 12.467 8.49199 12.3286 8.63238ZM7.05522 8.67956C6.95907 8.77716 6.96174 8.79177 7.09723 8.90865L7.24205 9.03347L7.35542 8.91852C7.46481 8.80751 7.46487 8.79952 7.35629 8.68943C7.21787 8.54904 7.18499 8.54795 7.05522 8.67956ZM11.6449 8.68943C11.5363 8.79952 11.5364 8.80751 11.6457 8.91852L11.7591 9.03347L11.9039 8.90865C12.0394 8.79177 12.0421 8.77716 11.9459 8.67956C11.8162 8.54795 11.7833 8.54904 11.6449 8.68943ZM5.37707 8.85069C5.28092 8.9483 5.28359 8.9629 5.41909 9.07979L5.56391 9.20461L5.67727 9.08966C5.78666 8.97865 5.78673 8.97066 5.67814 8.86056C5.53973 8.72017 5.50685 8.71909 5.37707 8.85069ZM13.323 8.86056C13.2144 8.97066 13.2145 8.97865 13.3239 9.08966L13.4373 9.20461L13.5821 9.07979C13.7176 8.9629 13.7202 8.9483 13.6241 8.85069C13.4943 8.71909 13.4614 8.72017 13.323 8.86056ZM6.06076 8.90774C5.96461 9.00535 5.96728 9.01995 6.10278 9.13684L6.24759 9.26165L6.36096 9.1467C6.47035 9.03569 6.47041 9.02771 6.36183 8.91761C6.22342 8.77722 6.19054 8.77614 6.06076 8.90774ZM12.6393 8.91761C12.5308 9.02771 12.5308 9.03569 12.6402 9.1467L12.7536 9.26165L12.8984 9.13684C13.0339 9.01995 13.0366 9.00535 12.9404 8.90774C12.8106 8.77614 12.7778 8.77722 12.6393 8.91761ZM6.74445 8.96479C6.6483 9.06239 6.65097 9.07699 6.78647 9.19388L6.93128 9.3187L7.04465 9.20375C7.15404 9.09274 7.1541 9.08475 7.04552 8.97465C6.9071 8.83426 6.87423 8.83318 6.74445 8.96479ZM11.9556 8.97465C11.8471 9.08475 11.8471 9.09274 11.9565 9.20375L12.0699 9.3187L12.2147 9.19388C12.3502 9.07699 12.3529 9.06239 12.2567 8.96479C12.1269 8.83318 12.0941 8.83426 11.9556 8.97465ZM5.74999 9.19297C5.65384 9.29057 5.65651 9.30518 5.79201 9.42206L5.93683 9.54688L6.05019 9.43193C6.15958 9.32092 6.15965 9.31294 6.05106 9.20284C5.91265 9.06245 5.87977 9.06136 5.74999 9.19297ZM12.9501 9.20284C12.8415 9.31294 12.8416 9.32092 12.951 9.43193L13.0643 9.54688L13.2092 9.42206C13.3447 9.30518 13.3473 9.29057 13.2512 9.19297C13.1214 9.06136 13.0885 9.06245 12.9501 9.20284ZM6.43368 9.25001C6.33753 9.34762 6.3402 9.36222 6.4757 9.47911L6.62052 9.60393L6.73388 9.48898C6.84327 9.37797 6.84334 9.36998 6.73475 9.25988C6.59634 9.11949 6.56346 9.11841 6.43368 9.25001ZM12.2664 9.25988C12.1578 9.36998 12.1579 9.37797 12.2673 9.48898L12.3807 9.60393L12.5255 9.47911C12.661 9.36222 12.6636 9.34762 12.5675 9.25001C12.4377 9.11841 12.4048 9.11949 12.2664 9.25988Z" fill="#C374FF"/>
</svg>
