<svg width="19" height="19" viewBox="0 0 19 19" fill="none" xmlns="http://www.w3.org/2000/svg">
<circle cx="9.5" cy="9.5" r="9.5" fill="black"/>
<path d="M12.2507 13.0353C11.8485 13.0353 11.4512 12.947 11.0868 12.7768C10.7224 12.6065 10.3998 12.3584 10.1417 12.0499C10.4923 12.8444 10.908 13.6085 11.3848 14.3344C11.5663 14.6094 11.3691 15 11.0406 15H7.96045C7.63121 15 7.43399 14.6094 7.61628 14.3344C8.09304 13.6085 8.50882 12.8444 8.85936 12.0499C8.55938 12.4084 8.17297 12.6846 7.73663 12.8523C7.30028 13.02 6.8284 13.0736 6.36555 13.0083C5.90269 12.9429 5.46413 12.7606 5.0913 12.4786C4.71846 12.1966 4.42364 11.8242 4.23469 11.3966C4.04574 10.969 3.96889 10.5002 4.01139 10.0347C4.0539 9.56909 4.21436 9.12204 4.47762 8.73572C4.74089 8.3494 5.09826 8.03657 5.516 7.82677C5.93374 7.61697 6.39805 7.51712 6.86509 7.53665C6.74266 7.12611 6.71781 6.69264 6.79252 6.2708C6.86724 5.84895 7.03944 5.45039 7.29542 5.10688C7.55139 4.76338 7.88406 4.48442 8.2669 4.29225C8.64975 4.10007 9.07218 4 9.50054 4C9.9289 4 10.3513 4.10007 10.7342 4.29225C11.117 4.48442 11.4497 4.76338 11.7057 5.10688C11.9616 5.45039 12.1338 5.84895 12.2086 6.2708C12.2833 6.69264 12.2584 7.12611 12.136 7.53665C12.5016 7.52151 12.8665 7.57948 13.2094 7.70717C13.5524 7.83486 13.8663 8.02971 14.133 8.2803C14.3997 8.5309 14.6137 8.83219 14.7624 9.16654C14.9112 9.50088 14.9918 9.86156 14.9994 10.2274C15.007 10.5933 14.9416 10.957 14.8069 11.2973C14.6722 11.6376 14.471 11.9475 14.215 12.209C13.959 12.4705 13.6534 12.6783 13.3161 12.8202C12.9788 12.9621 12.6166 13.0352 12.2507 13.0353Z" fill="#94D5EA"/>
</svg>
