<svg width="19" height="19" viewBox="0 0 19 19" fill="none" xmlns="http://www.w3.org/2000/svg">
<circle cx="9.5" cy="9.5" r="9.5" fill="black"/>
<path fill-rule="evenodd" clip-rule="evenodd" d="M8.37682 5.42736C6.65858 6.21415 5.24609 6.86734 5.23798 6.87889C5.22986 6.89046 5.22309 7.10053 5.22291 7.34575L5.22261 7.79159L5.09704 7.82912L4.97148 7.86664L4.96597 8.22668C4.96296 8.42471 4.96844 8.59469 4.97821 8.60447C4.99492 8.62121 5.48166 8.45179 9.82304 6.91798C10.7124 6.60378 11.4546 6.34671 11.4725 6.34671C11.502 6.34671 11.5061 6.4788 11.5179 7.78C11.5345 9.61922 11.5422 13.3427 11.5294 13.3555C11.524 13.3609 10.973 13.4233 10.3048 13.4943L9.09003 13.6232L6.56867 12.8647C5.18192 12.4476 4.03568 12.1105 4.02146 12.1156C4.00247 12.1225 3.99713 12.1709 4.00137 12.2979L4.00713 12.4709L6.52849 13.2399C8.55265 13.8573 9.06571 14.0071 9.13022 13.9997C9.17442 13.9947 10.2186 13.8862 11.4507 13.7587C12.6827 13.6312 13.702 13.5229 13.7158 13.5181C13.7356 13.5113 13.7419 12.9674 13.7459 10.9289L13.751 8.34829L13.8716 8.33823L13.9921 8.32817L13.9961 7.94596L14 7.56375L13.0166 6.69149L12.0333 5.81922V5.10944V4.39967L11.7911 4.20141C11.6579 4.09238 11.5381 4.00173 11.5249 4C11.5117 3.99827 10.0951 4.64059 8.37682 5.42736ZM8.75953 7.68952C8.70108 7.71915 8.60396 7.86366 8.14102 8.6098C7.83898 9.09661 7.58513 9.50604 7.57694 9.51962C7.5556 9.55502 4.8874 9.84122 4.85752 9.81131C4.84205 9.79582 4.89889 9.69874 5.0566 9.47128C5.32222 9.08823 5.32306 9.08668 5.32306 8.98127C5.32306 8.91279 5.31056 8.88495 5.25475 8.82907C5.16786 8.74206 5.08692 8.73786 5.00338 8.81599C4.97083 8.84641 4.75727 9.13347 4.52878 9.45388L4.11333 10.0364L4.12259 10.133C4.1279 10.1881 4.14821 10.2479 4.16994 10.2724C4.25258 10.3651 4.27841 10.3663 4.89248 10.3033C5.3316 10.2582 5.47233 10.2499 5.49035 10.2679C5.50747 10.285 5.51547 10.5275 5.51957 11.1535C5.52451 11.9116 5.52905 12.0188 5.55706 12.0421C5.59587 12.0744 8.89277 12.7278 8.9494 12.7144C8.9715 12.7092 9.00065 12.687 9.01417 12.6651C9.04841 12.6096 9.05331 7.81772 9.0192 7.75389C8.99933 7.71669 8.88975 7.65421 8.84457 7.65431C8.83593 7.65431 8.79766 7.67017 8.75953 7.68952ZM10.0771 9.08293C9.69187 9.1362 9.3664 9.19003 9.35388 9.20257C9.33735 9.2191 9.32966 9.7094 9.32578 10.992C9.32076 12.6557 9.3225 12.7611 9.35595 12.8025C9.38814 12.8423 9.45986 12.8557 10.1247 12.9458C10.528 13.0005 10.8831 13.0453 10.9138 13.0453C10.9552 13.0454 10.9745 13.0322 10.9891 12.9938C11.0013 12.9616 11.0087 12.2181 11.0087 11.0137C11.0087 9.80931 11.0013 9.06578 10.9891 9.03355C10.9717 8.98762 10.9589 8.98217 10.8736 8.984C10.8208 8.98515 10.4624 9.02967 10.0771 9.08293Z" fill="#99E090"/>
</svg>
