<svg width="19" height="19" viewBox="0 0 19 19" fill="none" xmlns="http://www.w3.org/2000/svg">
<circle cx="9.5" cy="9.5" r="9.5" fill="black"/>
<path fill-rule="evenodd" clip-rule="evenodd" d="M5.51853 5.00258C5.3429 5.03076 5.1935 5.10887 5.07292 5.23557C5.00083 5.31133 4.96842 5.36035 4.92607 5.4577C4.84606 5.64161 4.84928 5.87361 4.93438 6.05666C5.03173 6.26605 5.21143 6.41384 5.44319 6.4751C5.53763 6.50006 5.69547 6.50009 5.79811 6.47517C6.16282 6.38663 6.41624 6.02614 6.36914 5.66286C6.32785 5.3443 6.10362 5.0929 5.79309 5.01699C5.74243 5.00462 5.56419 4.99526 5.51853 5.00258ZM14.6567 5.00259C14.4044 5.04244 14.1995 5.18611 14.0864 5.4023C13.8909 5.77605 14.0431 6.2328 14.4251 6.41882C14.5382 6.47394 14.6219 6.4926 14.7566 6.49277C14.8754 6.49292 14.9493 6.47837 15.0537 6.4342C15.2598 6.34704 15.4269 6.1537 15.4845 5.93577C15.5095 5.84131 15.5131 5.69567 15.493 5.59916C15.4644 5.46224 15.4036 5.34342 15.3119 5.24535C15.1634 5.08655 14.9871 5.0061 14.7765 5.00108C14.7238 4.99982 14.6699 5.00051 14.6567 5.00259ZM9.87195 6.18481C9.84487 6.19879 9.80629 6.23322 9.79542 6.25311C9.79144 6.26041 9.6873 6.57479 9.564 6.95172C9.44071 7.32867 9.31735 7.70494 9.28988 7.7879L9.23992 7.93874L8.62135 7.94271C7.93401 7.94712 7.98011 7.94322 7.92892 8.00116C7.85786 8.0816 7.88018 8.20839 7.97407 8.25766L8.00929 8.27614H8.70844C9.40458 8.27614 9.40774 8.27606 9.4426 8.2593C9.48323 8.23974 9.51188 8.20086 9.53405 8.13519C9.65607 7.77359 10.1156 6.35474 10.1155 6.33962C10.1154 6.279 10.0677 6.20538 10.014 6.18305C9.9792 6.16858 9.90156 6.16954 9.87195 6.18481ZM10.4498 6.19526C10.4063 6.22268 10.3712 6.28495 10.3712 6.33467C10.3712 6.35236 10.3853 6.40971 10.4026 6.46212C10.4199 6.51451 10.4813 6.70207 10.5391 6.87891C10.6446 7.202 10.6625 7.2566 10.8621 7.86498C10.9574 8.15556 10.974 8.19953 10.9974 8.22416C11.0494 8.27895 11.0072 8.27614 11.7771 8.27614C12.4458 8.27614 12.4738 8.27555 12.5023 8.26099C12.6098 8.20602 12.6324 8.06842 12.5469 7.98878C12.4956 7.94101 12.5212 7.94271 11.8547 7.94271H11.2449L11.212 7.84149C11.1939 7.78581 11.0796 7.43661 10.9581 7.06547C10.8365 6.69433 10.7299 6.36745 10.721 6.33907C10.682 6.21419 10.6358 6.17236 10.5368 6.17236C10.4947 6.17236 10.48 6.17622 10.4498 6.19526ZM4.09612 6.24296C4.05655 6.26082 4.01531 6.3086 4.00419 6.34949C3.99853 6.3703 3.9986 6.51425 4.00442 6.80994C4.00908 7.04654 4.01642 7.45269 4.02075 7.71248C4.02508 7.97228 4.03056 8.27415 4.03294 8.38331C4.03532 8.49247 4.04628 9.08728 4.05732 9.70512L4.0774 10.8285L4.09902 10.8721C4.12208 10.9187 4.15461 10.9458 4.20358 10.9593C4.2219 10.9644 4.4819 10.9673 4.91345 10.9673L5.59442 10.9674V11.5042V12.0409L5.32012 12.431C5.16926 12.6456 4.89813 13.031 4.71762 13.2876C4.5371 13.5442 4.38515 13.767 4.37992 13.7827C4.36478 13.8283 4.37384 13.8919 4.40102 13.9308C4.43549 13.9801 4.48269 14.0017 4.54889 13.9983C4.63815 13.9938 4.63351 13.9989 4.93193 13.5741C5.76423 12.3891 5.75932 12.3959 5.77196 12.4105C5.77843 12.418 6.02204 12.7635 6.31332 13.1783C6.6046 13.5931 6.85048 13.9409 6.85971 13.9512C6.88913 13.9838 6.93127 14 6.98709 14C7.03188 14 7.04327 13.9967 7.07643 13.9742C7.14318 13.9289 7.17034 13.8445 7.1408 13.7742C7.1301 13.7488 7.00755 13.5731 6.25435 12.5035L5.9301 12.0431L5.93001 11.5054L5.92991 10.9677L6.62749 10.9656L7.32507 10.9634L7.36437 10.9396C7.41157 10.9109 7.44762 10.849 7.44762 10.7967C7.44762 10.7443 7.41157 10.6825 7.36437 10.6538L7.32506 10.63L5.86864 10.6279L4.41221 10.6258L4.41222 10.5684C4.41222 10.5368 4.40685 10.2215 4.40028 9.86786C4.39371 9.51419 4.37915 8.71396 4.36795 8.08957C4.35673 7.46519 4.34498 6.81821 4.34182 6.65184L4.33608 6.34934L4.31211 6.31082C4.26714 6.23852 4.1721 6.20866 4.09612 6.24296ZM16.1534 6.23561C16.1192 6.2459 16.0824 6.27715 16.06 6.31496C16.041 6.34725 16.0389 6.35922 16.0366 6.44992C16.034 6.55374 15.9907 8.98188 15.9829 9.45901C15.9804 9.60965 15.9767 9.80078 15.9747 9.88374C15.9727 9.9667 15.9687 10.1676 15.9658 10.3302L15.9607 10.6258L14.5059 10.6279L13.0511 10.63L13.0155 10.6498C12.9685 10.6761 12.9337 10.7315 12.9294 10.7871C12.9248 10.8467 12.9568 10.907 13.0106 10.9396L13.0499 10.9634L13.7475 10.9656L14.445 10.9677L14.4449 11.5054L14.4448 12.0431L13.8422 12.8992C13.5108 13.37 13.2354 13.7679 13.2303 13.7833C13.2056 13.8579 13.2408 13.945 13.3107 13.9821C13.3606 14.0086 13.4377 14.0053 13.4842 13.9746C13.5092 13.9582 13.627 13.796 14.0287 13.2246C14.3107 12.8237 14.5576 12.473 14.5775 12.4454L14.6136 12.3951L15.0735 13.0487C15.3264 13.4082 15.573 13.759 15.6215 13.8283C15.7279 13.9805 15.7521 14 15.8349 14C15.8794 14 15.8935 13.9964 15.924 13.9771C15.9439 13.9646 15.9683 13.9413 15.9782 13.9253C16.0023 13.8866 16.0088 13.8156 15.9919 13.7754C15.98 13.747 15.8592 13.5738 15.0943 12.4878L14.7811 12.0431L14.7808 11.5054L14.7805 10.9677L15.4775 10.9656L16.1744 10.9634L16.2079 10.9456C16.2263 10.9358 16.2502 10.9162 16.261 10.902C16.301 10.8494 16.2942 11.061 16.342 8.35949C16.3443 8.2285 16.348 8.05345 16.3501 7.97049C16.3523 7.88753 16.3559 7.68926 16.3583 7.52989C16.3607 7.37052 16.3663 7.04654 16.3708 6.80994C16.3764 6.51477 16.3764 6.37026 16.3708 6.34949C16.3596 6.3086 16.3184 6.26082 16.2788 6.24296C16.2452 6.22779 16.1901 6.22457 16.1534 6.23561ZM5.20521 6.88319C5.05587 6.92316 4.93717 7.04443 4.89858 7.19646C4.88933 7.23284 4.88749 7.46262 4.88749 8.57384V9.90756L4.90511 9.9403C4.92701 9.98099 4.963 10.0117 5.00168 10.0227C5.02188 10.0285 5.41169 10.0317 6.22946 10.0329C7.34359 10.0345 7.429 10.0355 7.44686 10.0481C7.45743 10.0555 7.79359 10.4503 8.19388 10.9253C8.8657 11.7226 8.925 11.7907 8.9649 11.8109C9.01931 11.8384 9.09439 11.8408 9.14759 11.8168C9.22869 11.7802 9.31679 11.6539 9.31679 11.5742V11.5325L9.13578 11.2837C8.4471 10.337 7.84598 9.55366 7.6557 9.35493L7.61094 9.30818H6.83095H6.05095L6.02741 9.28849C6.01447 9.27766 5.99993 9.25891 5.99513 9.24681C5.99013 9.23425 5.9726 8.94731 5.95428 8.57781C5.91606 7.80753 5.91501 7.78675 5.90911 7.68343C5.90394 7.59292 5.91396 7.55798 5.95223 7.53307C5.9997 7.50214 6.0043 7.50383 6.58891 7.7674C6.9717 7.93998 7.15138 8.01712 7.17709 8.01991C7.22499 8.02512 7.26293 8.01224 7.29385 7.98027C7.32343 7.94967 7.37661 7.83291 7.38182 7.78711C7.38668 7.74432 7.36215 7.68917 7.32675 7.66332C7.31195 7.65252 7.10753 7.55764 6.87249 7.45248C6.63744 7.34732 6.26141 7.1789 6.03685 7.07822C5.81231 6.97753 5.60756 6.88971 5.58186 6.88306C5.51948 6.86691 5.26569 6.867 5.20521 6.88319ZM14.7881 6.88237C14.7369 6.89641 13.0808 7.63948 13.0491 7.66265C13.0347 7.6731 13.0155 7.69636 13.0062 7.71434C12.9837 7.75834 12.9887 7.80177 13.0265 7.88714C13.0734 7.99336 13.1188 8.02851 13.1978 8.01991C13.2236 8.01712 13.4032 7.93998 13.786 7.7674C14.3706 7.50383 14.3752 7.50214 14.4227 7.53307C14.4342 7.54056 14.4494 7.5588 14.4565 7.5736C14.4704 7.60266 14.4717 7.56114 14.4329 8.33568C14.4264 8.46667 14.4137 8.72031 14.4048 8.89933C14.3958 9.07835 14.3846 9.23472 14.3798 9.24681C14.375 9.25891 14.3605 9.27766 14.3475 9.28849L14.324 9.30818H13.5492C13.0471 9.30818 12.7692 9.31097 12.7596 9.31613C12.725 9.33452 12.4779 9.6326 12.2233 9.96313C11.9662 10.2969 11.574 10.8231 11.2362 11.2876L11.0582 11.5324V11.5741C11.0582 11.6292 11.0923 11.6973 11.1497 11.7567C11.2043 11.8131 11.2534 11.8362 11.3178 11.8357C11.4118 11.835 11.4192 11.8285 11.691 11.5061C11.824 11.3482 12.0371 11.0955 12.1646 10.9444C12.2921 10.7933 12.506 10.5395 12.6399 10.3803C12.915 10.0534 12.925 10.0425 12.9565 10.036C12.969 10.0335 13.514 10.0312 14.1676 10.031C15.2237 10.0307 15.3592 10.0293 15.3856 10.0184C15.4236 10.0026 15.4487 9.9792 15.4703 9.93931L15.4874 9.90756V8.57384C15.4874 7.47402 15.4855 7.23246 15.4766 7.19646C15.4385 7.04377 15.3181 6.92208 15.1663 6.88279C15.1081 6.86772 14.8426 6.86741 14.7881 6.88237ZM7.73518 8.58252C7.67279 8.60939 7.63134 8.67086 7.63134 8.73652C7.63134 8.80658 7.66163 8.85725 7.7232 8.89018L7.75515 8.90727L8.86747 8.90939L9.97978 8.91151V11.3829C9.97978 14.1432 9.97441 13.9004 10.0367 13.9563C10.0542 13.972 10.0775 13.9882 10.0886 13.9924C10.1177 14.0034 10.1919 14.0017 10.2217 13.9893C10.2566 13.9748 10.3044 13.9204 10.3147 13.8835C10.3206 13.8624 10.3232 13.0997 10.3232 11.3823L10.3233 8.91148L11.5514 8.90938L12.7795 8.90727L12.8173 8.88522C12.8837 8.84643 12.9159 8.76584 12.8949 8.69116C12.8816 8.64419 12.8321 8.59314 12.7866 8.57964C12.7609 8.572 12.2104 8.56994 10.2584 8.57018C8.04676 8.57046 7.75996 8.57186 7.73518 8.58252Z" fill="#43C1A8"/>
</svg>
