<svg width="19" height="19" viewBox="0 0 19 19" fill="none" xmlns="http://www.w3.org/2000/svg">
<circle cx="9.5" cy="9.5" r="9.5" fill="black"/>
<path fill-rule="evenodd" clip-rule="evenodd" d="M8.94297 3.9771C8.06308 4.5145 7.34325 5.00372 7.34325 5.06423C7.34325 5.17521 10.2409 6.98641 10.5602 7.07493C10.7647 7.13171 13.9224 5.23868 13.9224 5.05935C13.9224 4.94665 10.8113 3 10.6314 3C10.5826 3 9.82277 3.43971 8.94297 3.9771ZM9.3415 4.24274C8.68088 4.65396 8.12157 5.01022 8.09868 5.0346C8.05902 5.07665 10.5328 6.63235 10.6393 6.63235C10.7919 6.63235 13.2036 5.06862 13.1409 5.01041C13.0007 4.88012 10.6669 3.47794 10.6047 3.48654C10.5706 3.49123 10.0021 3.83152 9.3415 4.24274ZM7.25312 7.36943C7.25312 9.39514 7.11839 9.14613 8.74019 10.1176C9.33501 10.4739 9.95354 10.8498 10.1146 10.953L10.4075 11.1406V9.3722V7.60372L9.03309 6.76914C8.27712 6.31013 7.56739 5.87157 7.45591 5.79452L7.25312 5.65449V7.36943ZM12.4353 6.62939L10.9032 7.54369L10.8787 9.34505L10.8541 11.1464L11.149 10.9645C11.3112 10.8644 12.0033 10.4405 12.6869 10.0223C13.4981 9.52629 13.9454 9.19546 13.9745 9.07033C13.9989 8.9649 14.0073 8.16683 13.9931 7.29688L13.9674 5.71509L12.4353 6.62939ZM12.7057 7.02828C12.2111 7.32499 11.7615 8.03329 11.6404 8.70671C11.5642 9.13065 11.734 9.59004 12.0077 9.70045C12.3556 9.84077 12.9487 9.49321 13.2879 8.95008C13.6864 8.31193 13.4979 8.19398 12.995 8.76674C12.4641 9.37143 12.0297 9.34696 12.0297 8.71235C12.0297 8.09667 12.6949 7.28054 13.0717 7.43386C13.2192 7.49389 13.4943 7.23064 13.4463 7.07531C13.4003 6.92648 12.9257 6.89627 12.7057 7.02828ZM5.85619 9.39351C5.45964 9.64128 5.13519 9.90396 5.13519 9.97727C5.13519 10.1426 8.12553 11.9835 8.39573 11.9845C8.5037 11.9849 8.8395 11.8289 9.14196 11.6378C9.6673 11.3059 9.6837 11.2843 9.5085 11.1542C9.34456 11.0324 9.27814 11.0451 8.87997 11.275C8.60257 11.4351 8.37356 11.5074 8.27208 11.4668C8.01892 11.3656 5.81671 10.0317 5.8141 9.97794C5.81284 9.95165 6.03463 9.80263 6.30708 9.64673C6.68507 9.43051 6.8025 9.3115 6.8025 9.14489C6.8025 8.84446 6.68579 8.87504 5.85619 9.39351ZM5 12.348C5 13.6055 5.0301 14.091 5.11266 14.1627C5.25568 14.287 8.05019 16 8.10994 16C8.13437 16 8.15383 15.2149 8.15311 14.2555L8.15176 12.511L6.65713 11.6029C5.83501 11.1035 5.1259 10.6805 5.0812 10.663C5.03488 10.6449 5 11.3691 5 12.348ZM11.3538 11.4118C11.165 11.5444 10.9308 11.6019 10.577 11.6023C10.1418 11.6028 9.9676 11.6649 9.3378 12.0433L8.605 12.4836V14.2418C8.605 15.2088 8.62807 16 8.65628 16C8.72198 16 11.1832 14.4974 11.5115 14.2569L11.7594 14.0752V12.6479C11.7594 11.8628 11.7289 11.2209 11.6918 11.2213C11.6546 11.2215 11.5025 11.3073 11.3538 11.4118ZM6.02247 12.8786C5.60888 13.7616 5.59762 13.807 5.75155 13.968C5.90494 14.1284 5.91801 14.1277 6.03869 13.9552C6.10827 13.8558 6.17938 13.729 6.19677 13.6736C6.21533 13.6145 6.36305 13.6611 6.55421 13.7864C6.78069 13.9348 6.91777 14.1204 7.00429 14.3956C7.11956 14.7624 7.36569 15.0522 7.46888 14.9427C7.54558 14.8614 6.74906 12.27 6.5981 12.1099C6.46606 11.9699 6.41794 12.0341 6.02247 12.8786ZM6.49193 13.0284C6.44975 13.1008 6.48012 13.2138 6.56655 13.3054C6.72112 13.4694 6.74365 13.3948 6.63144 13.0909C6.58061 12.9531 6.5451 12.9372 6.49193 13.0284Z" fill="#65FAFF"/>
</svg>
