<svg width="19" height="19" viewBox="0 0 19 19" fill="none" xmlns="http://www.w3.org/2000/svg">
<circle cx="9.5" cy="9.5" r="9.5" fill="black"/>
<path fill-rule="evenodd" clip-rule="evenodd" d="M10.4507 4.03999C9.95223 4.15956 9.66074 4.38622 9.36022 4.88792C9.2526 5.06757 8.87571 5.69905 8.5227 6.29122C8.16967 6.88339 7.5836 7.86524 7.22025 8.47313C6.85693 9.081 6.55966 9.59424 6.55966 9.61365C6.55966 9.63305 6.58122 9.67135 6.60755 9.69874C6.67642 9.77038 9.34949 11.0092 9.43519 11.0092C9.47432 11.0092 9.52527 10.9901 9.54839 10.9669C9.62139 10.8933 12.4981 6.05469 12.5551 5.90955C12.5851 5.83336 12.6163 5.68393 12.6245 5.57747C12.6683 5.01289 12.3292 4.51092 11.7128 4.2277C11.3541 4.06288 11.1819 4.01546 10.8966 4.00293C10.7071 3.9946 10.6043 4.00315 10.4507 4.03999ZM12.3276 8.20094C12.2418 8.22521 12.1175 8.27311 12.0513 8.30739C11.8875 8.39227 11.6414 8.63262 11.559 8.78827C11.4937 8.91159 11.4174 9.16718 11.44 9.18712C11.446 9.19244 11.5748 9.1306 11.7263 9.04971C12.1219 8.83832 12.2568 8.8001 12.6068 8.8001C12.968 8.8001 13.0831 8.83506 13.5961 9.10086C13.8053 9.20928 13.9837 9.29166 13.9925 9.2839C14.0258 9.25443 13.9423 8.93423 13.864 8.79139C13.7097 8.5099 13.4443 8.30415 13.107 8.20449C12.8888 8.14004 12.5485 8.13847 12.3276 8.20094ZM12.4563 9.14821C12.381 9.15758 12.283 9.17787 12.2384 9.19336C12.1135 9.23672 11.4849 9.58335 11.4849 9.60888C11.4849 9.6729 11.6716 9.94441 11.795 10.0597C12.0455 10.294 12.3416 10.4043 12.7195 10.4043C13.0864 10.4043 13.4156 10.2769 13.6534 10.0429C13.7607 9.93742 13.9382 9.68429 13.916 9.66833C13.8463 9.61798 12.9783 9.19353 12.9078 9.17529C12.7655 9.13846 12.6099 9.12912 12.4563 9.14821ZM6.5783 10.4479C6.46764 10.556 6.44236 10.6892 6.42351 11.2632L6.40523 11.8197L5.93219 12.7389C5.42789 13.7187 5.29021 13.9706 5.11216 14.2388C5.01896 14.3792 5 14.4295 5 14.5362C5 14.6708 5.06244 14.8111 5.15542 14.8855C5.28495 14.989 5.53789 15.0307 5.70281 14.9756C5.83926 14.93 5.9312 14.826 6.09729 14.5295C6.18674 14.3699 6.55208 13.8146 6.90916 13.2956L7.55839 12.352L8.00613 12.0698C8.51493 11.7492 8.60966 11.6748 8.69845 11.5269C8.75408 11.4341 8.75676 11.4176 8.72092 11.3881C8.68833 11.3612 6.6542 10.4043 6.62968 10.4043C6.62593 10.4043 6.60281 10.4239 6.5783 10.4479Z" fill="#EF4747"/>
</svg>
