<svg width="19" height="19" viewBox="0 0 19 19" fill="none" xmlns="http://www.w3.org/2000/svg">
<circle cx="9.5" cy="9.5" r="9.5" fill="black"/>
<path fill-rule="evenodd" clip-rule="evenodd" d="M9.66893 4.05094C9.6271 4.07958 8.54239 6.02548 7.25852 8.37511C4.95292 12.5947 4.92554 12.6494 5.03228 12.8235L5.14034 12.9999H9.83793C14.9304 12.9999 14.7404 13.0147 14.6708 12.6255C14.6417 12.4624 10.2414 4.35407 10.0554 4.12077C9.95176 3.99076 9.79762 3.9629 9.66893 4.05094ZM7.73998 8.62238L5.67637 12.3973L9.79311 12.4156C12.0573 12.4256 13.9236 12.4191 13.9405 12.401C13.9752 12.3639 9.89793 4.85492 9.84058 4.85032C9.82023 4.84876 8.87494 6.54611 7.73998 8.62238ZM9.47289 7.54951C9.12363 7.63543 8.68288 8.03887 8.5823 8.36469C8.53921 8.50442 8.51594 8.82109 8.53072 9.06843C8.56162 9.58828 8.69978 9.80981 8.99289 9.80981C9.14856 9.80981 9.18151 9.84001 9.18151 9.98243C9.18151 10.3599 9.28971 10.5061 9.60661 10.5569C9.77123 10.5833 10.0189 10.5765 10.157 10.5418C10.3937 10.4823 10.41 10.4606 10.4412 10.162C10.4723 9.86468 10.4876 9.84391 10.6911 9.82293C10.9694 9.79429 11.1016 9.58048 11.1498 9.08112C11.2117 8.44068 10.9857 7.9431 10.5178 7.68959C10.2018 7.51839 9.81187 7.46607 9.47289 7.54951ZM9.04891 8.6255C8.95775 8.67477 8.84266 8.80556 8.79306 8.91608C8.6004 9.34569 8.9787 9.65591 9.42058 9.43061C9.62047 9.32867 9.6456 9.2845 9.6456 9.03518C9.6456 8.82548 9.60834 8.72659 9.49822 8.64414C9.321 8.51136 9.26431 8.50902 9.04891 8.6255ZM10.1399 8.7078C10.0504 8.80351 9.97709 8.94352 9.97709 9.01895C9.97709 9.38581 10.5595 9.6732 10.7943 9.42211C11.0052 9.1966 10.9243 8.79727 10.6353 8.63748C10.3824 8.49768 10.3293 8.5052 10.1399 8.7078ZM9.68982 9.50264C9.66549 9.52858 9.6456 9.60834 9.6456 9.67987C9.6456 9.7704 9.69472 9.80981 9.80743 9.80981C9.99466 9.80981 10.0608 9.72814 10.0033 9.56807C9.96264 9.45457 9.77196 9.4148 9.68982 9.50264ZM8.07419 9.94925C8.05549 10.026 7.9819 10.1084 7.91083 10.1326C7.82491 10.1617 7.78838 10.2279 7.80197 10.3299C7.81894 10.4575 7.87801 10.4897 8.15388 10.5213C8.36955 10.546 8.65656 10.6614 8.97525 10.8516L9.4652 11.1438L9.19338 11.2921C9.04394 11.3736 8.83337 11.4403 8.72551 11.4403C8.33123 11.4403 8.19306 11.6185 8.44002 11.8085C8.50626 11.8594 8.57985 11.9569 8.60365 12.0252C8.62977 12.1 8.71589 12.1492 8.82051 12.1492C8.95012 12.1492 9.01205 12.0985 9.06476 11.9491C9.11183 11.8157 9.25132 11.6841 9.48317 11.5543L9.8309 11.3596L10.1651 11.5408C10.3645 11.6488 10.5346 11.8009 10.5868 11.9178C10.6753 12.1161 11.0379 12.2463 11.0379 12.0797C11.0379 12.0362 11.1164 11.9229 11.2124 11.8277C11.3588 11.6826 11.3733 11.6371 11.302 11.5453C11.2484 11.4763 11.1268 11.4415 10.9729 11.4512C10.8135 11.4613 10.6427 11.4098 10.4812 11.3031L10.2337 11.1395L10.4355 11.0083C10.9082 10.7009 11.3136 10.5187 11.5248 10.5187C11.6509 10.5187 11.7898 10.4687 11.8386 10.4057C11.913 10.3099 11.9056 10.2748 11.7901 10.1753C11.7151 10.1107 11.6355 10.0021 11.6131 9.93387C11.5339 9.69234 11.1058 9.82328 11.103 10.0898C11.1024 10.1558 10.8479 10.344 10.466 10.5609L9.83004 10.9221L9.20743 10.5637C8.865 10.3665 8.58482 10.1663 8.58482 10.1189C8.58482 9.84986 8.13505 9.70043 8.07419 9.94925Z" fill="white"/>
</svg>
