<svg width="19" height="19" viewBox="0 0 19 19" fill="none" xmlns="http://www.w3.org/2000/svg">
<circle cx="9.5" cy="9.5" r="9.5" fill="black"/>
<path d="M13.5403 6.03772C13.1294 5.34591 12.3761 5 11.5544 5H7.44561C6.62386 5 5.87058 5.34591 5.4597 6.03772C3.88467 8.45907 3.54227 12.1257 4.63795 12.8867C5.73362 13.6477 8.19889 10.327 9.5 10.327C10.8011 10.327 13.1979 13.6477 14.3621 12.8867C15.4577 12.1257 15.1153 8.45907 13.5403 6.03772ZM8.13041 8.45907H7.44561V9.15088H6.76082V8.45907H6.07602V7.76725H6.76082V7.07544H7.44561V7.76725H8.13041V8.45907ZM11.8283 8.80497C11.8283 9.15088 11.5544 9.4276 11.212 9.4276C10.8696 9.4276 10.5957 9.15088 10.5957 8.80497C10.5957 8.45907 10.8696 8.18234 11.212 8.18234C11.5544 8.18234 11.8283 8.45907 11.8283 8.80497ZM13.1294 7.42135C13.1294 7.76725 12.8555 8.04398 12.5131 8.04398C12.1707 8.04398 11.8968 7.76725 11.8968 7.42135C11.8968 7.07544 12.1707 6.79871 12.5131 6.79871C12.8555 6.79871 13.1294 7.07544 13.1294 7.42135Z" fill="#EBFF00"/>
</svg>
