<svg width="19" height="19" viewBox="0 0 19 19" fill="none" xmlns="http://www.w3.org/2000/svg">
<circle cx="9.5" cy="9.5" r="9.5" fill="black"/>
<path fill-rule="evenodd" clip-rule="evenodd" d="M11.2226 2.70189C11.1496 3.02917 10.9722 3.35596 10.5619 3.91898C9.9389 4.77388 9.73483 5.22617 9.60921 6.03054C9.5712 6.27391 9.55537 6.7769 9.58018 6.95312C9.65658 7.49607 9.87442 7.83275 10.2794 8.03386C10.5095 8.14811 10.7827 8.20648 11.1717 8.22446C11.7795 8.25255 11.7938 8.25659 11.7761 8.39583C11.7299 8.75923 11.6052 9.1303 11.4487 9.36985C11.4071 9.43356 11.4024 9.43625 11.3031 9.45312C11.0456 9.49687 10.7659 9.67971 10.637 9.88855L10.5839 9.97445L10.5252 9.91882C10.4455 9.84329 10.407 9.82133 10.28 9.77867C9.88901 9.64743 9.45332 9.79477 9.30686 10.1078C9.26329 10.2008 9.26312 10.201 9.21731 10.1879C9.14661 10.1676 8.93478 10.1723 8.84315 10.1961C8.61136 10.2565 8.40946 10.4311 8.36494 10.6097C8.3563 10.6444 8.36578 10.6591 8.44657 10.7361C8.86704 11.1369 9.41071 11.3763 10.1435 11.4834C10.4372 11.5264 10.6371 11.5422 10.9846 11.5501C11.1587 11.5541 11.3621 11.5641 11.4365 11.5725C11.6339 11.5947 11.8354 11.6653 11.9497 11.7523L11.9939 11.7859L12.7053 11.3747C13.0966 11.1485 13.5527 10.8855 13.719 10.7903C13.8852 10.695 14.0296 10.6092 14.0399 10.5997C14.0866 10.5565 13.9316 10.2901 13.7782 10.15C13.4617 9.8607 13.0455 9.81556 12.6289 10.0253C12.5738 10.0531 12.5277 10.0738 12.5264 10.0713C12.5251 10.0688 12.5071 10.0311 12.4865 9.98761C12.4008 9.80709 12.2387 9.64607 12.0656 9.5695C12.0291 9.55334 11.9992 9.53783 11.9992 9.53501C11.9992 9.5322 12.0373 9.41431 12.084 9.27304C12.2778 8.68642 12.3546 8.17848 12.3982 7.19565C12.4155 6.80521 12.4111 6.08645 12.3903 5.9148C12.3239 5.3645 12.1709 4.82043 11.879 4.09669C11.8513 4.02786 11.8345 3.97521 11.8418 3.97972C11.8491 3.98421 11.9398 4.11544 12.0435 4.27135C12.5916 5.09571 12.7659 5.73964 12.7636 6.93161C12.7628 7.33935 12.7499 7.65418 12.7172 8.06455C12.7041 8.22971 12.7047 8.26657 12.7208 8.27758C12.7316 8.28492 12.8116 8.28836 12.8986 8.28525C13.0317 8.28048 13.0742 8.2728 13.165 8.23701C13.7074 8.02334 14.1262 7.27746 14.2022 6.38972C14.2835 5.43928 13.8765 4.61846 12.9346 3.83335C12.7084 3.64475 12.457 3.46123 11.9704 3.12925C11.729 2.96455 11.4681 2.78241 11.3906 2.72447C11.3132 2.66655 11.2478 2.61914 11.2454 2.61914C11.243 2.61914 11.2327 2.65639 11.2226 2.70189ZM5.76763 10.1242C5.62218 10.1492 5.44984 10.1945 5.30199 10.2467C5.05298 10.3346 3.98703 10.8016 3.24192 11.1492C3.04247 11.2423 2.99778 11.2685 3.00008 11.2911C3.00164 11.3063 3.08661 11.5034 3.1889 11.729C3.2912 11.9546 3.59335 12.6216 3.86034 13.2113C4.12733 13.801 4.35322 14.297 4.36231 14.3136C4.3781 14.3424 4.39705 14.3321 4.78181 14.0859C5.00344 13.9441 5.22726 13.8064 5.27918 13.7799C5.53142 13.6513 5.748 13.6509 6.04339 13.7783C6.10403 13.8045 6.64804 14.082 7.25228 14.395C8.7959 15.1946 8.81045 15.2015 9.10084 15.275C9.49354 15.3745 9.81209 15.3521 10.1541 15.2009C10.2869 15.1422 10.6817 14.9084 11.1573 14.6069C12.1617 13.9702 14.8868 12.1676 15.1544 11.9629C15.3384 11.8221 15.4912 11.6582 15.562 11.5255C15.6159 11.4247 15.6186 11.4132 15.6186 11.29C15.6186 11.1774 15.6134 11.1498 15.5785 11.0788C15.4942 10.9072 15.3137 10.7747 15.1103 10.7351C14.9461 10.7032 14.6805 10.7386 14.4659 10.8211C14.2787 10.8931 14.0996 10.9919 13.4023 11.4081C12.6232 11.8731 12.265 12.0841 12.2417 12.0919C12.2337 12.0946 12.2372 12.1315 12.2503 12.182C12.2781 12.2885 12.2785 12.4542 12.2514 12.5822C12.1988 12.8303 12.0223 13.0449 11.7607 13.1789C11.5792 13.2718 11.4329 13.3201 11.2242 13.3559C11.0714 13.3822 10.9854 13.384 9.89127 13.384C8.62402 13.384 8.59764 13.3826 8.35904 13.3038C8.10495 13.2198 7.75051 13.0164 7.4846 12.802C7.34476 12.6892 7.13125 12.4905 7.14023 12.4815C7.14369 12.4781 7.16511 12.4848 7.18782 12.4966C7.27008 12.5391 7.78068 12.7054 8.00552 12.7629C8.49738 12.8886 8.4495 12.885 9.7397 12.8912C10.532 12.895 10.9272 12.8917 11.0249 12.8804C11.3969 12.8374 11.6682 12.7073 11.7446 12.5352C11.7987 12.4131 11.7744 12.2152 11.694 12.1236C11.5709 11.9833 11.3322 11.9357 10.6895 11.923C9.88481 11.9071 9.75403 11.8905 9.31515 11.7485C8.86689 11.6035 8.6214 11.4764 8.20802 11.1755C7.18049 10.4274 6.79068 10.2046 6.37016 10.1248C6.2295 10.0981 5.92132 10.0978 5.76763 10.1242Z" fill="#FFC532"/>
</svg>
