<svg width="19" height="19" viewBox="0 0 19 19" fill="none" xmlns="http://www.w3.org/2000/svg">
<circle cx="9.5" cy="9.5" r="9.5" fill="black"/>
<path fill-rule="evenodd" clip-rule="evenodd" d="M7.09717 3.03705C6.97518 3.08997 6.93662 3.1297 6.7556 3.389C6.54083 3.69665 6.52267 3.80716 6.66008 3.97044C6.73436 4.05871 6.86229 4.09271 6.94993 4.04745C7.06777 3.98658 7.11902 3.91372 7.22347 3.65857C7.2937 3.48703 7.33914 3.40552 7.35703 3.41908C7.37194 3.43036 8.4288 4.12974 9.70561 4.97321C10.9824 5.81668 12.0236 6.51028 12.0193 6.51453C12.0151 6.51878 11.1625 6.67576 10.1247 6.86333C9.08692 7.05093 8.20337 7.22184 8.16127 7.24313C7.99388 7.32783 7.89716 7.47905 7.89691 7.65639C7.89683 7.71543 8.07787 8.46615 8.29925 9.32468C8.5206 10.1832 8.69692 10.9039 8.69109 10.9263C8.68526 10.9486 8.08285 11.8635 7.35243 12.9594C6.24002 14.6284 6.02165 14.9702 6.00748 15.0647C5.97879 15.256 6.03235 15.4152 6.17269 15.5555C6.27955 15.6624 6.39899 15.7075 6.57506 15.7075C6.7465 15.7075 6.86922 15.6541 6.98689 15.5283C7.02984 15.4824 7.68164 14.5131 8.43531 13.3744C9.18898 12.2357 9.81287 11.304 9.82176 11.304C9.83064 11.304 9.86802 11.4264 9.9048 11.5761L9.9717 11.8481L9.75876 13.5464C9.63003 14.573 9.55209 15.2788 9.5617 15.331C9.61427 15.6173 9.82836 15.7934 10.1238 15.7934C10.2934 15.7934 10.4059 15.7522 10.5203 15.6483C10.6643 15.5175 10.6686 15.495 10.9033 13.6315C11.047 12.491 11.1205 11.8272 11.1111 11.7544C11.1031 11.6925 10.8845 10.7937 10.6253 9.75725C10.3118 8.50348 10.1637 7.86966 10.1827 7.86355C10.1985 7.8585 10.7567 7.75692 11.4232 7.6378C12.0896 7.5187 12.6638 7.41032 12.6992 7.39698C12.8538 7.33858 13 7.12169 13 6.95058C13 6.83831 12.9272 6.68141 12.8354 6.59567C12.7423 6.50883 7.53504 3.07576 7.42874 3.0312C7.32488 2.98766 7.20623 2.98976 7.09717 3.03705ZM7.87204 5.03328C7.60237 5.11164 7.36939 5.30973 7.2567 5.55642C7.1957 5.68998 7.18549 5.7441 7.18479 5.93727C7.18407 6.13941 7.19215 6.17967 7.26371 6.33071C7.6063 7.05391 8.62771 7.06759 8.97916 6.3537C9.0545 6.20066 9.06048 6.17011 9.06048 5.9378C9.06048 5.72028 9.0519 5.66886 8.99578 5.54947C8.84789 5.23499 8.52395 5.02147 8.1742 5.00791C8.06879 5.00383 7.93464 5.01509 7.87204 5.03328Z" fill="#7171FF"/>
</svg>
