<svg width="19" height="19" viewBox="0 0 19 19" fill="none" xmlns="http://www.w3.org/2000/svg">
<circle cx="9.5" cy="9.5" r="9.5" fill="black"/>
<path fill-rule="evenodd" clip-rule="evenodd" d="M5.67263 5.04693C5.51158 5.1529 5.5162 5.10729 5.5162 6.59263V7.93425L6.59919 7.94075L7.68222 7.94725L7.68219 7.69392C7.68219 7.33612 7.72092 7.06682 7.80847 6.81612C7.87208 6.63396 7.88308 6.57025 7.87768 6.4155C7.87376 6.30355 7.88137 6.22523 7.89708 6.21551C7.93992 6.18904 11.4403 6.19652 11.467 6.22316C11.4801 6.23633 11.4856 6.31938 11.4793 6.4111C11.4698 6.54955 11.4789 6.60522 11.5368 6.7644C11.6275 7.01337 11.677 7.33126 11.6772 7.66446L11.6772 7.93521H12.7602H13.8432V6.59713C13.8432 5.11463 13.8464 5.14585 13.6874 5.04761C13.5262 4.94795 13.3143 5.01307 13.2296 5.18839L13.1815 5.28789H9.67972H6.17798L6.12987 5.18839C6.04566 5.01422 5.82572 4.94616 5.67263 5.04693ZM6.52699 8.21691C6.25466 8.23352 5.84203 8.3005 5.66223 8.35729C5.4412 8.42713 5.21804 8.56523 5.11402 8.69658C4.96141 8.88924 4.62544 9.58019 4.49546 9.96867C4.43821 10.1398 4.34538 10.5555 4.30059 10.8413L4.28456 10.9435H9.74648H15.2084L15.175 10.733C15.0845 10.162 14.9345 9.72394 14.6187 9.10791C14.4758 8.82936 14.4095 8.72693 14.3121 8.6349C14.0489 8.38593 13.7299 8.28408 13.025 8.22396C12.7745 8.20259 6.86698 8.19619 6.52699 8.21691ZM4 12.6402V14H4.722H5.444V13.6631V13.3261H9.67972H13.9154V13.6631V14H14.6374H15.3594V12.6402V11.2805H9.67972H4V12.6402Z" fill="#99E090"/>
</svg>
