<svg width="19" height="19" viewBox="0 0 19 19" fill="none" xmlns="http://www.w3.org/2000/svg">
<circle cx="9.5" cy="9.5" r="9.5" fill="black"/>
<path d="M14.2135 11.073L15 10.2865L14.2135 9.5L12.25 11.4635L7.5365 6.75L9.5 4.7865L8.7135 4L7.927 4.7865L7.1405 4L5.9635 5.177L5.177 4.3905L4.3905 5.177L5.177 5.9635L4 7.1405L4.7865 7.927L4 8.7135L4.7865 9.5L6.75 7.5365L11.4635 12.25L9.5 14.2135L10.2865 15L11.073 14.2135L11.8595 15L13.0365 13.823L13.823 14.6095L14.6095 13.823L13.823 13.0365L15 11.8595L14.2135 11.073Z" fill="#FB9C12"/>
</svg>
