<svg width="19" height="19" viewBox="0 0 19 19" fill="none" xmlns="http://www.w3.org/2000/svg">
<circle cx="9.5" cy="9.5" r="9.5" fill="black"/>
<path fill-rule="evenodd" clip-rule="evenodd" d="M6.46524 5.62477V6.24955L6.58837 6.24968C6.95922 6.25008 7.34204 6.31959 7.62547 6.43797C7.93678 6.568 8.13731 6.72173 8.57152 7.16322L8.90347 7.50073L8.11315 8.31285L7.32283 9.12497L7.41695 9.16747C7.46872 9.19085 7.58406 9.25429 7.67327 9.30844C7.76248 9.3626 7.87808 9.42445 7.93017 9.44589C8.01718 9.4817 8.04031 9.48535 8.2144 9.49068C8.47543 9.49869 8.54528 9.47884 8.81172 9.32087C9.24308 9.06514 9.52335 8.98764 9.95709 9.00413C10.3318 9.01839 10.5727 9.0964 10.9409 9.32283C11.1902 9.47618 11.2739 9.49949 11.541 9.49016C11.686 9.4851 11.7412 9.47781 11.8009 9.45584C11.8663 9.43176 12.1642 9.26579 12.2278 9.21797C12.2472 9.20339 12.0652 9.0123 10.5919 7.50059C9.48851 6.36843 8.88982 5.76341 8.80156 5.69131C8.38562 5.35159 7.96912 5.16121 7.44172 5.06973C7.21089 5.0297 7.06406 5.01653 6.75254 5.00794L6.46524 5V5.62477ZM11.8893 5.01141C11.8754 5.01475 11.8246 5.02674 11.7765 5.03806C11.5207 5.09819 11.2631 5.27213 11.0969 5.49695C11.0118 5.61205 10.917 5.81673 10.8835 5.95759C10.8444 6.12198 10.8444 6.37711 10.8835 6.54151C10.9904 6.99105 11.3382 7.34824 11.7819 7.46402C11.9266 7.50176 12.2304 7.49905 12.3746 7.45872C12.8083 7.33746 13.1344 6.99674 13.25 6.54394C13.2881 6.3948 13.2879 6.09425 13.2495 5.94921C13.1506 5.57477 12.905 5.27135 12.5733 5.1139C12.4157 5.03906 12.3033 5.01442 12.0977 5.00962C11.9969 5.00727 11.9032 5.00807 11.8893 5.01141ZM6.44393 10.2588C6.11973 10.2883 5.9179 10.3608 5.55464 10.578C5.36878 10.6892 5.24726 10.7347 5.10375 10.747L5.0003 10.7559V11.2536V11.7513H5.05033C5.15656 11.7513 5.36621 11.7211 5.49914 11.6866C5.677 11.6404 5.82924 11.5723 6.04585 11.442C6.29959 11.2893 6.35966 11.2668 6.55364 11.2512C6.67721 11.2413 6.82739 11.2594 6.94084 11.298C6.98364 11.3125 7.08593 11.3656 7.16815 11.4159C7.58807 11.6728 7.82386 11.7436 8.25852 11.7435C8.67887 11.7434 8.90928 11.6745 9.32642 11.4238C9.40325 11.3776 9.50306 11.3246 9.54822 11.3061C9.70247 11.2427 9.94803 11.2315 10.1329 11.2796C10.2212 11.3025 10.3079 11.346 10.5106 11.469C10.858 11.68 11.2114 11.769 11.6103 11.746C11.9674 11.7255 12.2011 11.6471 12.5666 11.4253C12.6473 11.3762 12.7508 11.3217 12.7964 11.304C12.956 11.2423 13.1962 11.2322 13.3785 11.2796C13.4659 11.3023 13.535 11.3372 13.7576 11.4712C13.9409 11.5816 14.1199 11.6578 14.2887 11.6973C14.4054 11.7246 14.6081 11.7513 14.6987 11.7513H14.7497V11.2536V10.7559L14.6481 10.7472C14.4933 10.7339 14.3774 10.6893 14.1533 10.5567C13.7582 10.3228 13.5275 10.2555 13.1206 10.2555C12.7165 10.2555 12.4637 10.3291 12.0855 10.5568C11.9891 10.6148 11.877 10.6762 11.8365 10.6931C11.7329 10.7364 11.5752 10.7573 11.423 10.7481C11.2284 10.7363 11.153 10.7079 10.8947 10.5486C10.5929 10.3627 10.3656 10.2864 10.0304 10.2584C9.78604 10.238 9.50837 10.2681 9.29408 10.3383C9.15375 10.3843 9.04306 10.4378 8.83982 10.5581C8.62944 10.6825 8.54897 10.7172 8.42157 10.7385C8.25106 10.7669 8.02762 10.7452 7.8986 10.6877C7.86387 10.6723 7.75755 10.6127 7.66233 10.5554C7.31011 10.3435 7.07732 10.2712 6.69256 10.2541C6.61962 10.2509 6.50775 10.253 6.44393 10.2588ZM6.35789 12.5177C6.12204 12.5505 5.90096 12.6285 5.67594 12.7584C5.31692 12.9657 5.2782 12.9819 5.10765 12.9954L5.00662 13.0035L5.00331 13.5017L5 14L5.14222 13.9927C5.45362 13.9766 5.6963 13.8967 6.02948 13.7007C6.31117 13.535 6.37349 13.5132 6.5876 13.5058C6.84455 13.497 6.94961 13.5281 7.20825 13.6897C7.4409 13.8351 7.60446 13.9046 7.84327 13.9595C7.95875 13.9861 8.00747 13.9896 8.25221 13.9896C8.56104 13.9896 8.64166 13.9778 8.87304 13.8987C9.01835 13.8491 9.11169 13.803 9.31779 13.6792C9.56389 13.5313 9.65422 13.5031 9.88131 13.5031C10.1084 13.5031 10.2044 13.5331 10.4433 13.6788C10.7154 13.8447 10.8891 13.9186 11.1189 13.966C11.2817 13.9996 11.7299 13.9996 11.883 13.9661C12.1277 13.9125 12.2883 13.8439 12.5801 13.6682C12.8129 13.528 12.8765 13.5095 13.1269 13.5095C13.3896 13.5095 13.4273 13.522 13.74 13.7117C13.9879 13.8621 14.1878 13.9378 14.438 13.976C14.5105 13.9871 14.6104 13.9961 14.6599 13.9961H14.75L14.7467 13.4998L14.7434 13.0035L14.6351 12.995C14.4881 12.9835 14.3769 12.941 14.1709 12.8176C13.9518 12.6864 13.8976 12.6589 13.7609 12.6093C13.5775 12.5429 13.428 12.5164 13.19 12.5081C13.0246 12.5023 12.9427 12.5056 12.8331 12.5222C12.5575 12.564 12.3866 12.6291 12.0882 12.8058C11.8155 12.9672 11.757 12.9873 11.5395 12.9943C11.2751 13.0028 11.1726 12.9728 10.9126 12.8103C10.679 12.6644 10.5087 12.5922 10.2752 12.5404C10.1008 12.5017 9.67702 12.4982 9.50404 12.534C9.25922 12.5848 9.0948 12.6539 8.80787 12.8267C8.56397 12.9736 8.5068 12.9905 8.25221 12.9905C8.00322 12.9905 7.93522 12.9711 7.71769 12.838C7.43674 12.6662 7.26872 12.5932 7.03604 12.5422C6.89454 12.5111 6.50632 12.4971 6.35789 12.5177Z" fill="#D254C7"/>
</svg>
