<svg width="19" height="19" viewBox="0 0 19 19" fill="none" xmlns="http://www.w3.org/2000/svg">
<circle cx="9.5" cy="9.5" r="9.5" fill="black"/>
<path fill-rule="evenodd" clip-rule="evenodd" d="M8.56532 3.04366C8.41214 3.0786 8.41982 3.08413 8.67509 3.12236C10.4534 3.38885 11.9745 4.12989 13.2836 5.36748C13.5241 5.59482 13.7251 5.77587 13.7304 5.76979C13.7358 5.76371 13.8054 5.55128 13.8853 5.29766L14.0306 4.83658L13.8226 4.62239C13.5695 4.3616 12.8726 3.89395 12.3524 3.6359C11.8412 3.38222 11.1981 3.17198 10.6325 3.07356C10.162 2.99169 8.8746 2.97307 8.56532 3.04366ZM6.53455 3.69307C5.97692 3.98941 5.37049 4.42255 5.01115 4.78111C4.83864 4.95323 4.70467 5.10121 4.7134 5.10992C4.72218 5.11868 4.96263 5.09919 5.24776 5.0666C5.95397 4.98593 7.22792 5.04141 7.89017 5.18166C9.45337 5.51267 10.8129 6.27271 11.8928 7.41912L12.3662 7.92171L12.594 7.67504C12.8466 7.40171 13.3874 6.5978 13.477 6.36269C13.5318 6.21887 13.5092 6.18705 12.9897 5.67729C11.9797 4.68631 10.903 4.0824 9.52582 3.73459C8.81319 3.55462 8.25758 3.48573 7.53227 3.48743C6.93044 3.48885 6.9114 3.49279 6.53455 3.69307ZM14.2196 5.62861C13.818 6.8667 13.1259 7.87609 12.1623 8.62939C11.6976 8.9926 10.8642 9.38407 10.2282 9.53768C9.92165 9.61178 9.65222 9.70242 9.62944 9.73922C9.52516 9.90757 9.41583 10.7965 9.41594 11.4751L9.41605 12.2078L9.64931 12.1706C10.3427 12.0601 11.5861 11.5177 12.4896 10.9315C13.1964 10.473 14.0637 9.60231 14.5434 8.86965C14.94 8.26389 15.2975 7.54837 15.4062 7.14272C15.4693 6.90723 15.4641 6.86385 15.3406 6.5967C15.1838 6.25743 14.6356 5.41946 14.4764 5.2757C14.3678 5.17767 14.3644 5.18232 14.2196 5.62861ZM5.29963 5.48309C5.25435 5.49394 4.99929 5.53238 4.73283 5.56864C4.2557 5.63348 4.24583 5.63792 4.08265 5.86092C3.89703 6.11465 3.54258 6.79507 3.37496 7.21934L3.26453 7.49897L3.47249 7.46288C4.50993 7.28314 4.81921 7.25603 5.51917 7.2833C7.02424 7.34201 8.22218 7.83512 9.19129 8.79495L9.65793 9.25712L10.1264 9.13631C10.384 9.06982 10.7556 8.94057 10.9522 8.84906C11.3768 8.65135 11.9957 8.25868 11.9957 8.18699C11.9957 8.15906 11.7741 7.90763 11.5032 7.62827C10.5065 6.60015 9.33685 5.93968 7.93414 5.61289C7.58089 5.53058 7.21437 5.4992 6.42478 5.48375C5.85123 5.47258 5.34491 5.47225 5.29963 5.48309ZM15.4559 8.1221C15.0675 8.95881 14.6295 9.5712 13.8921 10.3087C12.8582 11.3426 11.9327 11.9006 10.4863 12.3621C9.41978 12.7024 9.52126 12.635 9.61237 12.9436C9.72324 13.3194 10.0934 14.0467 10.2995 14.2936C10.4682 14.4956 10.4849 14.5025 10.7216 14.467C11.3842 14.3679 12.6312 13.8191 13.505 13.2421C13.9972 12.917 15.2396 11.68 15.5818 11.1741C15.9667 10.6053 15.9972 10.4854 15.9999 9.52602C16.0018 8.87606 15.9765 8.57211 15.885 8.14318C15.8205 7.84082 15.7525 7.59383 15.7341 7.59432C15.7156 7.59481 15.5904 7.83228 15.4559 8.1221ZM4.48611 8.08141C4.16931 8.78838 4.02689 9.44343 3.99692 10.3317C3.9591 11.4504 4.12431 12.2486 4.61702 13.3278C5.08245 14.3471 5.51341 14.7811 6.58944 15.3138C7.11486 15.5739 7.98013 15.8902 8.03002 15.8404C8.04314 15.8274 7.92135 15.6608 7.75944 15.4702C6.54059 14.0358 6.00721 12.6905 5.9936 11.0163C5.98608 10.0895 6.07588 9.53287 6.37352 8.66138C6.50728 8.2698 6.62292 7.92757 6.63049 7.90084C6.65772 7.80528 6.30206 7.74865 5.48849 7.71902L4.66197 7.68895L4.48611 8.08141ZM3.4884 7.91207L3.13165 8.00419L3.06897 8.36016C3.0345 8.55595 3.0036 9.05229 3.00036 9.46315C2.99388 10.2787 3.07374 10.8234 3.30207 11.5216C3.45059 11.9759 3.85828 12.8835 3.89659 12.8453C3.90927 12.8327 3.85998 12.5932 3.78704 12.3131C3.42995 10.9412 3.48626 9.54754 3.95032 8.27139C4.02831 8.05687 4.09215 7.8659 4.09215 7.84695C4.09215 7.79011 3.86646 7.81448 3.4884 7.91207ZM7.06991 8.04783C7.04236 8.08409 6.96864 8.23694 6.90613 8.38755C6.31748 9.80538 6.2362 11.4973 6.69252 12.8323C7.01843 13.7859 7.70554 14.8558 8.48058 15.6166L8.87109 16L9.59635 15.9896C10.2257 15.9807 11.0781 15.8659 11.166 15.7782C11.1809 15.7632 11.1329 15.7097 11.0593 15.6592C10.8083 15.4872 10.229 14.9054 9.9806 14.5761C9.65178 14.14 9.34003 13.5112 9.16023 12.9212C9.02642 12.4823 9.01319 12.3564 9.00902 11.4818C9.00474 10.5932 9.08026 9.93107 9.23032 9.54081C9.27609 9.42185 8.58064 8.75656 8.09879 8.4583C7.56465 8.12763 7.13846 7.95763 7.06991 8.04783ZM15.0144 12.4858C14.0283 13.5108 12.775 14.285 11.4052 14.7154C10.9171 14.8687 10.8513 14.9034 10.9112 14.9754C11.0509 15.1436 11.6859 15.5893 11.7857 15.5893C11.9351 15.5893 12.6094 15.2416 13.1483 14.8868C14.0091 14.32 14.9705 13.2193 15.3754 12.3369C15.4547 12.164 15.5109 12.0176 15.5003 12.0117C15.4896 12.0058 15.271 12.2192 15.0144 12.4858Z" fill="#FF8585"/>
</svg>
