<svg width="19" height="19" viewBox="0 0 19 19" fill="none" xmlns="http://www.w3.org/2000/svg">
<circle cx="9.5" cy="9.5" r="9.5" fill="black"/>
<path d="M14.4487 6.125C13.9987 5.375 13.1737 5 12.2737 5H7.77369C6.87369 5 6.04869 5.375 5.59869 6.125C3.87369 8.75 3.49869 12.725 4.69869 13.55C5.89869 14.375 8.59869 10.775 10.0237 10.775C11.4487 10.775 14.0737 14.375 15.3487 13.55C16.5487 12.725 16.1737 8.75 14.4487 6.125ZM8.52369 8.75H7.77369V9.5H7.02369V8.75H6.27369V8H7.02369V7.25H7.77369V8H8.52369V8.75ZM12.5737 9.125C12.5737 9.5 12.2737 9.8 11.8987 9.8C11.5237 9.8 11.2237 9.5 11.2237 9.125C11.2237 8.75 11.5237 8.45 11.8987 8.45C12.2737 8.45 12.5737 8.75 12.5737 9.125ZM13.9987 7.625C13.9987 8 13.6987 8.3 13.3237 8.3C12.9487 8.3 12.6487 8 12.6487 7.625C12.6487 7.25 12.9487 6.95 13.3237 6.95C13.6987 6.95 13.9987 7.25 13.9987 7.625Z" fill="#EBFF00"/>
</svg>
