<svg width="19" height="19" viewBox="0 0 19 19" fill="none" xmlns="http://www.w3.org/2000/svg">
<circle cx="9.5" cy="9.5" r="9.5" fill="black"/>
<path fill-rule="evenodd" clip-rule="evenodd" d="M10.3975 4.30625C9.53253 6.26498 8.97012 8.05202 8.22346 11.2139C7.90195 12.5758 7.90085 12.5782 7.81083 12.2125C7.76124 12.0108 7.41438 10.5258 7.04009 8.9125C6.66571 7.29917 6.35199 5.94818 6.34293 5.91023C6.33387 5.87237 6.33756 7.56363 6.35124 9.66857L6.37607 13.4958L6.09206 12.9458C5.8359 12.4497 5.22517 11.8 5.01507 11.8C4.97018 11.8 5.029 11.9369 5.14579 12.1042C5.42628 12.5059 5.61322 13.1038 5.61322 13.5991V14L9.36791 13.9994L13.1226 13.999L13.5585 12.0515C14.0073 10.0463 14.5549 8.10785 14.8527 7.47003C15.189 6.7499 14.9319 7.0458 14.2608 8.1513C13.4686 9.45636 12.6127 11.2502 12.2793 12.3042C12.1517 12.7075 12.0209 13.0708 11.9887 13.1114C11.9565 13.1521 11.9042 12.9046 11.8725 12.5614C11.803 11.8095 11.5371 10.3519 11.3655 9.78333C11.249 9.39732 11.2433 9.48853 11.2763 11.2042L11.3115 13.0375L11.1842 12.3042C11.1141 11.9008 11.0119 10.9538 10.957 10.1998L10.8572 8.82872L10.1865 11.1394C9.81755 12.4102 9.48126 13.45 9.43931 13.45C9.3346 13.45 9.44628 10.5159 9.60401 9.12407C9.80773 7.32657 10.3241 5.02125 10.8475 3.57292C10.9613 3.25786 11.0364 3 11.0144 3C10.9924 3 10.7147 3.58777 10.3975 4.30625Z" fill="#64FAFF"/>
</svg>
