<svg width="19" height="19" viewBox="0 0 19 19" fill="none" xmlns="http://www.w3.org/2000/svg">
<circle cx="9.5" cy="9.5" r="9.5" fill="black"/>
<path fill-rule="evenodd" clip-rule="evenodd" d="M6.83105 3.64856L4.32551 5.32458L6.84671 5.34093C8.2334 5.34995 10.5025 5.34995 11.8891 5.34093L14.4103 5.32458L11.9462 3.67625C10.591 2.76962 9.4494 2.01545 9.40937 2.00023C9.36935 1.98501 8.2091 2.72677 6.83105 3.64856ZM4.67692 6.06972C4.36623 6.24192 4.36141 6.2842 4.35903 8.87524L4.35683 11.2984L3.69869 12.426C3.3367 13.0462 3.02445 13.5955 3.00478 13.6467C2.98518 13.6979 3.02765 13.7983 3.09924 13.8699C3.22922 13.9999 3.23667 14 9.36791 14C15.4991 14 15.5066 13.9999 15.6366 13.8699C15.7082 13.7983 15.7506 13.6979 15.731 13.6467C15.7114 13.5955 15.3991 13.0462 15.0371 12.426L14.379 11.2984V8.88776C14.379 6.27305 14.3713 6.20978 14.0362 6.05713C13.7849 5.94257 4.88469 5.95453 4.67692 6.06972ZM5.91797 7.54342L5.73488 7.72651V9.86104V11.9956H6.36126H6.98765V9.92537C6.98765 7.724 6.96992 7.58113 6.6779 7.42484C6.43925 7.29712 6.11347 7.34792 5.91797 7.54342ZM8.92462 7.54342L8.74152 7.72651V9.86104V11.9956H9.36791H9.99429V9.86104V7.72651L9.8112 7.54342C9.55338 7.2856 9.18244 7.2856 8.92462 7.54342ZM11.9313 7.54342L11.7482 7.72651V9.86104V11.9956H12.3746H13.0009V9.86104V7.72651L12.8178 7.54342C12.56 7.2856 12.1891 7.2856 11.9313 7.54342Z" fill="#8B9CC1"/>
</svg>
