<svg width="19" height="19" viewBox="0 0 19 19" fill="none" xmlns="http://www.w3.org/2000/svg">
<circle cx="9.5" cy="9.5" r="9.5" fill="black"/>
<path fill-rule="evenodd" clip-rule="evenodd" d="M4 6.39945V6.7989L4.76651 6.81632C5.52001 6.83343 5.53991 6.83703 5.93646 7.02734C7.20096 7.63405 7.89265 8.90248 7.63489 10.1419C7.4719 10.9255 7.04997 11.5454 6.37888 11.9873C5.78547 12.3781 5.50931 12.4549 4.69723 12.4549H4V12.8583V13.2617H6.95847H9.91695V12.3277V11.3937L9.67473 11.3605C9.18572 11.2935 8.66401 10.9112 8.42921 10.4479C7.88975 9.38326 8.5333 8.08325 9.68834 7.90434L9.91695 7.86889V6.93445V6H6.95847H4V6.39945ZM10.0245 6.93402V7.86803L10.2663 7.90117C10.7917 7.97319 11.3572 8.41186 11.5945 8.93158C11.7774 9.33216 11.7695 9.95306 11.5763 10.3654C11.3274 10.8962 10.8146 11.2854 10.2643 11.3608L10.0245 11.3937V12.3277V13.2617H13.0123H16L15.9842 12.8717L15.9684 12.4817L15.1839 12.4549L14.3996 12.428L13.9341 12.1971C12.37 11.4214 11.8024 9.56534 12.704 8.17464C12.9971 7.72253 13.5027 7.27639 13.9934 7.03686C14.4049 6.83596 14.415 6.83407 15.1708 6.81557L15.933 6.79696L15.9507 6.42064C15.9604 6.21371 15.9583 6.03437 15.9459 6.02216C15.9336 6.01 14.5963 6 12.974 6H10.0245V6.93402ZM4 7.71624V8.52815H5.29404C6.05974 8.52815 6.68441 8.55241 6.82394 8.58753C6.95363 8.62019 7.15798 8.73099 7.27804 8.83379C7.55291 9.06901 7.55743 8.98736 7.29821 8.4692C7.02905 7.93124 6.52508 7.43653 5.95765 7.15327L5.53303 6.94133L4.76651 6.92283L4 6.90432V7.71624ZM14.3786 6.99243C13.4379 7.33906 12.7366 8.04285 12.4734 8.90468L12.4323 9.03916L12.5866 8.89737C12.9471 8.56618 12.9936 8.55736 14.5429 8.52815L15.9684 8.50126V7.70779V6.91433L15.2691 6.9182C14.8353 6.92057 14.4973 6.94876 14.3786 6.99243ZM9.54041 8.04054C9.09057 8.17787 8.64276 8.56134 8.4815 8.94723C8.28102 9.42699 8.30662 10.031 8.5447 10.4377C8.79305 10.8621 9.26823 11.1986 9.70098 11.2567L9.91695 11.2856V9.63795V7.99025L9.79592 7.99487C9.72938 7.9974 9.61438 8.01795 9.54041 8.04054ZM10.0245 9.63128V11.2861L10.2667 11.2529C10.7615 11.1851 11.2348 10.8234 11.4775 10.3279C11.6719 9.93111 11.6655 9.3079 11.4632 8.92152C11.2035 8.42546 10.7604 8.09261 10.2531 8.01257L10.0245 7.97648V9.63128ZM4.03588 8.67161C4.01614 8.6913 4 9.127 4 9.63984V10.5722L5.00857 10.5716L6.01714 10.571L5.84082 10.4321C5.6043 10.2457 5.45234 9.9324 5.45234 9.63128C5.45234 9.30542 5.55519 9.07482 5.79396 8.86515C5.90192 8.77037 5.99025 8.67995 5.99025 8.66429C5.99025 8.62228 4.078 8.62944 4.03588 8.67161ZM14.1219 8.81055C14.3891 9.04696 14.5099 9.30467 14.5069 9.63225C14.5039 9.95623 14.3998 10.1751 14.1404 10.4029L13.9475 10.5722H14.9445H15.9415L15.9479 9.75188C15.9514 9.30069 15.9575 8.87106 15.9613 8.7971L15.9684 8.66263L14.9464 8.64918L13.9243 8.63578L14.1219 8.81055ZM6.02306 8.81674C5.51598 9.12366 5.40339 9.81901 5.79214 10.2431C5.93005 10.3936 6.28846 10.5693 6.46091 10.571C6.58183 10.5722 6.58194 10.5715 6.58194 9.63085V8.68952L6.40712 8.68979C6.31094 8.68995 6.13812 8.74708 6.02306 8.81674ZM6.68952 9.63446V10.5794L6.81055 10.5421C7.3456 10.377 7.65554 9.86979 7.52914 9.3661C7.46109 9.09499 7.00785 8.68952 6.7729 8.68952C6.70076 8.68952 6.68952 8.8169 6.68952 9.63446ZM12.9562 8.77424C12.7137 8.9007 12.6015 9.01684 12.4925 9.25432C12.3633 9.53554 12.3662 9.73327 12.5035 10.0169C12.6242 10.2662 12.833 10.4445 13.0908 10.5185L13.252 10.5647V9.62709C13.252 8.61072 13.2547 8.61863 12.9562 8.77424ZM13.3595 9.63085C13.3595 10.5715 13.3596 10.5722 13.4806 10.571C13.6775 10.5691 14.0257 10.3849 14.1806 10.2009C14.5759 9.73112 14.4423 9.07509 13.8945 8.7956C13.7801 8.73723 13.613 8.68952 13.5231 8.68952H13.3595V9.63085ZM7.30085 10.387C7.03007 10.6511 6.83927 10.6798 5.35197 10.6798H4V11.5175V12.3552L4.76969 12.3378L5.53943 12.3204L5.9598 12.1124C6.53288 11.8289 7.0327 11.3338 7.30483 10.7801C7.54554 10.2902 7.54414 10.1497 7.30085 10.387ZM12.4682 10.3284C12.6523 11.0897 13.3804 11.8757 14.216 12.2153C14.503 12.3319 14.6219 12.3473 15.2384 12.3473H15.9361L15.9522 11.5358C15.9611 11.0894 15.9583 10.7142 15.9459 10.702C15.9336 10.6898 15.3043 10.6792 14.5474 10.6786C13.0312 10.6773 12.8844 10.6506 12.5716 10.3192L12.4296 10.1688L12.4682 10.3284Z" fill="#7171FF"/>
</svg>
