<svg width="19" height="19" viewBox="0 0 19 19" fill="none" xmlns="http://www.w3.org/2000/svg">
<circle cx="9.5" cy="9.5" r="9.5" fill="black"/>
<path d="M7 15V5H10.7692C11.6667 5 12.4295 5.32407 13.0577 5.97222C13.6859 6.62037 14 7.40741 14 8.33333C14 9.25926 13.6859 10.0463 13.0577 10.6944C12.4295 11.3426 11.6667 11.6667 10.7692 11.6667H9.15385V15H7ZM9.15385 9.44444H10.8769C11.1731 9.44444 11.4267 9.33574 11.6378 9.11833C11.8488 8.90093 11.9542 8.63926 11.9538 8.33333C11.9535 8.02741 11.8481 7.76593 11.6378 7.54889C11.4274 7.33185 11.1738 7.22296 10.8769 7.22222H9.15385V9.44444Z" fill="#DDCB2B"/>
</svg>
