<svg width="19" height="19" viewBox="0 0 19 19" fill="none" xmlns="http://www.w3.org/2000/svg">
<circle cx="9.5" cy="9.5" r="9.5" fill="black"/>
<path fill-rule="evenodd" clip-rule="evenodd" d="M11.2142 4.21301C9.78655 4.88996 8.28441 5.387 6.73717 5.69431C5.92472 5.85568 5.52703 5.91335 4.3577 6.03926C4.09337 6.06768 4 6.10283 4 6.17375C4 6.25331 4.05611 6.26277 4.32722 6.22887L4.65443 6.188L4.80236 6.76603C4.88367 7.08398 4.97667 7.37207 5.00902 7.40628C5.04734 7.44684 5.1302 7.39446 5.24715 7.25568C5.42532 7.04429 5.42824 7.04336 5.67782 7.12572C5.81598 7.17138 5.94855 7.18924 5.97231 7.16541C6.0084 7.12933 5.94768 6.84915 5.75994 6.18526C5.73698 6.10408 5.80815 6.07042 6.11832 6.0158C6.33126 5.97829 6.52647 5.96062 6.55222 5.97655C6.57797 5.99247 6.64721 6.20193 6.70606 6.44205C6.76491 6.68218 6.84031 6.89549 6.87365 6.91608C6.90699 6.93667 7.01188 6.86065 7.10668 6.74706C7.27844 6.54128 7.27987 6.5409 7.53716 6.62582C7.67919 6.67266 7.81268 6.69362 7.83396 6.67241C7.85517 6.65114 7.81623 6.42638 7.7473 6.17294L7.62202 5.7121L7.99209 5.60921C8.19564 5.5526 8.38656 5.52137 8.41635 5.53978C8.44615 5.5582 8.50513 5.72784 8.54743 5.9167C8.58967 6.10563 8.65716 6.30513 8.69735 6.36013C8.76155 6.4479 8.79172 6.43328 8.94593 6.24006L9.12142 6.02009L9.38898 6.11926C9.5361 6.17381 9.67259 6.2023 9.69225 6.18265C9.7119 6.16299 9.67091 5.94097 9.60117 5.68921C9.53144 5.43745 9.47433 5.21338 9.47433 5.19117C9.47433 5.1442 10.2152 4.85848 10.2448 4.89406C10.2557 4.90719 10.3236 5.13842 10.3956 5.40778C10.4677 5.6772 10.5444 5.91515 10.5661 5.93655C10.5879 5.95801 10.694 5.8721 10.802 5.74576C10.9963 5.51857 11.0007 5.51702 11.2078 5.60579C11.3229 5.65518 11.4419 5.69555 11.4722 5.69555C11.5607 5.69555 11.5353 5.44529 11.4028 5.01126C11.2334 4.45649 11.2407 4.41089 11.523 4.26694C11.6575 4.19826 11.7839 4.11565 11.8039 4.0833C11.8928 3.93954 11.7028 3.98128 11.2142 4.21301ZM14.2955 6.16541C13.536 6.53549 12.0306 7.02103 11.1229 7.18862C10.2117 7.35683 10.2208 7.35428 10.2208 7.44404C10.2208 7.49617 10.3329 7.50532 10.6167 7.4762L11.0127 7.43564L11.1176 7.80977C11.1754 8.01555 11.2471 8.18389 11.2771 8.18389C11.307 8.18389 11.3864 8.11421 11.4533 8.02911C11.563 7.88964 11.5945 7.88112 11.7721 7.94295C11.8804 7.98078 11.9857 7.99502 12.006 7.97468C12.0263 7.95434 11.9986 7.78165 11.9443 7.59085C11.8705 7.33151 11.8643 7.23838 11.9197 7.22177C11.9604 7.20952 12.0842 7.1707 12.1946 7.13555C12.4118 7.06631 12.4231 7.07384 12.4833 7.32578C12.5054 7.41835 12.5523 7.56964 12.5874 7.66196L12.6512 7.82986L12.8259 7.66252C12.9774 7.51732 13.0231 7.50376 13.1711 7.56006C13.4204 7.6548 13.4594 7.59365 13.3596 7.26476C13.3105 7.10308 13.2701 6.93443 13.2697 6.88989C13.2691 6.81717 13.6191 6.62868 13.7548 6.62868C13.7846 6.62868 13.8454 6.78034 13.8899 6.96566C14.0093 7.4632 14.0521 7.50339 14.2309 7.28566C14.3688 7.11788 14.3949 7.10918 14.5499 7.17978C14.8102 7.29841 14.8437 7.19509 14.7059 6.69792L14.5819 6.25033L14.7964 6.14806C15.0028 6.04958 15.0935 5.87664 14.9331 5.8874C14.8904 5.89027 14.6034 6.01537 14.2955 6.16541ZM9.34991 8.8609C9.34991 9.48429 9.34009 9.54052 9.22624 9.57032C9.15825 9.58811 9.07427 9.67713 9.03962 9.76821C8.95719 9.98513 8.95825 11.1436 9.04105 11.2984C9.10307 11.4142 9.07769 11.4187 8.35676 11.4187H7.60808L7.6087 11.1543C7.60933 10.9048 7.62338 10.884 7.85934 10.7849C8.05635 10.7022 8.13629 10.619 8.23663 10.3922C8.35122 10.1331 8.3557 10.0787 8.28149 9.84578L8.19906 9.58718L7.52472 9.58432C6.76037 9.58108 6.73698 9.59527 6.73741 10.0616C6.73773 10.4136 6.91695 10.7014 7.19944 10.8035C7.40709 10.8786 7.42146 10.9011 7.42146 11.1513V11.4187H7.09318C6.6744 11.4187 6.48833 11.5403 6.48833 11.8142C6.48833 11.9252 6.52192 12.0495 6.56298 12.0906C6.61897 12.1466 7.38059 12.1652 9.60764 12.1652H12.5777L12.6745 12.0269C12.8048 11.8409 12.7964 11.6926 12.647 11.5431C12.5447 11.4409 12.4396 11.4187 12.056 11.4187H11.5894V11.1513C11.5894 10.9026 11.6045 10.8784 11.8053 10.8058C12.2145 10.6578 12.4178 10.2068 12.273 9.76821C12.2059 9.56485 12.1785 9.5432 12.018 9.56671C11.8784 9.58724 11.8382 9.56889 11.8382 9.48447C11.8382 9.40939 11.9341 9.34401 12.1485 9.27278C12.7062 9.08752 12.616 8.93132 12.0507 9.10339C11.728 9.20161 11.6842 9.23527 11.6359 9.42158L11.5819 9.62992L11.2121 9.58805C10.854 9.54755 10.8402 9.55141 10.7803 9.70892C10.6577 10.0317 10.7045 10.341 10.912 10.5773C11.0185 10.6985 11.1725 10.8146 11.2542 10.835C11.3826 10.8672 11.4028 10.9094 11.4028 11.1455V11.4187L10.734 11.4188L10.0653 11.4189L10.0842 10.5861C10.1029 9.75732 10.1022 9.75265 9.94419 9.62836C9.79172 9.50849 9.78537 9.47701 9.78537 8.84367V8.18389H9.56764H9.34991V8.8609ZM4.10886 9.61965C3.97798 9.69592 3.96572 9.94426 4.08784 10.0456C4.35596 10.2681 4.36927 11.4086 4.11509 12.3776C3.91869 13.1266 3.86588 13.0983 5.4619 13.0983C6.81922 13.0983 6.9544 13.069 6.91415 12.7838L6.89269 12.6318L5.72255 12.6149C4.64777 12.5993 4.5549 12.5892 4.58351 12.4904C4.73555 11.966 4.76771 11.7303 4.77232 11.1077C4.7781 10.3289 4.71173 10.0418 4.45568 9.73754C4.28417 9.53368 4.26669 9.52777 4.10886 9.61965ZM14.8625 9.74189C14.7749 9.84609 14.6685 10.0491 14.6264 10.1929C14.4861 10.6708 14.5552 12.0269 14.7449 12.5213C14.7689 12.5838 14.539 12.6007 13.6614 12.6007C12.5115 12.6007 12.3981 12.6239 12.3981 12.8598C12.3981 13.0638 12.6118 13.0983 13.8751 13.0983C15.2532 13.0983 15.3634 13.0716 15.3074 12.7508C15.2899 12.6511 15.2247 12.3876 15.1624 12.1652C15.0859 11.892 15.048 11.539 15.0456 11.0766C15.0424 10.4748 15.0588 10.3637 15.1819 10.1555C15.3388 9.89014 15.3576 9.73748 15.2473 9.62712C15.1296 9.50948 15.0341 9.53797 14.8625 9.74189ZM9.19097 12.4316C9.17418 12.4754 9.16802 13.0284 9.17741 13.6602L9.19439 14.8091L9.6143 14.8275L10.0342 14.8458V13.5989V12.3518H9.62792C9.35483 12.3518 9.21156 12.378 9.19097 12.4316ZM4.52703 13.3005C4.35857 13.7536 4.06221 14.7018 4.06221 14.788C4.06221 14.9192 4.2637 15.041 4.39645 14.9901C4.45126 14.9691 4.60075 14.6229 4.75229 14.1661C4.89605 13.7328 5.0265 13.3433 5.04224 13.3005C5.06221 13.2462 4.99316 13.2228 4.81344 13.2228C4.66438 13.2228 4.54376 13.2555 4.52703 13.3005ZM5.94227 13.2965C5.95882 13.3415 6.07776 13.7002 6.20653 14.0937C6.47178 14.9043 6.58787 15.0778 6.79178 14.9686C6.96995 14.8733 6.96136 14.793 6.68535 13.9672L6.44684 13.2539L6.17947 13.2343C5.97909 13.2197 5.91962 13.2353 5.94227 13.2965ZM12.8629 13.3005C12.6945 13.7536 12.3981 14.7018 12.3981 14.788C12.3981 14.9192 12.5996 15.041 12.7324 14.9901C12.7872 14.9691 12.9367 14.6229 13.0882 14.1661C13.232 13.7328 13.3624 13.3433 13.3782 13.3005C13.3981 13.2462 13.3291 13.2228 13.1493 13.2228C13.0003 13.2228 12.8797 13.2555 12.8629 13.3005ZM14.2782 13.2965C14.2947 13.3415 14.4137 13.7002 14.5424 14.0937C14.8077 14.9043 14.9238 15.0778 15.1277 14.9686C15.3059 14.8733 15.2973 14.793 15.0213 13.9672L14.7828 13.2539L14.5154 13.2343C14.315 13.2197 14.2555 13.2353 14.2782 13.2965Z" fill="#4DE78D"/>
</svg>
