<svg width="19" height="19" viewBox="0 0 19 19" fill="none" xmlns="http://www.w3.org/2000/svg">
<circle cx="9.5" cy="9.5" r="9.5" fill="black"/>
<path fill-rule="evenodd" clip-rule="evenodd" d="M9.383 4.08462C9.33822 4.13118 8.94162 4.75554 8.50163 5.47216C7.86288 6.51255 7.71173 6.79265 7.75145 6.86227C7.79287 6.9348 7.86866 6.94945 8.20181 6.94945C8.44458 6.94945 8.62678 6.97232 8.66429 7.00747C8.70984 7.05017 8.72619 7.46923 8.72619 8.59229V10.1191L8.92331 10.365C9.03169 10.5002 9.18841 10.7117 9.27152 10.835C9.35721 10.9622 9.46167 11.0592 9.5129 11.0592C9.56258 11.0593 9.60364 11.043 9.60421 11.0231C9.60477 11.0032 9.75546 10.791 9.93906 10.5516L10.2729 10.1165L10.2733 8.59099C10.2737 7.46947 10.2902 7.05012 10.3357 7.00747C10.3732 6.97232 10.5554 6.94945 10.7982 6.94945C11.4253 6.94945 11.4336 6.99036 10.4982 5.471C9.72977 4.22271 9.57862 4 9.5 4C9.4804 4 9.42778 4.03805 9.383 4.08462ZM4.47921 7.70161C3.21244 7.76253 3 7.79415 3 7.92175C3 7.94472 3.41069 8.56314 3.91263 9.296C4.65889 10.3856 4.84419 10.6259 4.92921 10.6143C4.99545 10.6052 5.09996 10.489 5.21769 10.2935C5.31916 10.1249 5.43951 9.96746 5.48506 9.94353C5.54697 9.91109 5.67707 9.97293 5.99923 10.188C7.06673 10.9006 7.9401 11.9972 8.36833 13.1626C8.44654 13.3754 8.52103 13.5168 8.53392 13.4769C8.54682 13.437 8.63204 13.1651 8.7233 12.8725C8.81456 12.58 8.97819 12.1622 9.08694 11.944L9.28467 11.5474L9.10825 11.2728C8.46439 10.2705 7.62913 9.47582 6.36607 8.66352C6.2141 8.5658 6.21925 8.50265 6.40775 8.15268C6.49452 7.99157 6.55839 7.81267 6.54962 7.75513C6.53517 7.66003 6.50097 7.64997 6.17262 7.64402C5.97401 7.64044 5.21196 7.66636 4.47921 7.70161ZM12.4749 7.65862C12.4064 7.72274 12.4434 7.8764 12.5952 8.15824C12.7806 8.50246 12.7855 8.56604 12.6339 8.66352C10.8434 9.81501 9.80065 11.0428 9.17098 12.7406C8.95715 13.3173 8.78593 14.1191 8.76596 14.6374L8.75198 15H9.49938H10.2467L10.3092 14.5165C10.4975 13.06 11.1474 11.7991 12.2195 10.8097C12.7519 10.3184 13.4012 9.88386 13.5143 9.94319C13.5602 9.96732 13.6808 10.1249 13.7823 10.2935C13.9 10.489 14.0046 10.6052 14.0708 10.6143C14.1558 10.6259 14.3411 10.3856 15.0874 9.296C15.5893 8.56314 16 7.94472 16 7.92175C16 7.79517 15.7799 7.76553 14.3424 7.69856C12.5915 7.61704 12.5208 7.61549 12.4749 7.65862Z" fill="#DA7272"/>
</svg>
