<svg width="19" height="19" viewBox="0 0 19 19" fill="none" xmlns="http://www.w3.org/2000/svg">
<circle cx="9.5" cy="9.5" r="9.5" fill="black"/>
<g clip-path="url(#clip0_2047_609)">
<path d="M8.14583 14.375C7.75908 14.375 7.43679 14.2461 7.17896 13.9882C6.92076 13.7297 6.79167 13.4072 6.79167 13.0208C6.79167 12.8562 6.7839 12.7182 6.76837 12.607C6.75285 12.4958 6.71403 12.4095 6.65192 12.3481C6.59053 12.286 6.50422 12.2437 6.393 12.2213C6.28178 12.1989 6.14383 12.1876 5.97917 12.1872C5.59242 12.1872 5.27012 12.0617 5.01229 11.8108C4.7541 11.5598 4.625 11.2409 4.625 10.8542C4.625 10.4674 4.7541 10.1451 5.01229 9.88729C5.27049 9.62946 5.59278 9.50036 5.97917 9.5C6.12433 9.5 6.26192 9.51842 6.39192 9.55525C6.52192 9.59208 6.63224 9.64733 6.72288 9.721C6.82038 9.79719 6.93322 9.83529 7.06142 9.83529C7.18961 9.83529 7.29903 9.79015 7.38967 9.69988L9.65817 7.43138C9.74844 7.3411 9.80063 7.22644 9.81471 7.08742C9.82879 6.94839 9.79756 6.82688 9.721 6.72288C9.65419 6.62501 9.60057 6.51289 9.56013 6.3865C9.51968 6.26011 9.49964 6.12433 9.5 5.97917C9.5 5.59242 9.6291 5.27012 9.88729 5.01229C10.1451 4.7541 10.4674 4.625 10.8542 4.625C11.2409 4.625 11.5634 4.7541 11.8216 5.01229C12.0798 5.27049 12.2087 5.59278 12.2083 5.97917C12.2083 6.14383 12.2161 6.28178 12.2316 6.393C12.2472 6.50422 12.286 6.59053 12.3481 6.65192C12.4095 6.71403 12.496 6.75285 12.6075 6.76837C12.7191 6.7839 12.8569 6.79167 13.0208 6.79167C13.4076 6.79167 13.7301 6.92076 13.9882 7.17896C14.2461 7.43679 14.375 7.75908 14.375 8.14583C14.375 8.53258 14.2461 8.85506 13.9882 9.11325C13.7304 9.37144 13.4079 9.50036 13.0208 9.5C12.8757 9.5 12.7399 9.47996 12.6135 9.43988C12.4871 9.39979 12.375 9.34617 12.2771 9.279C12.1731 9.20967 12.055 9.18024 11.9229 9.19071C11.7911 9.20118 11.68 9.25156 11.5898 9.34183L9.34183 11.5898C9.25156 11.68 9.19938 11.7858 9.18529 11.9072C9.17121 12.0285 9.19558 12.145 9.25842 12.2565C9.318 12.354 9.37325 12.4696 9.42417 12.6032C9.47472 12.7365 9.5 12.8757 9.5 13.0208C9.5 13.4076 9.37108 13.7301 9.11325 13.9882C8.85469 14.2461 8.53222 14.375 8.14583 14.375Z" fill="#DA7272"/>
</g>
<defs>
<clipPath id="clip0_2047_609">
<rect width="12" height="12" fill="white" transform="translate(4 4)"/>
</clipPath>
</defs>
</svg>
