<svg width="19" height="19" viewBox="0 0 19 19" fill="none" xmlns="http://www.w3.org/2000/svg">
<circle cx="9.5" cy="9.5" r="9.5" fill="black"/>
<path d="M11.7889 14.2222C11.285 14.2222 10.8782 13.7122 10.8782 13.0808C10.8782 12.4554 11.285 11.9454 11.7889 11.9454C12.2929 11.9454 12.6996 12.4554 12.6996 13.0808C12.6996 13.7122 12.2929 14.2222 11.7889 14.2222ZM9.51215 9.43793C8.75929 9.43793 8.14607 8.92793 8.14607 8.30257C8.14607 7.67115 8.75929 7.16115 9.51215 7.16115C10.265 7.16115 10.8782 7.67115 10.8782 8.30257C10.8782 8.92793 10.265 9.43793 9.51215 9.43793ZM7.23536 14.2222C6.73143 14.2222 6.32465 13.7122 6.32465 13.0808C6.32465 12.4554 6.73143 11.9454 7.23536 11.9454C7.73929 11.9454 8.14607 12.4554 8.14607 13.0808C8.14607 13.7122 7.73929 14.2222 7.23536 14.2222ZM9.51215 7.6165C9.76107 7.6165 9.9675 7.82293 9.9675 8.07186C9.9675 8.32079 9.76107 8.52722 9.51215 8.52722C9.26322 8.52722 9.05679 8.32079 9.05679 8.07186C9.05679 7.82293 9.26322 7.6165 9.51215 7.6165ZM13.6104 9.89329C13.4161 9.89329 13.2279 9.93579 13.0579 10.0147C12.7664 9.64436 12.3718 9.32865 11.8982 9.08579C12.2443 8.60007 12.4507 8.01115 12.4507 7.37365V7.33722C13.1125 7.19757 13.6104 6.60865 13.6104 5.89829C13.6104 5.09079 12.9486 4.429 12.1411 4.429C11.7221 4.429 11.3336 4.60507 11.0786 4.88436C10.6103 4.58676 10.067 4.42871 9.51215 4.42871C8.95732 4.42871 8.41398 4.58676 7.94572 4.88436C7.69072 4.60507 7.30215 4.429 6.88322 4.429C6.07572 4.429 5.41393 5.09079 5.41393 5.89829C5.41393 6.60257 5.91179 7.1915 6.5675 7.33722V7.37365C6.5675 8.01115 6.78 8.60615 7.12 9.08579C6.6525 9.32865 6.25786 9.64436 5.96643 10.0147C5.75895 9.92125 5.53133 9.88135 5.30443 9.89865C5.07752 9.91596 4.85859 9.98992 4.66768 10.1138C4.47677 10.2376 4.32 10.4074 4.21171 10.6075C4.10342 10.8077 4.04708 11.0318 4.04786 11.2594C4.04786 12.0183 4.655 12.6254 5.41393 12.6254H5.45036C5.42607 12.7711 5.41393 12.929 5.41393 13.0808C5.41393 14.3376 6.2275 15.3576 7.23536 15.3576C7.84857 15.3576 8.38893 14.9751 8.72286 14.3922C8.97786 14.4286 9.23893 14.4469 9.51215 14.4469C9.78536 14.4469 10.0464 14.4286 10.3014 14.3922C10.6354 14.9751 11.1757 15.3576 11.7889 15.3576C12.7968 15.3576 13.6104 14.3376 13.6104 13.0808C13.6104 12.929 13.5982 12.7711 13.5739 12.6254H13.6104C14.3693 12.6254 14.9764 12.0183 14.9764 11.2594C14.9764 10.5004 14.3693 9.89329 13.6104 9.89329Z" fill="#70FF00"/>
</svg>
