<svg width="19" height="19" viewBox="0 0 19 19" fill="none" xmlns="http://www.w3.org/2000/svg">
<circle cx="9.5" cy="9.5" r="9.5" fill="black"/>
<path fill-rule="evenodd" clip-rule="evenodd" d="M7.53077 4.45097L7.15526 4.90192L6.88294 4.90213L6.61062 4.90234L6.56 5.0085C6.52515 5.08156 6.50938 5.19217 6.50938 5.36338C6.50938 5.59574 6.50395 5.61722 6.42677 5.69013C6.36453 5.74895 6.27011 5.78401 6.04375 5.83241C5.17445 6.01824 4.8124 6.12996 4.12113 6.42565C3.27965 6.7856 2.81762 7.06084 2.51902 7.38008C2.31116 7.60227 2.20605 7.76948 2.09601 8.05303L2.01887 8.2519L2.00943 9.67176L2 11.0916L2.14047 11.301C2.42472 11.7247 2.93136 12.1983 3.29816 12.3834C3.46795 12.469 3.46128 12.4587 3.40351 12.5468C3.36921 12.5992 3.32664 12.6229 3.26674 12.6229C3.08544 12.6229 3.08472 12.6245 3.08472 13.0466V13.434H9.69372H16.3027V13.0469C16.3027 12.671 16.3008 12.6594 16.2351 12.6418C16.1979 12.6318 16.1374 12.6235 16.1006 12.6233C16.0625 12.623 16.0123 12.5901 15.9839 12.5468C15.926 12.4585 15.9191 12.469 16.0924 12.3826C16.4548 12.2018 16.8951 11.7905 17.2284 11.3215L17.4142 11.06V9.70678C17.4142 8.81226 17.4041 8.35978 17.3842 8.37207C17.3672 8.38255 17.3542 8.35783 17.3542 8.31514C17.3542 8.27359 17.3227 8.15289 17.2842 8.0469C17.0515 7.40571 16.5658 6.99589 15.46 6.50746C14.7068 6.17484 14.1675 6.00307 13.3446 5.83379C13.1125 5.78602 13.0264 5.75418 12.9616 5.69215C12.8834 5.61719 12.8781 5.59616 12.8781 5.36338C12.8781 5.19217 12.8623 5.08156 12.8274 5.0085L12.7768 4.90234H12.5034H12.2299L11.8562 4.45115L11.4825 4L10.8209 4.00805L10.1594 4.01613L10.1525 4.76716C10.1456 5.51481 10.146 5.51926 10.2276 5.75851L10.3096 5.99883L10.7861 6.01385L11.2627 6.02887L11.6585 6.77948L12.0544 7.53008L12.7741 7.71102C13.5583 7.90814 13.6752 7.94648 14.0346 8.12438C14.6057 8.40709 15.0557 8.78486 15.289 9.17749L15.4123 9.38508L15.3393 9.44185C15.2991 9.47307 15.1176 9.57262 14.9359 9.66308C14.6125 9.82397 14.1782 9.96198 13.7424 10.0423C13.4913 10.0885 13.4801 10.0958 13.4493 10.2326C13.4254 10.3386 13.4527 10.4004 13.9641 11.3967C14.2611 11.9754 14.4998 12.4523 14.4947 12.4565C14.4895 12.4608 13.4029 12.353 12.08 12.2171L9.67473 11.97L7.28846 12.2163C5.97601 12.3518 4.89823 12.4598 4.89336 12.4563C4.88853 12.4529 5.12735 11.9765 5.42409 11.3978C5.93584 10.3998 5.96234 10.3398 5.93827 10.2331C5.9073 10.0958 5.89622 10.0885 5.64502 10.0423C5.20924 9.96198 4.77494 9.82397 4.45158 9.66308C4.26983 9.57262 4.08869 9.47337 4.04906 9.44251L3.97696 9.38643L4.07754 9.21063C4.29963 8.82247 4.79507 8.40046 5.35281 8.12438C5.71234 7.94645 5.82911 7.90814 6.61453 7.71072L7.33551 7.52948L7.72604 6.78756C7.94083 6.37948 8.13039 6.03209 8.1473 6.01554C8.16431 5.99889 8.38403 5.98174 8.63965 5.97711L9.10125 5.96879L9.17269 5.72846C9.24064 5.49985 9.24374 5.45227 9.23611 4.75213L9.22809 4.01613L8.56719 4.00808L7.90629 4.00006L7.53077 4.45097ZM8.13159 5.17271V5.80357H8.56719H9.00278V5.17271V4.54185H8.56719H8.13159V5.17271ZM10.3847 5.17271V5.80357H10.8203H11.2558V5.17271V4.54185H10.8203H10.3847V5.17271ZM9.44327 7.04276C9.43236 7.52605 9.42344 8.11347 9.42341 8.34818L9.42335 8.77488L9.3107 8.79183C8.50068 8.91361 8.07151 9.21042 8.07151 9.64881C8.07151 10.0107 8.36955 10.2816 8.93807 10.4363C9.24902 10.5209 9.85465 10.526 10.1594 10.4465C10.4675 10.3662 10.6627 10.2714 10.8226 10.1246C11.0639 9.90301 11.1304 9.66548 11.0189 9.4235C10.866 9.09164 10.5081 8.90031 9.84107 8.79387L9.73307 8.77663L9.71349 8.34905C9.70273 8.11386 9.6939 7.62945 9.69384 7.2726C9.69378 6.91571 9.68498 6.52031 9.67428 6.3939L9.65488 6.16406H9.55896H9.46307L9.44327 7.04276ZM6.33665 6.24403C6.30817 6.25553 6.2991 6.42115 6.2991 6.92845V7.5977L6.3742 7.58334L6.4493 7.56898V6.89655C6.4493 6.20792 6.4478 6.19918 6.33665 6.24403ZM12.9381 6.89655V7.56898L13.0132 7.58334L13.0883 7.5977V6.92914C13.0883 6.23553 13.0864 6.22414 12.9657 6.22414C12.9498 6.22414 12.9381 6.50824 12.9381 6.89655ZM5.60065 6.42508C5.55252 6.43767 5.54807 6.49688 5.54807 7.12756C5.54807 7.50638 5.55958 7.81631 5.57364 7.81631C5.5877 7.81631 5.64177 7.80147 5.6938 7.78332L5.7884 7.75034V7.07736V6.40439L5.72081 6.40787C5.68365 6.40979 5.62957 6.41754 5.60065 6.42508ZM13.599 7.07427V7.74415L13.6988 7.78023C13.7537 7.80009 13.8078 7.81631 13.819 7.81631C13.8302 7.81631 13.8394 7.50695 13.8394 7.12888V6.44143L13.7718 6.42331C13.5903 6.37471 13.599 6.34187 13.599 7.07427ZM4.81958 6.72198L4.73697 6.7668V7.51686C4.73697 7.92938 4.74391 8.26692 4.75241 8.26692C4.76091 8.26692 4.8148 8.23652 4.87221 8.19933L4.97654 8.13174L4.97694 7.40325C4.97733 6.61867 4.98096 6.63444 4.81958 6.72198ZM14.4105 7.40325L14.4109 8.13174L14.5152 8.19933C14.5726 8.23652 14.6265 8.26692 14.635 8.26692C14.6435 8.26692 14.6505 7.92932 14.6505 7.51668V6.76641L14.5619 6.7206C14.5131 6.69539 14.459 6.67475 14.4417 6.67475C14.4205 6.67475 14.4103 6.91439 14.4105 7.40325ZM4.03852 7.24295L3.92586 7.34187V8.25968V9.17746L4.04651 8.99082L4.16712 8.80417L4.15916 7.97408L4.15117 7.14402L4.03852 7.24295ZM15.2213 7.98051V8.80565L15.3414 8.99154L15.4616 9.17746V8.25968V7.34187L15.3554 7.24866C15.297 7.19738 15.2429 7.15541 15.2352 7.15541C15.2275 7.15541 15.2213 7.52671 15.2213 7.98051ZM2.01709 9.75395C2.01709 10.514 2.021 10.8206 2.02575 10.4353C2.03052 10.05 2.03049 9.42819 2.02575 9.05342C2.02097 8.67869 2.01709 8.99391 2.01709 9.75395ZM9.19805 9.03943C8.65722 9.1142 8.22172 9.38853 8.22172 9.65439C8.22172 10.0613 9.18552 10.3869 9.98109 10.2487C10.4809 10.1619 10.8775 9.91629 10.916 9.66959C10.9328 9.56154 10.9247 9.54643 10.7691 9.39562C10.5857 9.21802 10.3917 9.13015 10.029 9.06036C9.69718 8.9965 9.72376 8.97012 9.72376 9.36342V9.70889H9.55529H9.38682L9.39779 9.36342C9.40998 8.97937 9.42744 9.0077 9.19805 9.03943Z" fill="#E94040"/>
</svg>
