<svg width="19" height="19" viewBox="0 0 19 19" fill="none" xmlns="http://www.w3.org/2000/svg">
<circle cx="9.5" cy="9.5" r="9.5" fill="black"/>
<path fill-rule="evenodd" clip-rule="evenodd" d="M6.45623 7.08347C6.41018 7.12938 6.3725 7.22329 6.3725 7.29216C6.3725 7.38885 6.42804 7.41737 6.61673 7.41737C6.88956 7.41737 6.90966 7.37848 6.75231 7.15463C6.62859 6.97844 6.57458 6.9655 6.45623 7.08347ZM13.226 7.08695C13.1866 7.13481 13.1435 7.23651 13.1303 7.31302C13.1109 7.4253 13.15 7.45639 13.333 7.47392C13.531 7.49298 13.5598 7.47489 13.5598 7.33132C13.5598 7.17488 13.4464 7 13.345 7C13.319 7 13.2655 7.03916 13.226 7.08695ZM5.11647 7.54522C4.9476 7.59822 4.94237 7.61819 4.95388 8.17301C4.96058 8.4998 5.00175 8.78939 5.04962 8.84691C5.17481 8.99723 15.0353 8.99869 15.1605 8.84837C15.206 8.79377 15.2491 8.50426 15.2562 8.20493L15.2694 7.66083L14.8856 7.61075C14.3404 7.53965 5.32699 7.47921 5.11647 7.54522ZM6.6835 9.39985L6.73144 9.78244L6.42986 9.78188C6.26399 9.7816 5.93052 9.7494 5.6888 9.7103C5.20244 9.63163 5.0185 9.6781 5.22393 9.82786C5.342 9.91391 5.33495 9.92156 5.13782 9.92156C4.98396 9.92156 4.88969 9.97248 4.8049 10.1015C4.73987 10.2004 4.69703 10.2912 4.70966 10.3031C4.90246 10.4844 11.5182 10.614 14.1094 10.4872C14.9297 10.447 15.6152 10.3999 15.6327 10.3825C15.6502 10.3651 15.6294 10.2856 15.5866 10.2058C15.5335 10.1069 15.4372 10.0592 15.2844 10.056C15.0605 10.0513 15.0604 10.0511 15.2345 9.97276C15.4771 9.86355 15.4744 9.86814 15.3694 9.74216C15.2893 9.64589 15.1754 9.63559 14.6094 9.67344C14.2432 9.69785 13.7759 9.73639 13.5711 9.75893L13.1987 9.79997L13.2477 9.40862L13.2967 9.01727H13.0494C12.8062 9.01727 12.8008 9.02353 12.7235 9.39471L12.6449 9.77221L12.2126 9.80936C11.3776 9.88121 9.04044 9.91947 8.17169 9.87558L7.29365 9.83127L7.21334 9.42427C7.13337 9.01908 7.13198 9.01727 6.88426 9.01727H6.63557L6.6835 9.39985ZM4.51239 10.4958C4.49257 10.5276 4.51839 10.6051 4.56968 10.668C4.65118 10.7679 4.64623 10.7761 4.53067 10.7328C4.4468 10.7015 4.3512 10.726 4.269 10.8002C4.08555 10.9657 4.10704 11.0217 4.36634 11.0538C4.56291 11.0781 4.55363 11.0833 4.29656 11.093C4.03342 11.1028 4 11.1228 4 11.2706C4 11.3621 4.04968 11.456 4.11039 11.4792C4.25462 11.5344 15.7474 11.5344 15.8917 11.4792C16.0224 11.4292 16.0405 11.2437 15.9148 11.2422C15.8469 11.2413 15.8474 11.2285 15.9172 11.1844C16.0338 11.1106 15.9508 10.897 15.8027 10.8899C15.7312 10.8865 15.7206 10.8713 15.7747 10.8495C15.8395 10.8234 15.8423 10.7791 15.7858 10.6739C15.7199 10.551 15.6646 10.5385 15.3502 10.5753C15.1523 10.5985 13.8721 10.6504 12.5055 10.6905C9.88749 10.7674 6.81301 10.6964 5.30341 10.524C4.88808 10.4767 4.53214 10.4639 4.51239 10.4958ZM4.97691 12.6014V13.6118L5.1688 13.689C5.46411 13.8079 5.98201 13.7905 6.18982 13.6548C6.37243 13.5355 6.3725 13.5353 6.3725 12.5633V11.591H5.6747H4.97691V12.6014ZM6.72139 12.1103C6.72139 12.6872 6.78503 12.7736 7.20985 12.7736C7.63467 12.7736 7.69831 12.6872 7.69831 12.1103V11.591H7.20985H6.72139V12.1103ZM12.3037 12.0988C12.3037 12.6847 12.3613 12.7736 12.741 12.7736C13.2208 12.7736 13.2807 12.7 13.2807 12.1103V11.591H12.7922H12.3037V12.0988ZM13.6295 12.5633C13.6295 13.5353 13.6296 13.5355 13.8122 13.6548C13.9202 13.7254 14.1308 13.7742 14.3273 13.7742C14.5238 13.7742 14.7344 13.7254 14.8425 13.6548C15.0251 13.5355 15.0251 13.5353 15.0251 12.5633V11.591H14.3273H13.6295V12.5633Z" fill="#C374FF"/>
</svg>
