<svg width="17" height="17" viewBox="0 0 17 17" fill="none" xmlns="http://www.w3.org/2000/svg">
<circle cx="8.5" cy="8.5" r="8.5" fill="black"/>
<path d="M4.79053 12.2095V11.7249H6.72912V10.2709H5.27518V3.48584H8.81699V4.75368H7.69842C7.64866 4.75368 7.60505 4.77226 7.56757 4.80942C7.53073 4.84657 7.51232 4.89003 7.51232 4.93979C7.51232 4.98954 7.53089 5.03316 7.56805 5.07064C7.60521 5.10748 7.64866 5.12589 7.69842 5.12589H8.85043V5.7225H7.69842C7.64866 5.7225 7.60505 5.74124 7.56757 5.77871C7.53073 5.81587 7.51232 5.85933 7.51232 5.90909C7.51232 5.95884 7.53089 6.00246 7.56805 6.03994C7.60521 6.07677 7.64866 6.09519 7.69842 6.09519H8.97935C9.0821 6.28097 9.21731 6.43848 9.385 6.56772C9.55269 6.69696 9.74138 6.79389 9.95107 6.85851L11.2233 7.20988C11.5935 7.30455 11.8908 7.50261 12.115 7.80406C12.3393 8.10552 12.4515 8.44784 12.4519 8.83104V10.2709H11.091V11.7249H12.3026C12.7375 11.7249 13.1181 11.5898 13.4444 11.3197C13.7708 11.0493 13.9556 10.6997 13.9989 10.2709H14.4835C14.4402 10.8296 14.2071 11.2924 13.7842 11.6594C13.3612 12.0262 12.8674 12.2095 12.3026 12.2095H4.79053ZM7.21377 11.7249H10.6063V10.2709H7.21377V11.7249Z" fill="#FF4DD0"/>
</svg>
