<svg width="19" height="19" viewBox="0 0 19 19" fill="none" xmlns="http://www.w3.org/2000/svg">
<circle cx="9.5" cy="9.5" r="9.5" fill="black"/>
<path fill-rule="evenodd" clip-rule="evenodd" d="M11.951 5.17325C11.6126 5.41782 11.4752 5.86011 11.6149 6.25508C11.8044 6.79071 12.3954 7.03838 12.8631 6.77819C13.279 6.54682 13.4282 6.05374 13.229 5.56928C12.9994 5.0107 12.423 4.83208 11.951 5.17325ZM14.2029 6.19494C13.4736 6.45483 13.1507 6.71638 13.1507 7.04713C13.1507 7.37509 13.2701 7.37283 13.4647 7.04125C13.6056 6.80098 13.686 6.73661 13.8444 6.73661C13.955 6.73661 14.0849 6.78785 14.1332 6.8504C14.2493 7.00095 14.1814 7.43207 13.998 7.70924L13.8547 7.92575L14.1515 8.13319C14.3148 8.24737 14.5525 8.42418 14.6796 8.5262L14.9109 8.71176L14.632 9.03731C14.091 9.6687 13.8493 10.4211 13.8577 11.4479C13.8651 12.3397 13.9703 12.7723 14.2156 12.9197C14.3569 13.0046 14.4529 13.0141 14.6013 12.958C14.8854 12.8505 14.9837 12.5855 14.8944 12.1683C14.8545 11.9824 14.8356 11.5587 14.8524 11.2266C14.8959 10.3665 15.2536 9.61422 15.2561 10.3777C15.2586 11.1557 15.6643 12.2901 16.101 12.7402C16.3595 13.0066 16.6949 13.0228 16.8793 12.7778C17.0682 12.5269 17.0392 12.3122 16.7653 11.934C16.3217 11.3216 16.2749 11.0913 16.2734 9.51619C16.2722 8.18383 16.2638 8.09539 16.1176 7.88273L15.9631 7.65793L16.1176 7.61333C16.2026 7.5888 16.3669 7.56775 16.4826 7.56654C16.7419 7.5639 16.9033 7.46218 16.8356 7.34423C16.8008 7.28371 16.6661 7.27171 16.4089 7.30627C16.0376 7.35623 16.0327 7.35427 15.9922 7.14101C15.9268 6.79667 15.7265 6.42155 15.521 6.2587C15.2571 6.04959 14.688 6.02205 14.2029 6.19494ZM14.9745 6.81577C15.0323 6.85803 15.1428 6.93032 15.22 6.9765C15.3584 7.05936 15.3585 7.0583 15.2266 6.89855C15.1531 6.80943 15.0426 6.73713 14.9811 6.73774C14.8831 6.73879 14.8822 6.74838 14.9745 6.81577ZM13.5471 7.01514C13.3031 7.51976 12.8688 7.73369 12.0609 7.74705C11.5355 7.75573 11.3269 7.85458 11.3269 8.09493C11.3269 8.35528 11.5293 8.43504 12.1622 8.42418C12.9322 8.41089 13.4599 8.20835 13.8098 7.79172C14.2221 7.30084 14.2506 6.86587 13.873 6.82648C13.6883 6.80716 13.6318 6.83991 13.5471 7.01514ZM10.3624 8.22797C9.96689 8.29068 9.64338 8.37128 9.64338 8.40712C9.64338 8.49353 9.76368 8.49036 10.5728 8.3826C11.0446 8.31981 11.2567 8.26103 11.2567 8.19326C11.2567 8.08052 11.3044 8.07863 10.3624 8.22797ZM4.36618 8.47225C4.28944 8.60438 4.2026 8.62317 3.66822 8.62317C3.31146 8.62317 3.03874 8.6566 3.01166 8.70369C2.98627 8.74799 3.00373 9.00267 3.05059 9.26966L3.13568 9.75511H3.5912C3.9963 9.75511 4.04147 9.76975 3.99945 9.88717C3.86519 10.2618 3.74567 11.011 3.70533 11.7301C3.66626 12.4271 3.64269 12.5404 3.53032 12.5721C3.446 12.5957 3.40041 12.6772 3.40041 12.8043C3.40041 12.9995 3.40167 13 3.99665 13C4.59162 13 4.59289 12.9995 4.59289 12.8043C4.59289 12.6683 4.5475 12.5957 4.44418 12.5667C4.30501 12.5276 4.2975 12.4869 4.32738 11.9323C4.34492 11.6063 4.3788 11.3186 4.40265 11.293C4.47076 11.2197 5.6551 10.9732 6.53529 10.849C7.92418 10.6531 9.27926 10.7311 10.9696 11.1041C11.3241 11.1823 11.629 11.2623 11.6472 11.282C11.6655 11.3016 11.6998 11.5892 11.7236 11.921C11.7647 12.4928 11.7591 12.5264 11.617 12.5664C11.5126 12.5957 11.4672 12.6679 11.4672 12.8043C11.4672 12.9995 11.4684 13 12.0634 13C12.6584 13 12.6597 12.9995 12.6597 12.8043C12.6597 12.677 12.6141 12.5957 12.5293 12.5719C12.4169 12.5403 12.3925 12.4274 12.352 11.7525C12.3261 11.3221 12.2427 10.7081 12.1667 10.3882C12.0906 10.0682 12.0283 9.79488 12.0283 9.78077C12.0283 9.76665 12.2313 9.75511 12.4793 9.75511H12.9303L13.0105 9.33961C13.1514 8.60921 13.2877 8.66369 11.2616 8.64068C9.57569 8.62159 9.47426 8.61245 9.38209 8.47089C9.25688 8.27861 9.03767 8.27929 8.92565 8.47225C8.84141 8.61736 8.76207 8.62317 6.87262 8.62317C4.98318 8.62317 4.90384 8.61736 4.8196 8.47225C4.77141 8.38924 4.66942 8.32132 4.59289 8.32132C4.51636 8.32132 4.41437 8.38924 4.36618 8.47225Z" fill="#FF4242"/>
</svg>
