<svg width="19" height="19" viewBox="0 0 19 19" fill="none" xmlns="http://www.w3.org/2000/svg">
<circle cx="9.5" cy="9.5" r="9.5" fill="black"/>
<path fill-rule="evenodd" clip-rule="evenodd" d="M10.1359 4.31212C9.52529 4.84295 8.82673 5.56328 8.2777 6.22818C6.71462 8.1212 5.90107 10.0829 6.00962 11.6972C6.13556 13.5707 7.14393 14.7315 8.84835 14.9653C10.3559 15.172 12.0203 14.4353 12.5977 13.3057C12.8879 12.7381 13.0568 11.775 12.9825 11.1119C12.8796 10.1936 12.6144 9.61031 11.635 8.14802C10.8874 7.03183 10.5438 6.30179 10.4267 5.58062C10.3755 5.26525 10.4054 4.60392 10.4858 4.27295C10.52 4.13214 10.5402 4.00951 10.5307 4.00042C10.5213 3.99133 10.3436 4.13158 10.1359 4.31212ZM7.30504 10.4746C6.93798 10.8762 6.78298 11.5673 6.91687 12.2054C7.03589 12.7729 7.2504 13.1639 7.66533 13.5698C8.53931 14.4247 9.72214 14.4544 10.3951 13.6382L10.5044 13.5056L10.2145 13.6479C9.95886 13.7733 9.88817 13.792 9.61614 13.8057C9.21104 13.8261 8.88289 13.7485 8.52631 13.548C7.99865 13.2513 7.59002 12.7587 7.36048 12.1424C7.25244 11.8524 7.2468 11.8116 7.24844 11.33C7.25 10.8658 7.25834 10.8031 7.3469 10.587C7.40012 10.4572 7.4379 10.351 7.43088 10.351C7.42382 10.351 7.36721 10.4066 7.30504 10.4746Z" fill="#2689BE"/>
</svg>
