<svg width="19" height="19" viewBox="0 0 19 19" fill="none" xmlns="http://www.w3.org/2000/svg">
<circle cx="9.5" cy="9.5" r="9.5" fill="black"/>
<path d="M14.735 11.6952H14.235V7.11018C14.2357 6.86315 14.1387 6.62587 13.965 6.45018C13.8789 6.36434 13.7768 6.29631 13.6644 6.24998C13.552 6.20366 13.4316 6.17993 13.31 6.18018H6.675C6.55327 6.18055 6.43276 6.20432 6.32 6.25018C6.098 6.35039 5.92021 6.52818 5.82 6.75018C5.77414 6.86293 5.75037 6.98345 5.75 7.10518V11.7052H5.25C5.15054 11.7052 5.05516 11.7447 4.98483 11.815C4.91451 11.8853 4.875 11.9807 4.875 12.0802V12.7602C4.87537 12.9075 4.90828 13.0529 4.97138 13.186C5.03448 13.3191 5.1262 13.4366 5.24 13.5302C5.46345 13.7193 5.74725 13.8222 6.04 13.8202H13.96C14.2541 13.8212 14.5391 13.7185 14.765 13.5302C14.8779 13.4362 14.9687 13.3184 15.0309 13.1853C15.0931 13.0522 15.1252 12.9071 15.125 12.7602V12.0802C15.1264 12.0288 15.1173 11.9777 15.0981 11.93C15.0789 11.8823 15.0502 11.8391 15.0136 11.803C14.977 11.7669 14.9334 11.7387 14.8855 11.7202C14.8376 11.7016 14.7863 11.6931 14.735 11.6952ZM14.31 12.7502C14.3104 12.8554 14.2752 12.9576 14.21 13.0402C14.1733 13.0876 14.1263 13.1262 14.0727 13.153C14.019 13.1798 13.96 13.1942 13.9 13.1952H6.07C6.01001 13.1942 5.951 13.1798 5.89734 13.153C5.84368 13.1262 5.79674 13.0876 5.76 13.0402C5.69482 12.9576 5.65957 12.8554 5.66 12.7502V12.3102H14.31V12.7502Z" fill="#65FAFF"/>
</svg>
