<svg width="19" height="19" viewBox="0 0 19 19" fill="none" xmlns="http://www.w3.org/2000/svg">
<circle cx="9.5" cy="9.5" r="9.5" fill="black"/>
<path d="M9.62857 8.78636L9.11429 10.3818L9.62857 11.9773M9.62857 8.78636L8.34286 7.98864L8.08571 10.3818M9.62857 8.78636L11.4286 9.85V12.775M9.62857 11.9773H8.85714L8.08571 10.3818M9.62857 11.9773L11.4286 12.775M8.08571 10.3818V6.12727L10.1429 4M8.08571 10.3818L8.6 11.9773M8.6 11.9773H6.54286L5 14.6364M8.6 11.9773L9.11429 8.52045L8.6 10.1159V11.9773ZM14 14.6364L11.4286 12.775M10.6571 7.45682C10.5207 7.45682 10.3899 7.40079 10.2935 7.30105C10.197 7.20132 10.1429 7.06605 10.1429 6.925C10.1429 6.78395 10.197 6.64868 10.2935 6.54895C10.3899 6.44921 10.5207 6.39318 10.6571 6.39318C10.7935 6.39318 10.9244 6.44921 11.0208 6.54895C11.1172 6.64868 11.1714 6.78395 11.1714 6.925C11.1714 7.06605 11.1172 7.20132 11.0208 7.30105C10.9244 7.40079 10.7935 7.45682 10.6571 7.45682Z" stroke="#46DBBF" stroke-width="1.22727" stroke-linecap="round" stroke-linejoin="round"/>
</svg>
