<svg width="75" height="16" viewBox="0 0 75 16" fill="none" xmlns="http://www.w3.org/2000/svg">
<path fill-rule="evenodd" clip-rule="evenodd" d="M0.0170559 0.0784737C-0.0472423 0.243962 0.0562144 0.289543 0.57006 0.322082C1.13412 0.357814 1.36873 0.475926 1.54444 0.812424C1.69312 1.09715 1.68995 10.9494 1.54107 11.4466C1.41544 11.8659 1.21938 12.0066 0.685109 12.0611C0.335177 12.0969 0.263869 12.125 0.263869 12.2277C0.263869 12.2957 0.28665 12.3536 0.314418 12.3565C0.520253 12.3776 5.23585 12.3843 5.3019 12.3635C5.34827 12.349 5.38615 12.2856 5.38615 12.2228C5.38615 12.1284 5.28108 12.0967 4.78145 12.04C3.74918 11.9231 3.7514 11.9288 3.7146 9.33428C3.69917 8.24221 3.71251 7.32747 3.74439 7.30165C3.77621 7.27577 4.18006 7.27097 4.6418 7.291L5.48139 7.32746L6.59636 8.86643C7.92694 10.7028 8.3097 11.1797 8.79759 11.6091C9.54652 12.2681 10.127 12.4164 11.9615 12.4173C12.6737 12.4177 12.9415 12.3944 13.0397 12.3235C13.2238 12.1906 13.1293 12.1317 12.5884 12.0417C12.329 11.9985 11.9458 11.8807 11.7369 11.7797C11.0474 11.4467 9.9191 10.2534 7.9045 7.72671C7.49599 7.21434 7.13959 6.75767 7.11243 6.71196C7.08082 6.65859 7.27695 6.42018 7.65991 6.04655C8.60733 5.12229 9.00983 4.42248 9.16613 3.42809C9.30618 2.53664 9.03463 1.65483 8.42346 1.01684C8.01099 0.586248 7.58867 0.350625 6.89082 0.161715C6.39073 0.0263039 6.20019 0.0181197 3.20763 0.00401298C0.617172 -0.00823059 0.0456328 0.00507887 0.0170559 0.0784737ZM3.97078 0.820206C3.63575 0.877697 3.63373 0.894204 3.63474 3.5307C3.63521 4.887 3.65341 6.06212 3.67517 6.14217C3.72842 6.33826 4.01318 6.42616 4.75146 6.47434C5.56125 6.52724 5.96295 6.43056 6.35709 6.08807C7.20584 5.35046 7.4662 3.52218 6.90194 2.26249C6.70413 1.82085 6.19284 1.27355 5.79189 1.07426C5.28128 0.820409 4.55776 0.719463 3.97078 0.820206ZM19.2373 1.66102C19.1804 1.74673 18.2267 3.8992 17.118 6.44433C16.0093 8.98946 15.0404 11.1912 14.965 11.3372C14.7147 11.8216 14.2565 12.0839 13.6593 12.0848C13.4564 12.0851 13.4066 12.11 13.4066 12.2111C13.4066 12.2804 13.4445 12.3494 13.4908 12.3645C13.555 12.3854 16.9471 12.3773 17.1977 12.3557C17.2255 12.3533 17.2483 12.2914 17.2483 12.2182C17.2483 12.1051 17.2033 12.0852 16.9482 12.0852C16.5892 12.0852 16.3218 11.977 16.2681 11.81C16.206 11.6169 16.399 10.9999 16.8583 9.92257L17.2839 8.92445H19.1011H20.9182L21.5136 10.41C21.9877 11.5929 22.0928 11.9149 22.0293 11.9903C21.9855 12.0425 21.9057 12.0852 21.8519 12.0852C21.7951 12.0852 21.7635 12.134 21.7766 12.2016C21.805 12.3489 22.4157 12.4019 24.1943 12.4113C25.1458 12.4163 25.4749 12.3964 25.5694 12.3282C25.7377 12.2067 25.6451 12.0855 25.3827 12.0836C24.651 12.0782 24.2672 11.7673 23.7826 10.7876C23.6016 10.4216 22.6472 8.25072 21.6616 5.96337C20.6761 3.67602 19.8252 1.73714 19.7707 1.65483C19.6392 1.45627 19.3711 1.45934 19.2373 1.66102ZM47.0136 1.62848C46.9514 1.69636 45.98 3.86813 44.8549 6.45465C43.7298 9.04123 42.7217 11.2974 42.6146 11.4684C42.3684 11.8614 42.0906 12.0217 41.5754 12.0678C41.2098 12.1005 41.1699 12.1186 41.1881 12.2435C41.2082 12.3809 41.233 12.3828 43.0508 12.3837C44.4076 12.3843 44.9108 12.3634 44.9606 12.3043C45.0744 12.169 44.9678 12.1032 44.5837 12.0717C43.7961 12.0072 43.799 11.84 44.6223 9.87266L45.033 8.89118H46.8387H48.6444L49.2231 10.3285C49.5413 11.1191 49.8017 11.8235 49.8017 11.8939C49.8017 11.9703 49.7316 12.0482 49.6278 12.0872C49.2983 12.2109 49.4842 12.3163 50.1104 12.3609C51.0252 12.4261 53.1931 12.4235 53.2994 12.357C53.489 12.2385 53.3241 12.1056 52.9389 12.0663C52.4261 12.0141 52.1781 11.8568 51.8496 11.3752C51.6732 11.1167 50.8432 9.28431 49.5699 6.34252C48.4686 3.79812 47.5143 1.66881 47.4493 1.61071C47.2934 1.47151 47.1522 1.47724 47.0136 1.62848ZM57.0471 1.74792C56.0104 1.96511 55.134 2.55407 54.7166 3.31417C54.4904 3.72606 54.4859 3.74981 54.4859 4.53274C54.4859 5.2766 54.4991 5.35778 54.6788 5.71937C55.0547 6.47581 55.8034 7.12145 57.3167 7.99407C58.5401 8.6996 58.9848 9.2521 58.9848 10.0664C58.9848 10.8658 58.5375 11.4625 57.7429 11.723C57.2206 11.8943 56.2928 11.8347 55.7665 11.5959C55.036 11.2646 54.7155 10.8421 54.5732 10.023C54.501 9.6073 54.4748 9.55333 54.3538 9.57043C54.1721 9.59612 54.1075 10.0846 54.1314 11.2534L54.1489 12.1184L54.3937 12.2365C54.8273 12.4459 55.6417 12.5623 56.7101 12.5675C58.3045 12.5754 58.9476 12.3629 59.7812 11.5528C60.2982 11.0504 60.5451 10.5875 60.6542 9.91625C60.7845 9.11536 60.604 8.26782 60.1708 7.64466C59.7166 6.99143 59.1814 6.58194 57.5327 5.62634C56.6245 5.1 56.1844 4.66535 56.082 4.19378C55.9469 3.57182 56.1774 3.05546 56.739 2.72235C57.617 2.2016 58.873 2.28664 59.504 2.90966C59.7491 3.15161 59.9751 3.58233 59.9774 3.81196C59.9798 4.04479 60.0519 4.16676 60.187 4.16676C60.353 4.16676 60.3719 4.0567 60.4017 2.91506C60.4309 1.79391 60.496 1.88141 59.5259 1.73708C58.7012 1.61431 57.6628 1.6189 57.0471 1.74792ZM25.814 1.92499C25.6867 2.05062 25.8758 2.17046 26.2037 2.17199C26.3752 2.17279 26.6426 2.23035 26.7978 2.29995C27.024 2.40129 27.0952 2.47695 27.1567 2.6811C27.2123 2.86541 27.2257 4.29598 27.2055 7.85979C27.1748 13.2576 27.1736 13.2743 26.7571 14.1785C26.5284 14.6747 25.9801 15.2763 25.4956 15.5625C25.1162 15.7864 25.0454 15.9604 25.318 15.9988C25.5182 16.0271 26.4598 15.5358 27.086 15.0765C27.7693 14.5753 28.4941 13.7942 28.7577 13.2748C29.2152 12.3737 29.2015 12.542 29.2421 7.32746C29.2703 3.70151 29.2987 2.56891 29.364 2.45625C29.4543 2.30028 29.8152 2.17152 30.1637 2.17092C30.4082 2.17046 30.5855 2.01668 30.4448 1.92692C30.3125 1.84255 25.8993 1.84068 25.814 1.92499ZM31.4814 1.94994C31.495 2.01994 31.6171 2.09088 31.8064 2.13879C32.2758 2.25756 32.5087 2.40349 32.8369 2.7843C33.4114 3.45098 35.7501 7.07308 35.9979 7.68C36.145 8.04038 36.152 8.13294 36.1384 9.52332C36.1153 11.8734 36.0817 11.9814 35.3448 12.0702C35.0027 12.1115 34.9404 12.1394 34.9404 12.2513C34.9404 12.3807 34.9917 12.3838 37.2836 12.3897C39.1199 12.3944 39.6424 12.3771 39.6988 12.3099C39.8243 12.1606 39.7104 12.1057 39.1948 12.0673C38.6286 12.0249 38.4626 11.9579 38.2935 11.7032C38.1882 11.5447 38.1755 11.3247 38.1755 9.6594V7.79325L38.3857 7.35534C38.8374 6.41405 40.8191 3.33653 41.3208 2.79708C41.6264 2.4685 42.1652 2.17226 42.4593 2.17119C42.5541 2.17079 42.6876 2.13014 42.756 2.08083C43.0415 1.87468 42.8124 1.84401 41.0894 1.85765C39.6005 1.86943 39.3879 1.88413 39.3699 1.97636C39.3563 2.04623 39.441 2.11716 39.6218 2.1873C39.9335 2.30813 39.9621 2.42937 39.7918 2.90607C39.6868 3.19979 37.5982 6.82441 37.5325 6.82701C37.483 6.82894 35.1403 2.85996 35.0122 2.55726C34.8977 2.28664 34.94 2.21491 35.2609 2.13539C35.381 2.10565 35.4459 2.04543 35.4459 1.96372C35.4459 1.84308 35.3628 1.83782 33.4527 1.83782C31.62 1.83782 31.4612 1.84687 31.4814 1.94994ZM62.3002 1.91062C62.2157 2.0457 62.4227 2.17053 62.7336 2.17199C62.9052 2.17279 63.1725 2.23035 63.3277 2.29995C63.5541 2.40143 63.625 2.47675 63.6862 2.6811C63.7405 2.86242 63.7563 4.16204 63.741 7.19438C63.7218 10.9966 63.7075 11.4792 63.6073 11.6972C63.4739 11.9874 63.3132 12.0848 62.9657 12.0862C62.6557 12.0874 62.5064 12.1687 62.5601 12.3071C62.5948 12.3964 62.9004 12.4096 64.96 12.4115C66.4814 12.4129 67.335 12.3896 67.3622 12.3463C67.4572 12.1945 67.2398 12.0852 66.8431 12.0852C66.3092 12.0852 66.0189 11.9585 65.9069 11.6765C65.8425 11.5145 65.8106 10.8806 65.7909 9.37287L65.7636 7.29273L68.5833 7.3101L71.4029 7.32746L71.422 8.11944C71.4325 8.55501 71.4145 9.51321 71.3821 10.2488C71.3066 11.9616 71.2539 12.0796 70.5605 12.0853C70.2692 12.0876 70.1237 12.1721 70.1766 12.308C70.2117 12.3986 70.5076 12.4114 72.582 12.4124C74.6689 12.4134 74.9521 12.4012 74.9879 12.3092C75.0481 12.1543 74.8866 12.0873 74.4506 12.0862C74.2362 12.0856 73.959 12.0432 73.8345 11.9918C73.4221 11.8217 73.4249 11.8551 73.4249 7.16111C73.4249 4.83716 73.4491 2.82323 73.4786 2.68569C73.5466 2.36895 73.7437 2.2396 74.2344 2.18962C74.5904 2.15336 74.7636 2.03937 74.6433 1.92066C74.5825 1.86051 70.1096 1.85053 70.0116 1.91028C69.8305 2.02074 70.0188 2.15183 70.4088 2.18676C70.8678 2.22782 71.1948 2.37281 71.3118 2.58707C71.3674 2.68875 71.4029 3.31237 71.4238 4.5501L71.4543 6.36408L68.5979 6.34671L65.7415 6.32935L65.7577 4.56887C65.7674 3.52357 65.8037 2.71909 65.8474 2.58874C65.9373 2.31964 66.0685 2.24599 66.5672 2.1845C66.8932 2.14424 66.9547 2.11563 66.9547 2.00391C66.9547 1.87402 66.9036 1.87082 64.6481 1.85778C63.1782 1.84933 62.3266 1.8685 62.3002 1.91062ZM19.0516 4.47431C18.9686 4.61252 17.6527 7.94164 17.6527 8.01343C17.6527 8.07226 18.018 8.09269 19.068 8.09269C20.0418 8.09269 20.4834 8.07013 20.4834 8.02036C20.4834 7.94802 19.2306 4.68046 19.1366 4.50758C19.1092 4.45708 19.0709 4.4421 19.0516 4.47431ZM46.0725 6.21357C45.677 7.19518 45.3534 8.01956 45.3534 8.04551C45.3534 8.07146 46.0088 8.09269 46.8097 8.09269C48.1685 8.09269 48.263 8.0849 48.2221 7.97624C47.7967 6.8497 46.875 4.51976 46.8392 4.48077C46.813 4.45222 46.468 5.23195 46.0725 6.21357Z" fill="white"/>
</svg>
