<svg width="20" height="21" viewBox="0 0 20 21" fill="none" xmlns="http://www.w3.org/2000/svg">
<path fill-rule="evenodd" clip-rule="evenodd" d="M13.5187 3.21562V6.43125H14.9953H16.4719V3.21562V0H14.9953H13.5187V3.21562ZM8.46562 4.13437V6.43125H9.90937H11.3531V4.13437V1.8375H9.90937H8.46562V4.13437ZM3.37417 3.73518C3.35915 3.75021 3.34687 4.36295 3.34687 5.0969V6.43125H4.82475H6.30269L6.28491 5.08463L6.26719 3.73807L4.83433 3.72291C4.04624 3.71464 3.38914 3.72015 3.37417 3.73518ZM8.98354 7.44509C8.02797 7.70864 7.36549 8.40886 7.16126 9.37118C7.12071 9.56248 7.0875 10.0731 7.0875 10.506C7.0875 11.2023 7.07234 11.3092 6.95625 11.4338C6.88282 11.5127 6.825 11.6654 6.825 11.7805C6.825 12.0218 7.11316 12.9037 7.24113 13.0541C7.28969 13.1112 7.46491 13.4088 7.63048 13.7156C7.79605 14.0224 8.0369 14.421 8.16578 14.6014C8.35308 14.8635 8.39947 14.9885 8.39737 15.2248C8.39475 15.5137 8.3834 15.5293 7.88878 15.9231C6.85368 16.7471 6.30151 17.0954 5.08108 17.6942C4.39261 18.032 3.72356 18.4045 3.59435 18.5221L3.35934 18.7359L3.23466 19.868L3.11003 21H9.95498C15.3879 21 16.7997 20.9831 16.7987 20.918C16.798 20.8729 16.7396 20.3487 16.6689 19.7531C16.5466 18.7222 16.5317 18.663 16.3585 18.5175C16.2585 18.4335 15.6333 18.0975 14.9693 17.771C13.7033 17.1483 13.094 16.7676 12.131 15.9977L11.55 15.533V15.2152C11.55 14.9599 11.5935 14.8356 11.7704 14.5853C11.8916 14.4138 12.1026 14.0667 12.2393 13.8141C12.3759 13.5614 12.5694 13.2218 12.6691 13.0594C12.8499 12.7652 13.125 11.972 13.125 11.745C13.125 11.6794 13.0512 11.5379 12.9609 11.4307C12.8028 11.2428 12.7968 11.2017 12.7953 10.2937C12.7939 9.45157 12.7771 9.31094 12.6363 8.96864C12.3116 8.17904 11.8214 7.72406 11.0298 7.47771C10.5484 7.32782 9.47107 7.31069 8.98354 7.44509ZM5.65996 7.94778C4.36098 8.16421 3.45955 8.93058 3.15958 10.0734C3.12172 10.2178 2.99952 11.0726 2.88802 11.9731C2.61765 14.1576 2.53988 14.4747 2.18367 14.8467L2.01173 15.0261L2.43324 15.2144C2.94761 15.4442 3.57131 15.6021 4.19245 15.6598L4.65937 15.7032V16.0862C4.65937 16.2969 4.61068 16.5909 4.55122 16.7396C4.42234 17.0616 4.24843 17.1497 3.1393 17.454C1.96921 17.775 1.22378 18.0362 0.910613 18.2348C0.630657 18.4123 0.61215 18.4457 0.310866 19.3127C0.139912 19.8048 0 20.2382 0 20.2756C0 20.3206 0.478471 20.3438 1.40798 20.3438H2.8159L2.85062 20.1305C2.86965 20.0131 2.91756 19.6219 2.95706 19.2609C2.99657 18.9 3.07276 18.5364 3.12644 18.4529C3.26727 18.2339 3.6983 17.9763 4.90173 17.3917C6.03251 16.8425 6.43414 16.5951 7.39692 15.8543C8.10666 15.3083 8.13908 15.2096 7.78457 14.674C7.53729 14.3004 7.01459 13.3855 6.78149 12.9182C6.69775 12.7503 6.58317 12.4143 6.5268 12.1713C6.41983 11.7101 6.45487 11.452 6.65523 11.2261C6.72177 11.1511 6.75268 10.8583 6.76988 10.1391C6.79337 9.15692 6.79402 9.15351 7.04104 8.63487C7.2177 8.26383 7.26639 8.10134 7.21114 8.06715C7.13094 8.0176 6.22401 7.86916 6.08403 7.88268C6.04039 7.88688 5.84955 7.91621 5.65996 7.94778ZM12.8735 8.14669C12.6668 8.20621 12.6599 8.21756 12.7485 8.35406C13.0288 8.78587 13.1428 9.27924 13.1757 10.2012C13.2019 10.9384 13.232 11.1555 13.3305 11.3168C13.6525 11.8449 13.3856 12.6271 12.2555 14.4678C12.0479 14.8057 11.8781 15.1413 11.8781 15.2134C11.8781 15.2999 12.0736 15.4994 12.4523 15.7992C13.3599 16.5177 13.7932 16.7841 15.1594 17.464C16.0077 17.8862 16.5139 18.1788 16.6613 18.3323C16.8756 18.5555 16.887 18.594 16.9831 19.4209L17.0828 20.2781H18.4508C19.7857 20.2781 19.8187 20.2748 19.8187 20.1437C19.8187 20.0698 19.773 19.6047 19.7172 19.1101C19.6227 18.2744 19.6031 18.2002 19.4383 18.0593C19.3407 17.9759 18.7552 17.6588 18.1371 17.3547C17.0521 16.8209 16.4358 16.4311 15.5695 15.7306C15.1732 15.4101 15.1594 15.3887 15.1594 15.0951C15.1594 14.872 15.2039 14.731 15.3268 14.5651C15.419 14.4408 15.6852 13.9955 15.9184 13.5754C16.5282 12.4773 16.6665 11.9496 16.4062 11.7141C16.2887 11.6077 16.275 11.5119 16.275 10.7971C16.275 9.88982 16.1882 9.50749 15.8751 9.03486C15.4519 8.3958 14.7042 8.06787 13.6934 8.07778C13.3627 8.08106 12.9938 8.11204 12.8735 8.14669Z" fill="white"/>
</svg>
