<svg width="19" height="23" viewBox="0 0 19 23" fill="none" xmlns="http://www.w3.org/2000/svg">
<path fill-rule="evenodd" clip-rule="evenodd" d="M15.3969 0.382027C15.4352 0.710033 15.4873 0.768935 15.765 0.797997C16.0688 0.829833 15.8986 1.02173 12.987 3.93053L9.88556 7.02912L8.69233 5.87993L7.49922 4.73074L3.74961 8.5275L0 12.3244V13.4549V14.5855L3.7708 10.8159L7.54159 7.04631L8.71418 8.20981L9.88678 9.37319L13.7419 5.44167C17.7997 1.30348 17.7481 1.34419 17.7481 2.28307C17.7481 2.63037 17.776 2.66221 18.0808 2.66221H18.4136V1.3311V0H16.8829H15.3523L15.3969 0.382027ZM14.3094 16.0842V22.9615H16.1951H18.0808V16.0842V9.2068H16.1951H14.3094V16.0842ZM9.65051 17.2489V22.9615H11.5917H13.5329V17.2489V11.5362H11.5917H9.65051V17.2489ZM5.06563 13.8287C5.02492 13.8693 4.99164 15.9409 4.99164 18.4321V22.9615H6.93283H8.87403V18.3581V13.7547H7.00682C5.97976 13.7547 5.10623 13.788 5.06563 13.8287ZM0.443701 19.5229V22.9615H2.3849H4.32609V19.5229V16.0842H2.3849H0.443701V19.5229Z" fill="white"/>
</svg>
