<svg width="20" height="20" viewBox="0 0 20 20" fill="none" xmlns="http://www.w3.org/2000/svg">
<path fill-rule="evenodd" clip-rule="evenodd" d="M10.6392 0.742268V1.48454H9.85567H9.07216V1.93814V2.39175H8.02062H6.96907V3.03093V3.6701H7.29897H7.62887V10.3516V17.0331L7.02062 17.0217L6.41237 17.0103V12.5773V8.14433L6.71134 8.13221L7.01031 8.12008V7.2353V6.35052H3.85567H0.701031V7.2353V8.12008L1 8.13221L1.29897 8.14433V12.5773V17.0103L0.649484 17.0217L0 17.033V17.8155V18.5979H5.71715H11.4343L11.253 18.4384C11.0471 18.2572 10.5905 17.4901 10.5143 17.1976C10.4115 16.8031 10.5641 16.4216 10.9794 16.0346L11.2741 15.7599L11.2623 15.1717C11.2506 14.5895 11.2494 14.5826 11.1407 14.4988C11.0803 14.4523 10.934 14.3234 10.8155 14.2125C10.4344 13.8555 10.3398 13.3843 10.5513 12.8969L10.6362 12.701H9.75109H8.86598V11.7724V10.8438L9.76289 10.8548L10.6598 10.866L10.6713 11.7526L10.6829 12.6392L10.8658 12.3245C10.9664 12.1513 11.1097 11.9583 11.1842 11.8954C11.3456 11.7591 11.6139 11.631 11.7407 11.6298C11.8274 11.6289 11.8325 11.6097 11.8438 11.2474L11.8557 10.866L12.7526 10.8548L13.6495 10.8438V11.0744C13.6495 11.2718 13.6599 11.303 13.7216 11.2911C13.778 11.2803 13.8051 11.2029 13.8456 10.9365C13.8741 10.7492 13.9367 10.5124 13.9846 10.4105C14.097 10.1714 14.3948 9.91056 14.6354 9.84037L14.8247 9.7852L14.8454 6.73794L14.866 3.69072L15.2062 3.67876L15.5464 3.66676V3.02994V2.39315L14.4845 2.38214L13.4227 2.37113L13.411 1.92874L13.3993 1.48635L12.6275 1.47513L11.8557 1.46392L11.8444 0.731959L11.8332 0H11.2362H10.6392V0.742268ZM16.5773 4.21076C15.999 5.21047 15.5198 6.04474 15.5124 6.06466C15.505 6.08462 15.7834 6.10606 16.1309 6.11233L16.7629 6.12371L16.785 8.41237C16.8009 10.0525 16.8223 10.7724 16.8605 10.9528L16.9139 11.2045L17.1661 11.3239C17.3047 11.3896 17.5265 11.5129 17.6589 11.5979C17.7913 11.683 17.9229 11.7526 17.9513 11.7526C17.9798 11.7526 18.1136 11.7097 18.2489 11.6573L18.4948 11.5621L18.5054 8.83361L18.516 6.1052L19.1538 6.09381L19.7915 6.08247L18.7314 4.23711C18.1484 3.22214 17.6618 2.39208 17.6501 2.39245C17.6384 2.39282 17.1557 3.21109 16.5773 4.21076ZM8.86598 6.10309V7.01031H9.77319H10.6804V6.10309V5.19588H9.77319H8.86598V6.10309ZM11.8351 6.10309V7.01031H12.7423H13.6495V6.10309V5.19588H12.7423H11.8351V6.10309ZM8.85719 8.94849L8.84536 9.85575L9.76289 9.85571L10.6804 9.85567V8.94845V8.04124H9.77472H8.86903L8.85719 8.94849ZM11.8351 8.94845V9.85567L12.7526 9.85571L13.6701 9.85575L13.6583 8.94849L13.6464 8.04124H12.7407H11.8351V8.94845ZM1.97938 10.0623V10.8874L3.86598 10.8767L5.75258 10.866L5.76062 10.0515L5.76862 9.23711H3.87402H1.97938V10.0623ZM14.9072 10.2235C14.7126 10.2562 14.5476 10.3572 14.4531 10.5015C14.4156 10.5587 14.3393 10.8211 14.2834 11.0846C14.2276 11.3481 14.178 11.5677 14.1732 11.5725C14.1683 11.5774 13.9789 11.6748 13.7523 11.7892C13.5256 11.9034 13.2388 12.0788 13.1148 12.1787L12.8895 12.3605L12.4256 12.2002C11.9036 12.0197 11.712 12.0179 11.5057 12.1914C11.3652 12.3096 10.9319 13.0568 10.8861 13.2597C10.8171 13.5661 10.955 13.7934 11.4358 14.1649L11.7025 14.3711L11.6966 14.9072C11.6934 15.2021 11.7032 15.5546 11.7183 15.6907L11.746 15.9381L11.4091 16.2278C10.9921 16.5864 10.8639 16.8082 10.9227 17.0696C10.9442 17.1654 11.0491 17.3953 11.1558 17.5806C11.5739 18.3071 11.8002 18.3973 12.5009 18.1168C12.7087 18.0337 12.8995 17.9657 12.9249 17.9657C12.9502 17.9657 13.1097 18.0617 13.2793 18.1792C13.4489 18.2966 13.7361 18.4566 13.9175 18.5348L14.2474 18.6768L14.3398 19.1381C14.4921 19.8981 14.6201 20 15.4227 20C15.9828 20 16.1289 19.9594 16.2998 19.7563C16.4245 19.6081 16.4676 19.4687 16.5416 18.9738L16.5933 18.628L16.9255 18.4743C17.1082 18.3896 17.4047 18.2144 17.5842 18.0849L17.9108 17.8493L18.3424 18.0015C18.8168 18.1688 19.0607 18.18 19.2681 18.0442C19.3292 18.0042 19.5046 17.7552 19.6579 17.4908C19.9036 17.0674 19.9368 16.9849 19.9374 16.7968C19.9383 16.5301 19.8738 16.4381 19.4361 16.0825L19.1062 15.8144L19.1247 15.2783C19.1349 14.9835 19.1249 14.6433 19.1024 14.5222L19.0615 14.3022L19.2096 14.1717C20.0234 13.455 20.0619 13.3426 19.7069 12.7199C19.4273 12.2294 19.331 12.1071 19.161 12.0264C18.9456 11.9242 18.7263 11.944 18.3093 12.1031C18.1013 12.1825 17.9128 12.2474 17.8904 12.2474C17.8681 12.2474 17.732 12.1633 17.588 12.0606C17.444 11.9578 17.1518 11.7923 16.9388 11.6927L16.5516 11.5118L16.4805 11.1064C16.3491 10.3564 16.1554 10.1817 15.4655 10.1907C15.2492 10.1936 14.9979 10.2083 14.9072 10.2235ZM2.5567 15.1134V17.4021H3.85567H5.15464V15.1134V12.8247H3.85567H2.5567V15.1134ZM15.0418 12.8673C14.5308 12.9534 14.1003 13.1911 13.7398 13.5863C12.9258 14.4789 12.9572 15.8358 13.812 16.6967C14.2565 17.1444 14.7798 17.3598 15.4227 17.3598C16.0623 17.3598 16.5457 17.1548 17.0137 16.685C17.3488 16.3486 17.535 16.0099 17.6284 15.567C17.7048 15.2047 17.7049 15.0233 17.6289 14.6598C17.3807 13.472 16.2213 12.6687 15.0418 12.8673Z" fill="white"/>
</svg>
