<svg width="118" height="71" viewBox="0 0 118 71" fill="none" xmlns="http://www.w3.org/2000/svg">
<path d="M10.7197 9.55359L50.1767 22.5788" stroke="#FCFCFC" stroke-width="1.875" stroke-linecap="round" stroke-linejoin="round" stroke-dasharray="1.88 5.62"/>
<path d="M10.2118 12.7953C12.0022 13.076 13.6811 11.8523 13.9618 10.062C14.2425 8.27165 13.0188 6.59274 11.2285 6.31202C9.43815 6.03129 7.75924 7.25504 7.47851 9.04535C7.19778 10.8357 8.42154 12.5146 10.2118 12.7953Z" fill="white"/>
<path d="M99.8007 38.9069C101.244 29.6996 94.9509 21.0652 85.7436 19.6215C76.5363 18.1777 67.9019 24.4713 66.4581 33.6786C65.0144 42.8859 71.308 51.5203 80.5153 52.964C89.7226 54.4078 98.357 48.1142 99.8007 38.9069Z" stroke="#272727" stroke-opacity="0.6" stroke-width="33.75" stroke-linecap="round" stroke-linejoin="round"/>
<g clip-path="url(#clip0_274_4622)">
<path fill-rule="evenodd" clip-rule="evenodd" d="M74.6574 18.9002C71.4035 19.3315 69.5698 19.9136 69.5698 20.5152C69.5698 20.938 70.4679 21.3388 72.9998 22.0464C76.199 22.9404 77.8168 23.4741 78.739 23.9396C80.4093 24.7828 80.2879 25.1848 77.9946 26.4035C75.6412 27.6541 74.6798 28.5157 74.6798 29.3741C74.6798 30.2196 76.0853 30.9745 79.0198 31.7054C83.2291 32.7537 84.7016 33.4206 85.2134 34.51C85.358 34.818 85.5532 35.2275 85.6469 35.42C85.8881 35.9155 87.0065 36.6256 88.0985 36.9766C89.519 37.4331 91.8906 37.4954 93.4738 37.1177C95.9107 36.5364 97.5057 35.385 97.4967 34.2135C97.4928 33.6894 97.0689 32.7949 96.5862 32.2919C95.6438 31.3099 93.8622 30.4751 91.4594 29.8895C90.1396 29.5679 89.0539 29.3967 83.0441 28.5621C81.152 28.2994 80.4215 28.0871 80.3186 27.7702C80.2899 27.6822 80.7032 27.3201 81.2367 26.9654C82.2783 26.273 83.1507 25.4002 83.3651 24.836C83.5194 24.4303 83.2769 23.7309 82.8504 23.3516C82.0434 22.6338 79.9981 22.0296 75.6598 21.227C72.8338 20.7041 72.2998 20.5487 72.2998 20.2487C72.2998 19.9054 73.1757 19.6437 77.1998 18.7845L77.8298 18.65L77.1998 18.6483C76.8533 18.6475 75.7092 18.7607 74.6574 18.9002Z" fill="#DADADA"/>
</g>
<path d="M71.5937 41.5205L69.2401 48H68.2782L70.9882 40.8906H71.6083L71.5937 41.5205ZM73.5663 48L71.2079 41.5205L71.1933 40.8906H71.8134L74.5331 48H73.5663ZM73.4442 45.3682V46.1396H69.4501V45.3682H73.4442ZM76.6406 43.8447V48H75.7372V42.7168H76.5917L76.6406 43.8447ZM76.4257 45.1582L76.0497 45.1436C76.053 44.7822 76.1067 44.4486 76.2109 44.1426C76.315 43.8333 76.4615 43.5648 76.6503 43.3369C76.8391 43.109 77.0637 42.9333 77.3242 42.8096C77.5878 42.6826 77.8792 42.6191 78.1982 42.6191C78.4586 42.6191 78.693 42.6549 78.9013 42.7266C79.1096 42.7949 79.2871 42.9056 79.4335 43.0586C79.5833 43.2116 79.6972 43.4102 79.7753 43.6543C79.8535 43.8952 79.8925 44.1898 79.8925 44.5381V48H78.9843V44.5283C78.9843 44.2516 78.9436 44.0303 78.8622 43.8643C78.7809 43.695 78.6621 43.5729 78.5058 43.498C78.3496 43.4199 78.1575 43.3809 77.9296 43.3809C77.705 43.3809 77.4999 43.4281 77.3144 43.5225C77.1321 43.6169 76.9742 43.7471 76.8408 43.9131C76.7106 44.0791 76.608 44.2695 76.5331 44.4844C76.4615 44.696 76.4257 44.9206 76.4257 45.1582ZM83.8652 42.7168V43.4102H81.0088V42.7168H83.8652ZM81.9756 41.4326H82.8789V46.6914C82.8789 46.8704 82.9065 47.0055 82.9619 47.0967C83.0172 47.1878 83.0888 47.248 83.1767 47.2773C83.2646 47.3066 83.359 47.3213 83.4599 47.3213C83.5348 47.3213 83.6129 47.3148 83.6943 47.3018C83.7789 47.2855 83.8424 47.2725 83.8847 47.2627L83.8896 48C83.818 48.0228 83.7236 48.0439 83.6064 48.0635C83.4925 48.0863 83.3541 48.0977 83.1914 48.0977C82.97 48.0977 82.7666 48.0537 82.581 47.9658C82.3955 47.8779 82.2474 47.7314 82.1367 47.5264C82.0293 47.318 81.9756 47.0381 81.9756 46.6865V41.4326ZM88.4287 47.0967V44.377C88.4287 44.1686 88.3864 43.988 88.3018 43.835C88.2204 43.6787 88.0967 43.5583 87.9307 43.4736C87.7646 43.389 87.5596 43.3467 87.3154 43.3467C87.0876 43.3467 86.8874 43.3857 86.7148 43.4639C86.5456 43.542 86.4121 43.6445 86.3145 43.7715C86.2201 43.8984 86.1729 44.0352 86.1729 44.1816H85.2695C85.2695 43.9928 85.3184 43.8057 85.416 43.6201C85.5137 43.4346 85.6536 43.2669 85.8359 43.1172C86.0215 42.9642 86.2428 42.8438 86.5 42.7559C86.7604 42.6647 87.0501 42.6191 87.3691 42.6191C87.7533 42.6191 88.0918 42.6842 88.3848 42.8145C88.681 42.9447 88.9121 43.1416 89.0781 43.4053C89.2474 43.6657 89.332 43.9928 89.332 44.3867V46.8477C89.332 47.0234 89.3467 47.2106 89.376 47.4092C89.4085 47.6077 89.4557 47.7786 89.5176 47.9219V48H88.5752C88.5296 47.8958 88.4938 47.7575 88.4678 47.585C88.4417 47.4092 88.4287 47.2464 88.4287 47.0967ZM88.585 44.7969L88.5947 45.4316H87.6816C87.4245 45.4316 87.195 45.4528 86.9932 45.4951C86.7913 45.5342 86.6221 45.5944 86.4854 45.6758C86.3486 45.7572 86.2445 45.8597 86.1729 45.9834C86.1012 46.1038 86.0654 46.2454 86.0654 46.4082C86.0654 46.5742 86.1029 46.7256 86.1777 46.8623C86.2526 46.999 86.3649 47.1081 86.5146 47.1895C86.6676 47.2676 86.8548 47.3066 87.0762 47.3066C87.3529 47.3066 87.597 47.248 87.8086 47.1309C88.0202 47.0137 88.1878 46.8704 88.3115 46.7012C88.4385 46.5319 88.5068 46.3675 88.5166 46.208L88.9023 46.6426C88.8796 46.7793 88.8177 46.9307 88.7168 47.0967C88.6159 47.2627 88.4808 47.4222 88.3115 47.5752C88.1455 47.7249 87.9469 47.8503 87.7158 47.9512C87.488 48.0488 87.2308 48.0977 86.9443 48.0977C86.5863 48.0977 86.2721 48.0277 86.002 47.8877C85.735 47.7477 85.5267 47.5605 85.377 47.3262C85.2305 47.0885 85.1572 46.8232 85.1572 46.5303C85.1572 46.2471 85.2126 45.998 85.3232 45.7832C85.4339 45.5651 85.5934 45.3844 85.8018 45.2412C86.0101 45.0947 86.2607 44.984 86.5537 44.9092C86.8467 44.8343 87.1738 44.7969 87.5352 44.7969H88.585ZM92.045 43.5469V48H91.1416V42.7168H92.0205L92.045 43.5469ZM93.6953 42.6875L93.6905 43.5273C93.6156 43.5111 93.544 43.5013 93.4756 43.498C93.4105 43.4915 93.3356 43.4883 93.251 43.4883C93.0427 43.4883 92.8588 43.5208 92.6992 43.5859C92.5397 43.651 92.4047 43.7422 92.294 43.8594C92.1833 43.9766 92.0954 44.1165 92.0303 44.2793C91.9685 44.4388 91.9278 44.6146 91.9082 44.8066L91.6543 44.9531C91.6543 44.6341 91.6853 44.3346 91.7471 44.0547C91.8122 43.7747 91.9115 43.5273 92.045 43.3125C92.1784 43.0944 92.3477 42.9251 92.5528 42.8047C92.7611 42.681 93.0085 42.6191 93.295 42.6191C93.3601 42.6191 93.4349 42.6273 93.5196 42.6436C93.6042 42.6566 93.6628 42.6712 93.6953 42.6875ZM97.8389 47.0967V44.377C97.8389 44.1686 97.7966 43.988 97.712 43.835C97.6306 43.6787 97.5069 43.5583 97.3409 43.4736C97.1749 43.389 96.9698 43.3467 96.7256 43.3467C96.4978 43.3467 96.2976 43.3857 96.1251 43.4639C95.9558 43.542 95.8223 43.6445 95.7247 43.7715C95.6303 43.8984 95.5831 44.0352 95.5831 44.1816H94.6797C94.6797 43.9928 94.7286 43.8057 94.8262 43.6201C94.9239 43.4346 95.0639 43.2669 95.2462 43.1172C95.4317 42.9642 95.6531 42.8438 95.9102 42.7559C96.1706 42.6647 96.4603 42.6191 96.7794 42.6191C97.1635 42.6191 97.502 42.6842 97.795 42.8145C98.0912 42.9447 98.3223 43.1416 98.4883 43.4053C98.6576 43.6657 98.7422 43.9928 98.7422 44.3867V46.8477C98.7422 47.0234 98.7569 47.2106 98.7862 47.4092C98.8187 47.6077 98.8659 47.7786 98.9278 47.9219V48H97.9854C97.9398 47.8958 97.904 47.7575 97.878 47.585C97.8519 47.4092 97.8389 47.2464 97.8389 47.0967ZM97.9952 44.7969L98.0049 45.4316H97.0919C96.8347 45.4316 96.6052 45.4528 96.4034 45.4951C96.2016 45.5342 96.0323 45.5944 95.8956 45.6758C95.7588 45.7572 95.6547 45.8597 95.5831 45.9834C95.5115 46.1038 95.4756 46.2454 95.4756 46.4082C95.4756 46.5742 95.5131 46.7256 95.5879 46.8623C95.6628 46.999 95.7751 47.1081 95.9249 47.1895C96.0779 47.2676 96.265 47.3066 96.4864 47.3066C96.7631 47.3066 97.0072 47.248 97.2188 47.1309C97.4304 47.0137 97.598 46.8704 97.7217 46.7012C97.8487 46.5319 97.917 46.3675 97.9268 46.208L98.3126 46.6426C98.2898 46.7793 98.2279 46.9307 98.127 47.0967C98.0261 47.2627 97.891 47.4222 97.7217 47.5752C97.5557 47.7249 97.3572 47.8503 97.126 47.9512C96.8982 48.0488 96.641 48.0977 96.3545 48.0977C95.9965 48.0977 95.6823 48.0277 95.4122 47.8877C95.1452 47.7477 94.9369 47.5605 94.7872 47.3262C94.6407 47.0885 94.5674 46.8232 94.5674 46.5303C94.5674 46.2471 94.6228 45.998 94.7335 45.7832C94.8441 45.5651 95.0036 45.3844 95.212 45.2412C95.4203 45.0947 95.671 44.984 95.9639 44.9092C96.2569 44.8343 96.584 44.7969 96.9454 44.7969H97.9952ZM74.9511 56.46V59.0625C74.8632 59.1927 74.7232 59.3392 74.5312 59.502C74.3391 59.6615 74.0738 59.8014 73.7353 59.9219C73.4 60.0391 72.9671 60.0977 72.4365 60.0977C72.0035 60.0977 71.6048 60.0228 71.2402 59.873C70.8788 59.7201 70.5647 59.4987 70.2978 59.209C70.0341 58.916 69.829 58.5612 69.6826 58.1445C69.5393 57.7246 69.4677 57.2493 69.4677 56.7188V56.167C69.4677 55.6364 69.5296 55.1628 69.6533 54.7461C69.7802 54.3294 69.9658 53.9762 70.2099 53.6865C70.454 53.3936 70.7535 53.1722 71.1083 53.0225C71.4632 52.8695 71.8701 52.793 72.329 52.793C72.8727 52.793 73.3268 52.8874 73.6913 53.0762C74.0592 53.2617 74.3456 53.5189 74.5507 53.8477C74.7591 54.1764 74.8925 54.5508 74.9511 54.9707H74.0087C73.9664 54.7135 73.8818 54.4792 73.7548 54.2676C73.6311 54.056 73.4537 53.8867 73.2226 53.7598C72.9915 53.6296 72.6936 53.5645 72.329 53.5645C72.0003 53.5645 71.7154 53.6247 71.4746 53.7451C71.2337 53.8656 71.0351 54.0381 70.8788 54.2627C70.7226 54.4873 70.6054 54.7591 70.5273 55.0781C70.4524 55.3971 70.415 55.7568 70.415 56.1572V56.7188C70.415 57.1289 70.4622 57.4951 70.5566 57.8174C70.6542 58.1396 70.7926 58.4147 70.9716 58.6426C71.1507 58.8672 71.3639 59.0381 71.6113 59.1553C71.8619 59.2725 72.1386 59.3311 72.4413 59.3311C72.7766 59.3311 73.0484 59.3034 73.2568 59.248C73.4651 59.1895 73.6279 59.1211 73.7451 59.043C73.8622 58.9616 73.9518 58.8851 74.0136 58.8135V57.2217H72.3681V56.46H74.9511ZM79.8808 59.0967V56.377C79.8808 56.1686 79.8385 55.988 79.7539 55.835C79.6725 55.6787 79.5488 55.5583 79.3828 55.4736C79.2168 55.389 79.0117 55.3467 78.7675 55.3467C78.5397 55.3467 78.3395 55.3857 78.167 55.4639C77.9977 55.542 77.8642 55.6445 77.7666 55.7715C77.6722 55.8984 77.625 56.0352 77.625 56.1816H76.7217C76.7217 55.9928 76.7705 55.8057 76.8681 55.6201C76.9658 55.4346 77.1058 55.2669 77.2881 55.1172C77.4736 54.9642 77.695 54.8438 77.9521 54.7559C78.2125 54.6647 78.5023 54.6191 78.8213 54.6191C79.2054 54.6191 79.5439 54.6842 79.8369 54.8145C80.1331 54.9447 80.3642 55.1416 80.5302 55.4053C80.6995 55.6657 80.7842 55.9928 80.7842 56.3867V58.8477C80.7842 59.0234 80.7988 59.2106 80.8281 59.4092C80.8606 59.6077 80.9078 59.7786 80.9697 59.9219V60H80.0273C79.9817 59.8958 79.9459 59.7575 79.9199 59.585C79.8939 59.4092 79.8808 59.2464 79.8808 59.0967ZM80.0371 56.7969L80.0468 57.4316H79.1338C78.8766 57.4316 78.6471 57.4528 78.4453 57.4951C78.2435 57.5342 78.0742 57.5944 77.9375 57.6758C77.8008 57.7572 77.6966 57.8597 77.625 57.9834C77.5534 58.1038 77.5175 58.2454 77.5175 58.4082C77.5175 58.5742 77.555 58.7256 77.6299 58.8623C77.7047 58.999 77.817 59.1081 77.9668 59.1895C78.1198 59.2676 78.3069 59.3066 78.5283 59.3066C78.805 59.3066 79.0491 59.248 79.2607 59.1309C79.4723 59.0137 79.6399 58.8704 79.7636 58.7012C79.8906 58.5319 79.959 58.3675 79.9687 58.208L80.3545 58.6426C80.3317 58.7793 80.2698 58.9307 80.1689 59.0967C80.068 59.2627 79.9329 59.4222 79.7636 59.5752C79.5976 59.7249 79.3991 59.8503 79.1679 59.9512C78.9401 60.0488 78.6829 60.0977 78.3965 60.0977C78.0384 60.0977 77.7243 60.0277 77.4541 59.8877C77.1871 59.7477 76.9788 59.5605 76.8291 59.3262C76.6826 59.0885 76.6093 58.8232 76.6093 58.5303C76.6093 58.2471 76.6647 57.998 76.7754 57.7832C76.886 57.5651 77.0455 57.3844 77.2539 57.2412C77.4622 57.0947 77.7129 56.984 78.0058 56.9092C78.2988 56.8343 78.6259 56.7969 78.9873 56.7969H80.0371ZM83.4971 55.8447V60H82.5938V54.7168H83.4482L83.4971 55.8447ZM83.2822 57.1582L82.9062 57.1436C82.9095 56.7822 82.9632 56.4486 83.0674 56.1426C83.1715 55.8333 83.318 55.5648 83.5068 55.3369C83.6956 55.109 83.9202 54.9333 84.1807 54.8096C84.4443 54.6826 84.7357 54.6191 85.0547 54.6191C85.3151 54.6191 85.5495 54.6549 85.7578 54.7266C85.9661 54.7949 86.1436 54.9056 86.29 55.0586C86.4398 55.2116 86.5537 55.4102 86.6318 55.6543C86.71 55.8952 86.749 56.1898 86.749 56.5381V60H85.8408V56.5283C85.8408 56.2516 85.8001 56.0303 85.7188 55.8643C85.6374 55.695 85.5186 55.5729 85.3623 55.498C85.2061 55.4199 85.014 55.3809 84.7861 55.3809C84.5615 55.3809 84.3564 55.4281 84.1709 55.5225C83.9886 55.6169 83.8307 55.7471 83.6973 55.9131C83.5671 56.0791 83.4645 56.2695 83.3896 56.4844C83.318 56.696 83.2822 56.9206 83.2822 57.1582ZM91.9326 54.7168H92.753V59.8877C92.753 60.3532 92.6586 60.7503 92.4698 61.0791C92.281 61.4079 92.0173 61.6569 91.6787 61.8262C91.3435 61.9987 90.9561 62.085 90.5166 62.085C90.3343 62.085 90.1195 62.0557 89.8721 61.9971C89.628 61.9417 89.3871 61.8457 89.1494 61.709C88.9151 61.5755 88.7181 61.3949 88.5586 61.167L89.0323 60.6299C89.2536 60.8968 89.4847 61.0824 89.7256 61.1865C89.9698 61.2907 90.2106 61.3428 90.4483 61.3428C90.7347 61.3428 90.9821 61.2891 91.1905 61.1816C91.3988 61.0742 91.5599 60.9147 91.6739 60.7031C91.791 60.4948 91.8496 60.2376 91.8496 59.9316V55.8789L91.9326 54.7168ZM88.295 57.417V57.3145C88.295 56.9108 88.3422 56.5446 88.4366 56.2158C88.5342 55.8838 88.6726 55.599 88.8516 55.3613C89.0339 55.1237 89.2536 54.9414 89.5108 54.8145C89.7679 54.6842 90.0576 54.6191 90.3799 54.6191C90.7119 54.6191 91.0017 54.6777 91.2491 54.7949C91.4997 54.9089 91.7113 55.0765 91.8838 55.2979C92.0596 55.516 92.1979 55.7796 92.2989 56.0889C92.3998 56.3981 92.4698 56.748 92.5088 57.1387V57.5879C92.473 57.9753 92.403 58.3236 92.2989 58.6328C92.1979 58.9421 92.0596 59.2057 91.8838 59.4238C91.7113 59.6419 91.4997 59.8096 91.2491 59.9268C90.9984 60.0407 90.7054 60.0977 90.3701 60.0977C90.0544 60.0977 89.7679 60.0309 89.5108 59.8975C89.2569 59.764 89.0388 59.5768 88.8565 59.3359C88.6742 59.0951 88.5342 58.8118 88.4366 58.4863C88.3422 58.1576 88.295 57.8011 88.295 57.417ZM89.1983 57.3145V57.417C89.1983 57.6807 89.2243 57.9281 89.2764 58.1592C89.3317 58.3903 89.4147 58.5938 89.5254 58.7695C89.6394 58.9453 89.7842 59.0837 89.96 59.1846C90.1358 59.2822 90.3457 59.3311 90.5899 59.3311C90.8894 59.3311 91.1367 59.2676 91.3321 59.1406C91.5274 59.0137 91.682 58.846 91.7959 58.6377C91.9131 58.4294 92.0043 58.2031 92.0694 57.959V56.7822C92.0336 56.6032 91.9782 56.4307 91.9034 56.2646C91.8317 56.0954 91.7373 55.9456 91.6201 55.8154C91.5062 55.682 91.3646 55.5762 91.1953 55.498C91.0261 55.4199 90.8275 55.3809 90.5996 55.3809C90.3522 55.3809 90.139 55.4329 89.96 55.5371C89.7842 55.638 89.6394 55.778 89.5254 55.957C89.4147 56.1328 89.3317 56.3379 89.2764 56.5723C89.2243 56.8034 89.1983 57.0508 89.1983 57.3145ZM96.7061 60.0977C96.3383 60.0977 96.0046 60.0358 95.7051 59.9121C95.4089 59.7852 95.1534 59.6077 94.9385 59.3799C94.7269 59.152 94.5642 58.8818 94.4503 58.5693C94.3363 58.2568 94.2794 57.915 94.2794 57.5439V57.3389C94.2794 56.9092 94.3428 56.5267 94.4698 56.1914C94.5967 55.8529 94.7693 55.5664 94.9874 55.332C95.2055 55.0977 95.4529 54.9202 95.7295 54.7998C96.0062 54.6794 96.2927 54.6191 96.5889 54.6191C96.9665 54.6191 97.292 54.6842 97.5655 54.8145C97.8422 54.9447 98.0684 55.127 98.2442 55.3613C98.42 55.5924 98.5502 55.8659 98.6348 56.1816C98.7195 56.4941 98.7618 56.8359 98.7618 57.207V57.6123H94.8165V56.875H97.8585V56.8066C97.8454 56.5723 97.7966 56.3444 97.712 56.123C97.6306 55.9017 97.5004 55.7194 97.3213 55.5762C97.1423 55.4329 96.8982 55.3613 96.5889 55.3613C96.3838 55.3613 96.195 55.4053 96.0225 55.4932C95.85 55.5778 95.7019 55.7048 95.5782 55.874C95.4545 56.0433 95.3585 56.25 95.2901 56.4941C95.2217 56.7383 95.1876 57.0199 95.1876 57.3389V57.5439C95.1876 57.7946 95.2217 58.0306 95.2901 58.252C95.3617 58.4701 95.4642 58.6621 95.5977 58.8281C95.7344 58.9941 95.8988 59.1243 96.0909 59.2188C96.2862 59.3132 96.5075 59.3604 96.7549 59.3604C97.074 59.3604 97.3441 59.2952 97.5655 59.165C97.7868 59.0348 97.9805 58.8607 98.1465 58.6426L98.6934 59.0771C98.5795 59.2497 98.4346 59.4141 98.2588 59.5703C98.0831 59.7266 97.8666 59.8535 97.6094 59.9512C97.3555 60.0488 97.0544 60.0977 96.7061 60.0977Z" fill="white"/>
<defs>
<clipPath id="clip0_274_4622">
<rect width="28" height="28" fill="white" transform="translate(69.5 14)"/>
</clipPath>
</defs>
</svg>
