<svg width="7" height="10" viewBox="0 0 7 10" fill="none" xmlns="http://www.w3.org/2000/svg">
<path fill-rule="evenodd" clip-rule="evenodd" d="M4.23941 0.036358C3.85174 0.145058 3.62502 0.35111 3.39128 0.807203C3.30758 0.970518 3.01444 1.54459 2.73988 2.08293C2.4653 2.62126 2.00946 3.51385 1.72686 4.06648C1.44428 4.61909 1.21307 5.08567 1.21307 5.10331C1.21307 5.12095 1.22984 5.15577 1.25031 5.18067C1.30388 5.2458 3.38294 6.372 3.44959 6.372C3.48003 6.372 3.51965 6.35467 3.53764 6.33351C3.59442 6.26667 5.83189 1.8679 5.87622 1.73595C5.89948 1.66669 5.92377 1.53085 5.93019 1.43407C5.96425 0.920809 5.70052 0.464474 5.22106 0.206997C4.94207 0.0571657 4.80813 0.0140548 4.58626 0.00266129C4.43886 -0.00490507 4.35893 0.0028592 4.23941 0.036358ZM5.69926 3.81903C5.6325 3.8411 5.5358 3.88465 5.48432 3.91581C5.35692 3.99297 5.16556 4.21147 5.10145 4.35297C5.05065 4.46508 4.99134 4.69744 5.00888 4.71556C5.01354 4.7204 5.11373 4.66418 5.23153 4.59065C5.53929 4.39848 5.64421 4.36372 5.91638 4.36372C6.19737 4.36372 6.28684 4.39551 6.68583 4.63715C6.84858 4.73571 6.98733 4.8106 6.99414 4.80354C7.02007 4.77675 6.95509 4.48567 6.8942 4.35581C6.77422 4.09991 6.56782 3.91287 6.30546 3.82227C6.13576 3.76367 5.87107 3.76224 5.69926 3.81903ZM5.79933 4.68019C5.74081 4.6887 5.66453 4.70716 5.62986 4.72124C5.53271 4.76065 5.04382 5.07578 5.04382 5.09898C5.04382 5.15718 5.18905 5.40401 5.28499 5.50884C5.47985 5.7218 5.71014 5.82212 6.00409 5.82212C6.28941 5.82212 6.54544 5.70631 6.73046 5.49358C6.81389 5.39766 6.9519 5.16754 6.9347 5.15302C6.88043 5.10725 6.20533 4.72139 6.15048 4.7048C6.03984 4.67133 5.91879 4.66284 5.79933 4.68019ZM1.22756 5.86171C1.1415 5.95999 1.12184 6.08107 1.10717 6.60295L1.09296 7.10884L0.725033 7.94442C0.332807 8.83521 0.225716 9.06415 0.0872347 9.30801C0.0147484 9.43567 0 9.48136 0 9.57834C0 9.70072 0.0485653 9.82831 0.120881 9.8959C0.22163 9.99004 0.418361 10.0279 0.546627 9.97781C0.65276 9.93637 0.724267 9.84186 0.853449 9.57231C0.923019 9.42714 1.20718 8.92235 1.48491 8.45055L1.98986 7.59274L2.3381 7.33621C2.73384 7.04468 2.80752 6.97713 2.87658 6.84261C2.91984 6.75828 2.92193 6.74328 2.89405 6.71642C2.8687 6.69201 1.2866 5.82212 1.26753 5.82212C1.26462 5.82212 1.24663 5.83994 1.22756 5.86171Z" fill="#EF4747"/>
</svg>
