 <svg
                       
                              viewBox="0 0 21 21"
                              fill="none"
                              xmlns="http://www.w3.org/2000/svg"
                            >
                              <path
                                fill-rule="evenodd"
                                clip-rule="evenodd"
                                d="M10.5 21C16.299 21 21 16.299 21 10.5C21 4.70101 16.299 0 10.5 0C4.70099 0 0 4.70101 0 10.5C0 16.299 4.70099 21 10.5 21ZM10.1159 13.4069L5.65731 11.0327V13.7125C5.72783 14.9427 7.73379 15.9457 10.1002 16.0162C12.5528 16.0867 14.3942 14.9427 14.5431 13.7125V11.0327L10.1159 13.4069ZM2.90731 8.58804L10.1162 4.67797L17.3096 8.58804L16.236 9.19139V14.0339L16.5495 15.6403H15.092L15.4054 14.0339V9.59102L10.1162 12.4981L2.90731 8.58804Z"
                                fill="#748ee8"
                              ></path>
                            </svg>