<svg width="147" height="51" viewBox="0 0 147 51" fill="none" xmlns="http://www.w3.org/2000/svg">
<path d="M63.7828 10.3153C58.5686 11.2009 53.1437 12.4773 51.2739 13.2587C50.9842 13.3889 50.3259 13.6494 49.8255 13.8057C48.6931 14.2225 47.8768 14.5611 45.2433 15.7332C44.1109 16.2542 43.0576 16.5928 42.8732 16.4886C42.7152 16.4105 42.6625 16.4105 42.7679 16.5407C42.8732 16.6449 42.2939 17.0877 41.4512 17.5305C38.5017 19.0413 38.5017 19.0673 38.5017 21.2293C38.5017 23.5736 38.291 23.7038 36.0262 22.6619C35.0255 22.193 34.1302 21.9586 33.8405 22.0368C32.7608 22.4275 29.3636 25.2406 27.7572 27.09C23.807 31.6744 23.57 34.8782 27.0462 36.6755C28.1522 37.2225 31.1807 37.7695 33.2611 37.7695C37.5536 37.7695 44.2163 36.0243 49.5622 33.5238C50.7999 32.9507 51.9323 32.4819 52.1166 32.4819C52.301 32.4819 52.38 32.3777 52.301 32.2474C52.222 32.1432 52.301 32.0391 52.459 32.0391C52.8013 32.0391 58.7003 28.4184 59.7273 27.5589C61.5444 26.0741 63.3615 24.2769 64.2305 23.1047C64.9942 22.0889 65.1786 21.5679 65.2839 20.2134C65.4156 18.7808 65.3629 18.5203 64.8625 18.0515C63.0191 16.3323 56.9095 16.6449 52.1956 18.6766C47.1131 20.8646 40.8191 25.0322 39.5287 27.064C38.5807 28.5226 38.5017 29.9552 39.3444 30.7367C40.7138 32.013 44.6113 31.0232 47.7451 28.6268C48.5351 28.0277 50.8262 25.9179 52.854 23.9643C57.1465 19.7967 58.3843 18.9371 60.1223 18.911C61.7024 18.885 62.4661 19.5101 62.4661 20.7865C62.4661 23.287 53.8547 29.252 46.4547 31.8828C45.375 32.2474 44.427 32.5079 44.2953 32.4298C44.1636 32.3516 44.0056 32.4037 43.9266 32.534C43.7423 32.7944 40.6348 33.4977 38.449 33.7321C36.6846 33.9145 35.1045 33.5498 34.3935 32.7944C33.7351 32.0651 33.7878 30.5022 34.5778 29.252C35.4469 27.8454 38.2647 24.9801 38.5807 25.1885C38.7387 25.2667 38.765 25.2406 38.686 25.0843C38.4754 24.7718 40.6611 23.0526 43.6369 21.2032C46.323 19.5101 48.7722 18.1817 48.7722 18.3901C48.7722 18.4943 48.9565 18.4161 49.1935 18.2078C49.8255 17.6868 53.328 16.176 53.565 16.3063C53.6704 16.3844 53.7757 16.3063 53.7757 16.15C53.7757 15.9677 53.9601 15.9156 54.2234 15.9937C54.4867 16.0979 54.5921 16.0979 54.4867 15.9937C54.3814 15.8895 54.9344 15.5769 55.6981 15.2904C57.0149 14.7955 57.6205 14.6132 61.0177 13.6494C62.0711 13.3629 63.5985 13.1806 65.5209 13.1806C68.0754 13.1545 68.5494 13.2327 69.0234 13.6494C69.9451 14.4829 69.6028 16.3323 68.2597 17.8431C67.97 18.1557 67.7593 18.9371 67.6803 19.8227C67.6013 20.7604 67.3643 21.5679 66.9956 22.0628C66.3373 22.9745 66.2846 23.4694 66.7323 23.9122C67.4697 24.6415 68.3124 24.2508 70.4718 22.0628C75.7914 16.8012 76.5551 13.1806 72.8156 11.0186C71.6305 10.3414 71.3935 10.2893 67.9963 10.2372C66.0476 10.2111 64.1515 10.2632 63.7828 10.3153Z" fill="white"/>
<path d="M85.8246 11.3565C84.7976 11.6691 84.4289 11.9556 83.7705 12.9454C83.0595 14.0915 83.0068 14.3259 83.0068 16.9046C83.0068 19.3531 83.0858 19.7959 83.6915 21.0202C84.0866 21.7755 84.4816 22.3486 84.5606 22.3225C84.6396 22.2965 84.9819 22.4267 85.3243 22.6091C85.693 22.8174 86.7463 22.9216 88.3527 22.8695L90.7755 22.7914L90.8545 19.7178L90.9335 16.6442L89.1428 16.7223L87.352 16.8004L87.273 17.634C87.194 18.4414 87.2467 18.4935 87.9841 18.4935C88.7741 18.4935 88.8004 18.5196 88.8004 19.7959V21.0983H87.8524C85.9036 21.0983 85.1136 19.9262 85.1136 17.0609C85.1136 15.1073 85.5876 13.7268 86.4303 13.284C86.7463 13.1277 87.8261 13.0235 88.8794 13.0496L90.7755 13.1017L90.8545 12.2942C90.9335 11.5649 90.8545 11.4867 90.0645 11.3565C87.7734 11.0179 86.9833 11.0179 85.8246 11.3565Z" fill="white"/>
<path d="M119.27 11.1231C119.033 11.3315 119.033 21.9589 119.244 22.5059C119.428 22.9487 121.061 23.105 121.298 22.6882C121.535 22.3496 121.561 11.5659 121.35 11.2273C121.14 10.9147 119.56 10.8365 119.27 11.1231Z" fill="white"/>
<path d="M112.054 13.9875C111.264 14.0917 111.185 14.1959 111.185 14.9513V15.7848L112.844 15.6806C114.634 15.5764 115.398 15.9411 115.398 16.9049C115.398 17.2956 115.108 17.3998 113.976 17.53C112.027 17.7123 111 18.2854 110.71 19.3533C110.105 21.4632 111.132 22.9219 113.212 22.9219C113.844 22.9219 114.608 22.7916 114.871 22.6614C115.214 22.4791 115.424 22.4791 115.53 22.6614C115.609 22.7916 116.109 22.9219 116.609 22.9219H117.505V19.4575C117.505 17.5821 117.426 15.7848 117.347 15.4722C117.031 14.3262 114.529 13.6229 112.054 13.9875ZM115.398 19.9264C115.398 20.6818 115.266 20.8902 114.687 21.1246C113.555 21.5414 112.765 21.2288 112.765 20.3692C112.765 19.3794 113.212 19.0147 114.397 19.0147C115.372 19.0147 115.398 19.0408 115.398 19.9264Z" fill="white"/>
<path d="M93.6727 14.9513C92.988 15.6806 92.8037 16.1234 92.672 17.3737C92.277 21.1246 93.5147 22.9219 96.5169 22.9219C97.8073 22.9219 98.0969 22.8177 98.9133 22.0363C99.44 21.5674 99.8877 21.2288 99.9667 21.2809C100.019 21.333 100.072 20.239 100.098 18.8324C100.151 14.9513 99.4137 14.0657 96.1219 14.0657C94.6471 14.0657 94.4628 14.1438 93.6727 14.9513ZM97.6229 16.4881C98.2286 17.3477 98.1496 19.9264 97.4912 20.5776C96.8592 21.2027 95.9902 21.2548 95.3318 20.6557C94.9631 20.3432 94.8578 19.8483 94.8578 18.4938C94.8578 17.504 94.9895 16.5923 95.2001 16.3579C95.8585 15.5243 96.9909 15.6025 97.6229 16.4881Z" fill="white"/>
<path d="M101.546 14.6378C101.652 14.9764 101.836 15.5755 101.968 16.0184C103.706 22.0875 103.916 22.6605 104.601 22.8428C105.233 22.9991 105.259 23.2336 104.733 24.2234C104.39 24.8746 104.153 25.0048 103.416 25.0048C102.679 25.0048 102.468 25.109 102.336 25.6299C102.099 26.5937 102.389 26.8281 103.811 26.8281C104.97 26.8281 105.18 26.7239 105.891 25.8644C106.313 25.3434 106.787 24.4317 106.945 23.8587C107.076 23.2596 107.629 21.3321 108.156 19.5348C109.183 16.0444 109.578 14.5597 109.605 14.2471C109.605 14.1429 109.104 14.0648 108.472 14.0648H107.366L106.602 17.2426C106.181 19.0138 105.76 20.5506 105.707 20.6809C105.549 20.9674 105.022 19.4045 104.469 16.93C103.89 14.2992 103.811 14.2211 102.494 14.1169C101.441 14.0387 101.388 14.0648 101.546 14.6378Z" fill="white"/>
<path d="M34.5518 18.4149C34.5518 19.561 34.6308 19.7172 35.5525 20.3163C36.0792 20.681 36.6059 20.9936 36.7375 21.0457C36.8429 21.0978 36.9219 20.4987 36.9219 19.6912C36.9219 18.2586 36.8955 18.2325 35.8685 17.7116C35.3155 17.4251 34.7624 17.1906 34.6834 17.1906C34.6044 17.1906 34.5518 17.7376 34.5518 18.4149Z" fill="white"/>
<path d="M63.9411 25.2934C62.8877 26.5437 63.1774 27.1428 64.5204 26.4655C65.5211 25.9446 65.9425 25.4236 65.7318 24.9027C65.4685 24.2515 64.6784 24.4078 63.9411 25.2934Z" fill="white"/>
<path d="M96.6216 24.8495C95.3312 25.3184 94.9362 25.657 94.3832 26.8031C93.7512 28.1316 93.7512 32.8201 94.3832 34.1486C95.2259 35.8677 96.3846 36.4668 98.9127 36.4668C101.072 36.4668 101.467 36.2324 101.257 35.0863C101.125 34.409 101.072 34.383 99.2024 34.383C96.7006 34.383 96.3583 34.0444 96.2266 31.3615C96.0949 29.1474 96.2793 27.9232 96.806 27.1938C97.0957 26.8031 97.6223 26.6729 99.2551 26.5687C101.072 26.4645 101.309 26.3864 101.388 25.9175C101.415 25.631 101.362 25.2663 101.23 25.084C100.914 24.5891 97.7804 24.4067 96.6216 24.8495Z" fill="white"/>
<path d="M84.4026 25.4226C83.6915 25.9696 83.5335 26.2561 83.5335 27.1157C83.5335 28.2357 83.8232 28.9911 84.6396 29.8507C85.1399 30.3977 85.1399 30.4237 84.4026 30.9968C83.4282 31.7522 83.0332 32.5075 83.0068 33.6015C83.0068 35.3988 84.4026 36.4668 86.799 36.4668C87.747 36.4668 88.5634 36.2845 89.1428 35.9719C90.0118 35.477 90.0382 35.477 90.4068 35.9719C90.7492 36.4668 91.6972 36.6491 92.0396 36.2845C92.1449 36.2063 91.9342 35.7375 91.5656 35.2686C90.9335 34.4611 90.9335 34.383 91.3022 33.4974C91.5129 33.0025 91.6972 32.0908 91.6972 31.5177C91.6972 30.6582 91.6182 30.4758 91.1969 30.4758C90.7755 30.4758 90.6175 30.7624 90.3542 32.0647L90.0382 33.6276L88.6424 32.2731L87.2204 30.8926L88.5371 29.6944C89.3271 28.9911 89.8538 28.2618 89.8538 27.9492C89.8538 27.6366 89.9328 27.2199 90.0118 26.9854C90.1172 26.725 89.8275 26.2301 89.2481 25.657C88.4054 24.8235 88.1947 24.7454 86.799 24.7454C85.5349 24.7454 85.0873 24.8756 84.4026 25.4226ZM88.2737 26.4645C88.8268 27.0896 88.4581 28.1836 87.4047 29.0172L86.3777 29.8246L85.7456 29.0432C84.9556 28.0795 84.6922 27.1417 85.0346 26.5947C85.5086 25.8394 87.6944 25.7352 88.2737 26.4645ZM86.2987 31.7261C86.4567 31.8303 87.1414 32.5336 87.8524 33.2629C89.0901 34.5653 89.1164 34.5914 88.5371 34.9039C87.668 35.3728 85.693 35.2946 85.0873 34.7476C84.4026 34.1485 84.4552 32.8722 85.1663 32.1168C85.772 31.4656 85.9036 31.4135 86.2987 31.7261Z" fill="white"/>
<path d="M104.47 27.8459C103.074 28.6794 102.758 29.4348 102.758 31.9354C102.758 33.7848 102.863 34.3057 103.311 34.9309C104.364 36.3895 106.629 36.9365 108.288 36.077C109.71 35.3476 110.131 34.4099 110.131 32.0396C110.131 29.6171 109.736 28.6273 108.472 27.872C107.393 27.1947 105.523 27.1947 104.47 27.8459ZM107.709 29.9037C107.867 30.1381 108.025 31.0237 108.025 31.9093C108.025 33.6806 107.709 34.2797 106.682 34.5141C105.523 34.8006 104.865 33.8629 104.865 31.9354C104.891 30.3465 105.154 29.6432 105.918 29.3827C106.471 29.1483 107.314 29.4088 107.709 29.9037Z" fill="white"/>
<path d="M112.291 35.0857C112.37 36.3359 112.37 36.3359 113.292 36.3359C114.213 36.3359 114.213 36.3359 114.213 35.1638C114.213 33.9916 114.213 33.9916 113.213 33.9135L112.212 33.8354L112.291 35.0857Z" fill="white"/>
</svg>
