<svg width="40" height="38" viewBox="0 0 40 38" fill="none" xmlns="http://www.w3.org/2000/svg">
<path d="M38.5146 0H0.514648V38H38.5146V0ZM38.1235 37.6128H0.905825V0.387191H38.1235V37.6128Z" fill="white"/>
<g clip-path="url(#clip0_342_295)">
<path d="M26.8292 11.2273C24.1869 11.6761 21.4378 12.3229 20.4903 12.7189C20.3435 12.7849 20.0098 12.9169 19.7563 12.9961C19.1824 13.2073 18.7687 13.3789 17.4342 13.9728C16.8604 14.2368 16.3266 14.4084 16.2331 14.3556C16.1531 14.316 16.1264 14.316 16.1798 14.382C16.2331 14.4348 15.9395 14.6592 15.5125 14.8836C14.0178 15.6492 14.0178 15.6624 14.0178 16.758C14.0178 17.946 13.9111 18.012 12.7634 17.484C12.2563 17.2464 11.8025 17.1276 11.6557 17.1672C11.1086 17.3652 9.38705 18.7908 8.57299 19.728C6.57122 22.0511 6.45111 23.6747 8.21267 24.5855C8.77317 24.8627 10.3079 25.1399 11.3621 25.1399C13.5374 25.1399 16.9137 24.2555 19.6228 22.9883C20.25 22.6979 20.8239 22.4603 20.9173 22.4603C21.0107 22.4603 21.0508 22.4075 21.0107 22.3415C20.9707 22.2887 21.0107 22.2359 21.0908 22.2359C21.2643 22.2359 24.2536 20.4012 24.7741 19.9656C25.6949 19.2132 26.6157 18.3024 27.0561 17.7084C27.4431 17.1936 27.5365 16.9296 27.5899 16.2432C27.6566 15.5172 27.6299 15.3852 27.3764 15.1476C26.4422 14.2764 23.3461 14.4348 20.9573 15.4644C18.3817 16.5732 15.1922 18.6852 14.5383 19.7148C14.0579 20.454 14.0178 21.1799 14.4449 21.5759C15.1388 22.2227 17.1139 21.7211 18.702 20.5068C19.1024 20.2032 20.2634 19.134 21.291 18.144C23.4662 16.032 24.0935 15.5964 24.9742 15.5832C25.775 15.57 26.162 15.8868 26.162 16.5336C26.162 17.8008 21.7981 20.8236 18.0481 22.1567C17.5009 22.3415 17.0205 22.4735 16.9538 22.4339C16.8871 22.3943 16.807 22.4207 16.7669 22.4867C16.6735 22.6187 15.0988 22.9751 13.9911 23.0939C13.097 23.1863 12.2963 23.0015 11.936 22.6187C11.6024 22.2491 11.629 21.4571 12.0294 20.8236C12.4698 20.1108 13.8977 18.6588 14.0579 18.7644C14.1379 18.804 14.1513 18.7908 14.1113 18.7116C14.0045 18.5532 15.1121 17.682 16.6201 16.7448C17.9814 15.8868 19.2225 15.2136 19.2225 15.3192C19.2225 15.372 19.3159 15.3324 19.436 15.2268C19.7563 14.9628 21.5312 14.1972 21.6513 14.2632C21.7047 14.3028 21.758 14.2632 21.758 14.184C21.758 14.0916 21.8515 14.0652 21.9849 14.1048C22.1184 14.1576 22.1717 14.1576 22.1184 14.1048C22.065 14.052 22.3452 13.8936 22.7322 13.7485C23.3995 13.4977 23.7064 13.4053 25.428 12.9169C25.9618 12.7717 26.7358 12.6793 27.71 12.6793C29.0045 12.6661 29.2447 12.7057 29.4849 12.9169C29.952 13.3393 29.7785 14.2764 29.0979 15.042C28.9511 15.2004 28.8443 15.5964 28.8043 16.0452C28.7643 16.5204 28.6442 16.9296 28.4573 17.1804C28.1237 17.6424 28.097 17.8932 28.3239 18.1176C28.6975 18.4872 29.1246 18.2892 30.2189 17.1804C32.9146 14.514 33.3016 12.6793 31.4066 11.5837C30.8061 11.2405 30.686 11.2141 28.9645 11.1877C27.9769 11.1745 27.0161 11.2009 26.8292 11.2273Z" fill="white"/>
<path d="M12.0161 15.3323C12.0161 15.9131 12.0561 15.9923 12.5232 16.2959C12.7901 16.4807 13.057 16.6391 13.1238 16.6655C13.1771 16.6919 13.2172 16.3883 13.2172 15.9791C13.2172 15.2531 13.2038 15.2399 12.6834 14.9759C12.4031 14.8307 12.1229 14.7119 12.0828 14.7119C12.0428 14.7119 12.0161 14.9891 12.0161 15.3323Z" fill="white"/>
<path d="M26.9092 18.817C26.3754 19.4506 26.5222 19.7542 27.2028 19.411C27.7099 19.147 27.9234 18.883 27.8166 18.6191C27.6832 18.2891 27.2828 18.3683 26.9092 18.817Z" fill="white"/>
</g>
<defs>
<clipPath id="clip0_342_295">
<rect width="33" height="25.7396" fill="white" transform="translate(3 6)"/>
</clipPath>
</defs>
</svg>
