<svg width="24" height="24" viewBox="0 0 24 24" fill="none" xmlns="http://www.w3.org/2000/svg">
<path fill-rule="evenodd" clip-rule="evenodd" d="M12 2V4C7.6 4 4 7.6 4 12C4 16.4 7.6 20 12 20C16.4 20 20 16.4 20 12H22C22 17.5 17.5 22 12 22C6.5 22 2 17.5 2 12C2 6.5 6.5 2 12 2ZM12 6V8C9.8 8 8 9.8 8 12C8 14.2 9.8 16 12 16C14.2 16 16 14.2 16 12H18C18 15.3 15.3 18 12 18C8.7 18 6 15.3 6 12C6 8.7 8.7 6 12 6Z" fill="white"></path>
<path fill-rule="evenodd" clip-rule="evenodd" d="M12 14C10.9 14 10 13.1 10 12C10 10.9 10.9 10 12 10C13.1 10 14 10.9 14 12C14 13.1 13.1 14 12 14Z" fill="white"></path>
</svg>