<svg width="22" height="22" viewBox="0 0 22 22" fill="none" xmlns="http://www.w3.org/2000/svg">
<path d="M13.2803 18.8086C15.4103 18.4786 17.7803 18.2686 20.2803 18.2686V22.2686H3.28027C3.28027 21.6186 6.48027 20.1286 11.2803 19.1686V12.6686C10.4403 12.9186 9.73027 13.4786 9.28027 14.2186C8.97012 13.6996 8.53067 13.27 8.00485 12.9717C7.47903 12.6734 6.88482 12.5166 6.28027 12.5166C5.67573 12.5166 5.08152 12.6734 4.5557 12.9717C4.02988 13.27 3.59043 13.6996 3.28027 14.2186C3.31027 10.6386 6.78027 7.69855 11.2803 7.30855V7.26855C11.2803 7.00334 11.3856 6.74898 11.5732 6.56145C11.7607 6.37391 12.0151 6.26855 12.2803 6.26855C12.5455 6.26855 12.7998 6.37391 12.9874 6.56145C13.1749 6.74898 13.2803 7.00334 13.2803 7.26855V7.30855C17.7803 7.69855 21.2403 10.6386 21.2803 14.2186C20.9701 13.6996 20.5307 13.27 20.0048 12.9717C19.479 12.6734 18.8848 12.5166 18.2803 12.5166C17.6757 12.5166 17.0815 12.6734 16.5557 12.9717C16.0299 13.27 15.5904 13.6996 15.2803 14.2186C14.8303 13.4786 14.1203 12.9186 13.2803 12.6586V18.8086ZM5.28027 2.26855C5.28027 2.92516 5.15094 3.57534 4.89967 4.18197C4.6484 4.7886 4.2801 5.3398 3.81581 5.80409C3.35151 6.26838 2.80032 6.63668 2.19369 6.88795C1.58706 7.13923 0.936883 7.26855 0.280273 7.26855V2.26855H5.28027Z" fill="#DADADA"/>
</svg>
