<svg width="24" height="24" viewBox="0 0 24 24" fill="none" xmlns="http://www.w3.org/2000/svg">
<g clip-path="url(#clip0_1142_2494)">
<path d="M10.5002 3.00005C10.5092 3.39956 10.4384 3.79684 10.2918 4.16858C10.1451 4.54033 9.92572 4.87903 9.6464 5.16481C9.36709 5.45059 9.03349 5.67768 8.66519 5.83276C8.2969 5.98784 7.90134 6.06777 7.50173 6.06787C7.10212 6.06797 6.70651 5.98823 6.33814 5.83334C5.96977 5.67845 5.63606 5.45152 5.3566 5.16588C5.07714 4.88024 4.85756 4.54165 4.71075 4.16998C4.56395 3.79831 4.49288 3.40106 4.50171 3.00155C4.51904 2.21771 4.84255 1.4718 5.40297 0.923492C5.96339 0.375189 6.71619 0.0680672 7.50023 0.0678712C8.28426 0.0676751 9.03722 0.374421 9.59791 0.922443C10.1586 1.47047 10.4825 2.21621 10.5002 3.00005Z" fill="#DADADA"/>
<path d="M14.6995 2.7C14.3995 1.95 12.1495 2.55 11.6995 3.45C11.3995 3.9 11.3995 5.25 9.89949 6.3C8.69949 7.05 7.49949 7.05 7.49949 7.05C7.04949 7.95 7.34948 8.7 7.79949 9.45C8.54949 10.8 8.69949 12.15 8.84949 13.65C8.99949 15.6 8.09948 17.25 5.39948 18.45C4.19948 18.9 3.44948 19.8 3.89948 21.3C3.89948 21.3 6.89949 20.85 8.54949 19.5C10.7995 17.7 11.2495 16.05 11.2495 16.05C11.2495 16.05 11.3995 17.1 11.2495 18.9C11.0995 20.4 10.9495 21.15 10.6495 22.2C10.3495 23.25 11.0995 24 11.9995 24C12.8995 24 13.4995 23.4 13.4995 22.5L13.9495 19.65C14.3995 16.5 13.9495 13.2 12.7495 10.2C12.7495 10.05 12.5995 10.05 12.5995 9.9C11.6995 7.5 12.8995 6 13.4995 5.4C13.9495 4.8 15.2995 3.6 14.6995 2.7ZM17.9995 0V15H19.4995V6L23.9995 3L17.9995 0ZM23.9995 15C23.9995 15.3978 23.8414 15.7794 23.5601 16.0607C23.2788 16.342 22.8973 16.5 22.4995 16.5C22.1017 16.5 21.7201 16.342 21.4388 16.0607C21.1575 15.7794 20.9995 15.3978 20.9995 15C20.9995 14.6022 21.1575 14.2206 21.4388 13.9393C21.7201 13.658 22.1017 13.5 22.4995 13.5C22.8973 13.5 23.2788 13.658 23.5601 13.9393C23.8414 14.2206 23.9995 14.6022 23.9995 15ZM1.49948 12.6L7.04949 7.05L5.99949 6.6L0.299485 12C0.299485 12 -0.300515 13.05 0.449485 14.55C1.19948 16.05 2.84948 15 2.84948 15C3.44948 14.7 3.14948 14.4 2.84948 14.1C2.54948 13.8 1.49948 12.6 1.49948 12.6Z" fill="#DADADA"/>
</g>
<defs>
<clipPath id="clip0_1142_2494">
<rect width="24" height="24" fill="white"/>
</clipPath>
</defs>
</svg>
