<svg width="26" height="26" viewBox="0 0 26 26" fill="none" xmlns="http://www.w3.org/2000/svg">
<path d="M24.2667 1.7334V22.5334H1.7334V15.1147C1.73478 14.9931 1.76172 14.8732 1.81249 14.7627C1.86326 14.6522 1.93671 14.5536 2.02807 14.4734L7.22807 8.89207C7.35374 8.78164 7.5087 8.70996 7.67422 8.68566C7.83974 8.66136 8.00876 8.68548 8.16087 8.75513C8.31299 8.82477 8.44169 8.93695 8.53145 9.07812C8.62122 9.2193 8.6682 9.38344 8.66673 9.55073V14.7507L14.1441 8.9094C14.2681 8.79438 14.423 8.71816 14.5898 8.69014C14.7566 8.66212 14.928 8.68352 15.0828 8.7517C15.2376 8.81988 15.369 8.93186 15.4609 9.07384C15.5529 9.21582 15.6012 9.3816 15.6001 9.55073V19.0667H20.8001V1.7334H24.2667Z" fill="black"/>
</svg>
