<svg width="22" height="22" viewBox="0 0 22 22" fill="none" xmlns="http://www.w3.org/2000/svg">
<path d="M19.2497 9.16683H17.4163V3.66683H18.333V1.8335H3.66634V3.66683H4.58301V9.16683H2.74967C2.50656 9.16683 2.2734 9.26341 2.10149 9.43532C1.92958 9.60722 1.83301 9.84038 1.83301 10.0835V18.3335H20.1663V10.0835C20.1663 9.84038 20.0698 9.60722 19.8979 9.43532C19.7259 9.26341 19.4928 9.16683 19.2497 9.16683ZM12.833 16.5002V12.8335H9.16634V16.5002H6.41634V3.66683H15.583V16.5002H12.833Z" fill="#DADADA"/>
<path d="M8.25 5.5H10.0833V7.33333H8.25V5.5ZM11.9167 5.5H13.75V7.33333H11.9167V5.5ZM8.25 9.16667H10.0833V11H8.25V9.16667ZM11.9167 9.16667H13.75V11H11.9167V9.16667Z" fill="#DADADA"/>
</svg>
